<?xml version="1.0" encoding="utf-8"?>
<!-- Generator: Adobe Illustrator 16.0.0, SVG Export Plug-In . SVG Version: 6.00 Build 0)  -->
<!DOCTYPE svg PUBLIC "-//W3C//DTD SVG 1.1//EN" "http://www.w3.org/Graphics/SVG/1.1/DTD/svg11.dtd">
<svg version="1.1" id="Layer_1" xmlns="http://www.w3.org/2000/svg" xmlns:xlink="http://www.w3.org/1999/xlink" x="0px" y="0px" viewBox="0 0 517.073 90.877" enable-background="new 0 0 517.073 90.877"
	 xml:space="preserve">
<g>
	<g>
		<g>
			<g>
				<path fill="#B2D235" d="M308.576,12.458c-1.748-1.191-5.857-3.139-11.289-4.251c-0.609-1.228-2.477-3.948-5.135-6.354
					c-0.45-0.378-0.934-0.735-1.459-1.068c8.824-1.701,19.189-0.919,30.391,5.141c20.39,11.031,20.631,22.896,16.678,30.504
					c-0.867,1.993-2.189,3.743-3.834,5.118c-2.532,2.444-6.061,2.988-6.061,2.988c-0.715,0.113-2.102,0.243-2.848,0.243
					c-7.672,0-13.914-6.22-13.893-13.893c0.011-3.842,2.205-7.46,2.205-7.46c0.381-0.555,1.021-1.795,1.246-2.407
					C314.462,15.7,311.802,14.659,308.576,12.458z"/>
			</g>
		</g>
		<g>
			<g>
				<path fill="#00567D" d="M327.518,58.535c1.191-1.747,3.139-5.856,4.251-11.289c1.229-0.608,3.948-2.476,6.354-5.135
					c0.379-0.449,0.734-0.933,1.068-1.458c1.701,8.826,0.919,19.191-5.141,30.391c-11.031,20.39-22.896,20.631-30.504,16.679
					c-1.993-0.869-3.742-2.189-5.119-3.836c-2.443-2.531-2.987-6.061-2.987-6.061c-0.112-0.714-0.243-2.102-0.243-2.847
					c0-7.673,6.22-13.913,13.893-13.892c3.842,0.01,7.46,2.205,7.46,2.205c0.556,0.379,1.796,1.02,2.407,1.246
					C324.277,64.422,325.318,61.762,327.518,58.535z"/>
			</g>
		</g>
		<g>
			<g>
				<path fill="#60295E" d="M281.82,78.419c1.748,1.191,5.857,3.139,11.289,4.25c0.609,1.229,2.477,3.949,5.135,6.354
					c0.45,0.379,0.934,0.735,1.459,1.069c-8.824,1.701-19.189,0.919-30.391-5.141c-20.39-11.031-20.631-22.896-16.679-30.505
					c0.868-1.992,2.19-3.742,3.835-5.118c2.532-2.444,6.061-2.987,6.061-2.987c0.715-0.113,2.102-0.243,2.848-0.243
					c7.672,0,13.913,6.22,13.893,13.892c-0.012,3.844-2.206,7.461-2.206,7.461c-0.38,0.555-1.02,1.795-1.245,2.406
					C275.933,75.177,278.593,76.218,281.82,78.419z"/>
			</g>
		</g>
		<g>
			<g>
				<path fill="#EF7622" d="M262.656,31.918c-1.191,1.748-3.139,5.857-4.25,11.289c-1.229,0.609-3.948,2.476-6.354,5.135
					c-0.379,0.449-0.735,0.933-1.069,1.458c-1.701-8.825-0.919-19.19,5.141-30.391c11.031-20.39,22.895-20.631,30.504-16.678
					c1.992,0.868,3.742,2.189,5.118,3.834c2.443,2.533,2.987,6.062,2.987,6.062c0.113,0.713,0.243,2.101,0.243,2.847
					c0,7.672-6.22,13.914-13.892,13.892c-3.844-0.01-7.461-2.205-7.461-2.205c-0.555-0.38-1.795-1.02-2.406-1.246
					C265.898,26.031,264.857,28.691,262.656,31.918z"/>
			</g>
		</g>
	</g>
	<g>
		<g>
			<g>
				<path fill-rule="evenodd" clip-rule="evenodd" fill="#60295E" d="M62.526,31.033c0.732,0.313,1.046,1.203,0.732,1.935
					l-15.22,34.206L32.296,35.635L16.5,67.173L1.333,32.968c-0.366-0.732,0-1.622,0.732-1.935c0.733-0.314,1.569,0,1.883,0.732
					l12.709,28.557l15.638-31.225l15.586,31.225l12.709-28.557C60.905,31.033,61.794,30.719,62.526,31.033z"/>
			</g>
			<g>
				<path fill="#60295E" d="M48.039,68.363c-0.45,0-0.863-0.254-1.064-0.658l-14.68-29.41l-14.73,29.411
					c-0.206,0.412-0.637,0.664-1.091,0.657c-0.46-0.011-0.873-0.286-1.06-0.707L0.246,33.45c-0.295-0.587-0.334-1.312-0.085-1.989
					c0.25-0.683,0.774-1.238,1.437-1.521c1.307-0.56,2.892,0.069,3.445,1.356l11.679,26.243l14.511-28.974
					c0.202-0.402,0.613-0.657,1.063-0.657c0,0,0,0,0.001,0c0.45,0,0.862,0.255,1.063,0.658l14.46,28.969l11.684-26.253
					c0.403-0.941,1.359-1.559,2.429-1.559c0.368,0,0.725,0.073,1.062,0.217c0.653,0.28,1.153,0.809,1.405,1.49
					c0.243,0.656,0.226,1.369-0.048,2.007l-15.226,34.22c-0.188,0.421-0.6,0.695-1.061,0.706
					C48.056,68.363,48.047,68.363,48.039,68.363z M2.65,32.101c-0.038,0-0.077,0.008-0.116,0.025
					c-0.062,0.027-0.114,0.084-0.139,0.153c-0.021,0.058-0.02,0.11,0.003,0.157l14.168,31.95l14.667-29.284
					c0.202-0.402,0.613-0.657,1.063-0.657c0,0,0,0,0.001,0c0.45,0,0.862,0.255,1.063,0.658l14.616,29.283l14.195-31.902
					c0.026-0.061,0.027-0.148-0.002-0.228c-0.017-0.045-0.049-0.104-0.111-0.13c-0.121-0.051-0.316-0.027-0.373,0.107L48.969,60.805
					c-0.188,0.421-0.601,0.695-1.061,0.706c-0.457,0.005-0.885-0.246-1.091-0.658L32.294,31.757L17.721,60.854
					c-0.206,0.411-0.614,0.667-1.091,0.657c-0.459-0.011-0.873-0.285-1.06-0.706L2.862,32.249
					C2.804,32.114,2.695,32.101,2.65,32.101z"/>
			</g>
		</g>
		<g>
			<g>
				<path fill-rule="evenodd" clip-rule="evenodd" fill="#60295E" d="M117.043,65.183c0.523,0.627,0.471,1.516-0.104,2.039
					c-0.628,0.523-1.569,0.471-2.092-0.156l-8.577-9.938H72.168l-8.264,9.938c-0.523,0.627-1.412,0.68-2.039,0.156
					c-0.628-0.471-0.68-1.412-0.21-2.039l27.25-32.689L117.043,65.183z M74.626,54.199h29.184L88.957,36.992L74.626,54.199z"/>
			</g>
			<g>
				<path fill="#60295E" d="M115.957,68.768c-0.787,0-1.524-0.342-2.023-0.939l-8.208-9.511H72.727l-7.907,9.509
					c-0.905,1.084-2.623,1.221-3.716,0.309c-0.516-0.384-0.876-1.043-0.94-1.77c-0.06-0.679,0.132-1.353,0.541-1.896l27.288-32.737
					c0.224-0.269,0.555-0.425,0.904-0.428c0.376-0.003,0.683,0.149,0.911,0.414l28.138,32.688c0.938,1.125,0.843,2.742-0.206,3.695
					C117.211,68.543,116.592,68.768,115.957,68.768z M72.168,55.939h34.101c0.346,0,0.674,0.15,0.9,0.412l8.577,9.938
					c0.129,0.155,0.24,0.18,0.43,0.02c0.068-0.062,0.064-0.229-0.047-0.363L88.92,34.334l-26.351,31.61
					c-0.015,0.023-0.043,0.123-0.036,0.212c0.002,0.026,0.011,0.088,0.045,0.113c0.312,0.255,0.331,0.134,0.413,0.033l8.262-9.936
					C71.48,56.096,71.815,55.939,72.168,55.939z M103.811,55.388H74.626c-0.461,0-0.881-0.267-1.077-0.685s-0.132-0.911,0.163-1.267
					l14.331-17.206c0.224-0.269,0.554-0.425,0.903-0.428c0.375-0.013,0.683,0.147,0.911,0.412l14.854,17.207
					c0.304,0.353,0.375,0.85,0.181,1.272S104.276,55.388,103.811,55.388z M77.165,53.009h24.047L88.973,38.832L77.165,53.009z"/>
			</g>
		</g>
		<g>
			<g>
				<path fill-rule="evenodd" clip-rule="evenodd" fill="#60295E" d="M169.421,64.436c0.628,0.418,0.837,1.36,0.366,1.987
					c-0.418,0.68-1.36,0.89-1.987,0.418l-15.324-10.198h-24.268v8.995c0,0.785-0.68,1.465-1.464,1.465
					c-0.785,0-1.464-0.68-1.464-1.465V32.793h32.846c6.589,0,11.924,5.334,11.924,11.925c0,6.59-5.335,11.925-11.924,11.925h-0.419
					L169.421,64.436z M128.208,35.723v17.992h29.917c4.968,0,8.996-4.027,8.996-8.996s-4.027-8.996-8.996-8.996H128.208z"/>
			</g>
			<g>
				<path fill="#60295E" d="M126.743,68.292c-1.438,0-2.654-1.216-2.654-2.654V32.793c0-0.657,0.533-1.189,1.189-1.189h32.846
					c7.231,0,13.114,5.883,13.114,13.114c0,6.2-4.325,11.409-10.117,12.769l8.958,5.959c0.586,0.39,0.993,1.024,1.115,1.74
					c0.118,0.687-0.033,1.361-0.424,1.907c-0.476,0.736-1.312,1.192-2.195,1.192c-0.546,0-1.062-0.171-1.491-0.493l-14.969-9.96
					h-22.719v7.806C129.397,67.077,128.182,68.292,126.743,68.292z M126.468,33.983v31.655c0,0.129,0.146,0.275,0.275,0.275
					s0.275-0.146,0.275-0.275v-8.995c0-0.657,0.533-1.189,1.189-1.189h24.268c0.234,0,0.464,0.069,0.659,0.199l15.441,10.253
					c0.064,0,0.153-0.033,0.199-0.106c0.019-0.03,0.04-0.061,0.062-0.09c0.017-0.023,0.023-0.071,0.014-0.122
					c-0.014-0.079-0.055-0.14-0.088-0.161l-11.715-7.793c-0.437-0.29-0.632-0.832-0.48-1.334s0.614-0.846,1.139-0.846h0.419
					c5.919,0,10.735-4.815,10.735-10.735c0-5.919-4.815-10.735-10.735-10.735H126.468z M158.125,54.904h-29.917
					c-0.657,0-1.189-0.532-1.189-1.189V35.723c0-0.657,0.533-1.189,1.189-1.189h29.917c5.616,0,10.185,4.569,10.185,10.185
					S163.741,54.904,158.125,54.904z M129.397,52.525h28.728c4.304,0,7.806-3.502,7.806-7.807c0-4.304-3.502-7.806-7.806-7.806
					h-28.728V52.525z"/>
			</g>
		</g>
		<g>
			<g>
				<path fill-rule="evenodd" clip-rule="evenodd" fill="#60295E" d="M202.999,63.285l22.333-33.524v36.192
					c0,0.785-0.628,1.412-1.413,1.412c-0.836,0-1.464-0.627-1.464-1.412V39.332l-19.456,29.236L183.49,39.332v26.621
					c0,0.785-0.627,1.412-1.413,1.412c-0.836,0-1.464-0.627-1.464-1.412V29.76L202.999,63.285z"/>
			</g>
			<g>
				<path fill="#60295E" d="M202.999,69.757c-0.397,0-0.769-0.198-0.989-0.529l-17.33-25.971v22.695
					c0,1.435-1.167,2.602-2.602,2.602c-1.488,0-2.654-1.143-2.654-2.602V29.76c0-0.524,0.343-0.986,0.844-1.138
					c0.503-0.153,1.044,0.042,1.334,0.478l21.395,32.042l21.344-32.041c0.291-0.436,0.831-0.629,1.334-0.479
					c0.501,0.152,0.845,0.614,0.845,1.139v36.192c0,1.435-1.167,2.602-2.602,2.602c-1.488,0-2.654-1.143-2.654-2.602V43.266
					l-17.276,25.961C203.769,69.558,203.397,69.757,202.999,69.757C202.999,69.757,202.999,69.757,202.999,69.757z M183.49,38.142
					c0.39,0,0.765,0.192,0.989,0.529l18.518,27.751l18.467-27.75c0.291-0.437,0.832-0.63,1.334-0.479
					c0.502,0.152,0.845,0.614,0.845,1.139v26.621c0,0.135,0.108,0.223,0.275,0.223c0.127,0,0.223-0.096,0.223-0.223V33.691
					l-20.154,30.252c-0.22,0.331-0.591,0.53-0.989,0.53h0c-0.397,0-0.769-0.198-0.989-0.529l-20.207-30.261v32.269
					c0,0.135,0.108,0.223,0.275,0.223c0.129,0,0.223-0.094,0.223-0.223V39.332c0-0.524,0.343-0.986,0.845-1.138
					C183.259,38.159,183.375,38.142,183.49,38.142z"/>
			</g>
		</g>
		<g>
			<g>
				<path fill-rule="evenodd" clip-rule="evenodd" fill="#60295E" d="M235.557,34.572c0-0.837,0.627-1.464,1.412-1.464
					c0.837,0,1.464,0.627,1.464,1.464v31.381c0,0.785-0.627,1.412-1.464,1.412c-0.785,0-1.412-0.627-1.412-1.412V34.572z"/>
			</g>
			<g>
				<path fill="#60295E" d="M236.969,68.554c-1.435,0-2.602-1.167-2.602-2.602V34.572c0-1.488,1.143-2.654,2.602-2.654
					c1.488,0,2.654,1.166,2.654,2.654v31.381C239.623,67.412,238.458,68.554,236.969,68.554z M236.969,34.297
					c-0.135,0-0.223,0.108-0.223,0.275v31.381c0,0.129,0.094,0.223,0.223,0.223c0.167,0,0.275-0.088,0.275-0.223V34.572
					C237.244,34.392,237.149,34.297,236.969,34.297z"/>
			</g>
		</g>
	</g>
	<g>
		<g>
			<g>
				<path fill-rule="evenodd" clip-rule="evenodd" fill="#60295E" d="M394.15,39.496c0.523,0.628,0.471,1.517-0.105,2.04
					c-0.627,0.522-1.516,0.471-2.039-0.104c-3.818-4.341-10.199-6.956-17.103-6.956c-11.245,0-20.345,6.799-20.345,15.115
					c0,8.315,9.1,15.115,20.345,15.115c6.903,0,13.284-2.615,17.103-6.956c0.523-0.576,1.412-0.628,2.039-0.105
					c0.576,0.523,0.629,1.413,0.105,2.04c-4.289,4.969-11.506,7.897-19.247,7.897c-6.171,0-11.925-1.83-16.317-5.125
					c-4.447-3.399-6.957-8.003-6.957-12.866c0-4.864,2.51-9.466,6.957-12.866c4.393-3.295,10.146-5.126,16.317-5.126
					C382.644,31.598,389.861,34.527,394.15,39.496z"/>
			</g>
			<g>
				<path fill="#60295E" d="M374.903,68.771c-6.372,0-12.421-1.904-17.031-5.363c-4.796-3.666-7.433-8.57-7.433-13.817
					c0-5.246,2.637-10.151,7.424-13.811c4.619-3.466,10.668-5.371,17.04-5.371c8.124,0,15.656,3.106,20.147,8.31
					c0.939,1.128,0.843,2.746-0.206,3.698c-1.152,0.962-2.802,0.823-3.719-0.185c-3.622-4.118-9.682-6.567-16.223-6.567
					c-10.562,0-19.155,6.247-19.155,13.926s8.593,13.926,19.155,13.926c6.541,0,12.601-2.449,16.209-6.552
					c0.941-1.034,2.624-1.124,3.694-0.234c1.088,0.987,1.185,2.605,0.257,3.717C390.559,65.665,383.027,68.771,374.903,68.771z
					 M374.903,32.788c-5.86,0-11.402,1.736-15.604,4.888c-4.177,3.193-6.481,7.427-6.481,11.915c0,4.488,2.305,8.723,6.49,11.921
					c4.192,3.146,9.734,4.881,15.595,4.881c7.442,0,14.301-2.798,18.347-7.485c0.099-0.118,0.102-0.285-0.005-0.382
					c-0.092-0.074-0.24-0.107-0.358,0.024c-4.042,4.595-10.769,7.346-17.983,7.346c-11.874,0-21.534-7.314-21.534-16.305
					s9.66-16.305,21.534-16.305c7.215,0,13.942,2.751,17.996,7.36c0.091,0.102,0.219,0.115,0.384-0.023
					c0.068-0.064,0.064-0.231-0.047-0.365C389.204,35.586,382.345,32.788,374.903,32.788z"/>
			</g>
		</g>
		<g>
			<g>
				<path fill-rule="evenodd" clip-rule="evenodd" fill="#60295E" d="M405.201,34.213c0-0.837,0.68-1.464,1.465-1.464
					c0.837,0,1.465,0.627,1.465,1.464v20.293c0,9.467,13.599,10.46,19.456,10.46c5.858,0,19.456-0.993,19.456-10.46V34.213
					c0-0.837,0.68-1.464,1.465-1.464c0.837,0,1.464,0.627,1.464,1.464v20.293c0,4.812-2.615,8.524-7.583,10.774
					c-4.708,2.145-10.67,2.615-14.802,2.615s-10.042-0.471-14.749-2.615c-4.969-2.25-7.637-5.963-7.637-10.774V34.213z"/>
			</g>
			<g>
				<path fill="#60295E" d="M427.586,69.085c-4.228,0-10.304-0.473-15.242-2.723c-5.45-2.468-8.333-6.568-8.333-11.856V34.213
					c0-1.463,1.19-2.654,2.654-2.654c1.488,0,2.654,1.166,2.654,2.654v20.293c0,8.367,12.774,9.271,18.267,9.271
					s18.267-0.903,18.267-9.271V34.213c0-1.463,1.19-2.654,2.654-2.654c1.488,0,2.653,1.166,2.653,2.654v20.293
					c0,5.304-2.863,9.404-8.281,11.858C437.942,68.613,431.837,69.085,427.586,69.085z M406.666,33.938
					c-0.114,0-0.275,0.085-0.275,0.275v20.293c0,4.284,2.399,7.636,6.938,9.69c4.553,2.074,10.267,2.51,14.259,2.51
					c3.287,0,9.518-0.326,14.309-2.508c4.57-2.07,6.887-5.331,6.887-9.692V34.213c0-0.18-0.095-0.275-0.274-0.275
					c-0.114,0-0.275,0.085-0.275,0.275v20.293c0,10.515-14.438,11.649-20.646,11.649s-20.646-1.135-20.646-11.649V34.213
					C406.941,34.034,406.845,33.938,406.666,33.938z"/>
			</g>
		</g>
		<g>
			<g>
				<path fill-rule="evenodd" clip-rule="evenodd" fill="#60295E" d="M459.32,54.82c0-0.784,0.68-1.465,1.465-1.465
					c0.836,0,1.464,0.681,1.464,1.465c0,5.335,8.892,9.886,19.456,9.886c11.454,0,19.457-2.615,19.457-6.382
					c0-4.34-5.807-5.334-16.998-6.903l-2.668-0.366l-2.459-0.365c-5.334-0.732-9.937-1.413-13.389-2.615
					c-1.568-0.576-6.328-2.25-6.328-7.218c0-2.196,1.256-5.23,7.113-7.217c3.87-1.36,9.152-2.04,15.271-2.04
					c12.553,0,22.385,5.597,22.385,12.762c0,0.785-0.627,1.464-1.464,1.464c-0.784,0-1.464-0.68-1.464-1.464
					c0-5.335-8.892-9.885-19.457-9.885c-11.454,0-19.456,2.615-19.456,6.38c0,4.341,6.538,5.44,17.155,6.957l2.51,0.365l2.668,0.367
					c5.439,0.731,10.094,1.412,13.441,2.615c4.079,1.465,6.066,3.818,6.066,7.164c0,2.197-1.255,5.23-7.112,7.219
					c-3.87,1.359-9.153,2.039-15.272,2.039C469.153,67.582,459.32,61.986,459.32,54.82z"/>
			</g>
			<g>
				<path fill="#60295E" d="M481.705,68.771c-13.219,0-23.574-6.128-23.574-13.951c0-1.438,1.216-2.654,2.654-2.654
					c1.463,0,2.653,1.19,2.653,2.654c0,4.633,8.536,8.696,18.267,8.696c11.435,0,18.268-2.64,18.268-5.192
					c0-3.155-4.867-4.168-15.974-5.726l-5.137-0.732c-5.553-0.763-10.09-1.444-13.605-2.669c-1.828-0.67-7.126-2.613-7.126-8.341
					c0-2.581,1.374-6.123,7.921-8.344c3.911-1.375,9.328-2.103,15.653-2.103c13.219,0,23.574,6.128,23.574,13.951
					c0,1.463-1.19,2.654-2.653,2.654c-1.438,0-2.653-1.216-2.653-2.654c0-4.632-8.536-8.695-18.268-8.695
					c-11.434,0-18.267,2.639-18.267,5.191c0,3.241,6.096,4.345,16.134,5.779l5.172,0.731c5.648,0.76,10.245,1.439,13.682,2.675
					c4.548,1.633,6.854,4.42,6.854,8.283c0,2.581-1.374,6.123-7.919,8.345C493.449,68.042,488.031,68.771,481.705,68.771z
					 M460.785,54.544c-0.129,0-0.275,0.146-0.275,0.275c0,6.381,9.508,11.572,21.195,11.572c6.061,0,11.206-0.682,14.878-1.972
					c4.137-1.404,6.317-3.511,6.317-6.097c0-1.781-0.547-4.346-5.279-6.045c-3.217-1.156-7.688-1.814-13.197-2.556l-5.19-0.734
					c-10.55-1.507-18.174-2.596-18.174-8.133c0-4.599,8.104-7.57,20.646-7.57c11.385,0,20.646,4.968,20.646,11.074
					c0,0.128,0.146,0.275,0.274,0.275c0.189,0,0.274-0.161,0.274-0.275c0-6.381-9.508-11.572-21.195-11.572
					c-6.06,0-11.204,0.682-14.877,1.973c-4.138,1.404-6.318,3.51-6.318,6.095c0,3.604,2.928,5.141,5.479,6.076
					c3.359,1.171,7.778,1.833,13.211,2.579l5.127,0.731c10.855,1.522,18.025,2.528,18.025,8.082c0,4.6-8.104,7.571-20.646,7.571
					c-11.384,0-20.646-4.969-20.646-11.075C461.059,54.706,460.974,54.544,460.785,54.544z"/>
			</g>
		</g>
		<g>
			<g>
				<path fill-rule="evenodd" clip-rule="evenodd" fill="#60295E" d="M513.007,34.822c0-0.837,0.627-1.464,1.411-1.464
					c0.837,0,1.465,0.627,1.465,1.464v31.381c0,0.784-0.628,1.411-1.465,1.411c-0.784,0-1.411-0.627-1.411-1.411V34.822z"/>
			</g>
			<g>
				<path fill="#60295E" d="M514.418,68.804c-1.434,0-2.601-1.167-2.601-2.601V34.822c0-1.488,1.143-2.654,2.601-2.654
					c1.488,0,2.654,1.166,2.654,2.654v31.381C517.073,67.662,515.907,68.804,514.418,68.804z M514.418,34.547
					c-0.135,0-0.222,0.108-0.222,0.275v31.381c0,0.126,0.096,0.222,0.222,0.222c0.167,0,0.275-0.087,0.275-0.222V34.822
					C514.694,34.643,514.598,34.547,514.418,34.547z"/>
			</g>
		</g>
	</g>
</g>
</svg>
