<?xml version="1.0" encoding="utf-8"?>
<!-- Generator: Adobe Illustrator 16.0.0, SVG Export Plug-In . SVG Version: 6.00 Build 0)  -->
<!DOCTYPE svg PUBLIC "-//W3C//DTD SVG 1.1//EN" "http://www.w3.org/Graphics/SVG/1.1/DTD/svg11.dtd">
<svg version="1.1" id="Capa_1" xmlns="http://www.w3.org/2000/svg" xmlns:xlink="http://www.w3.org/1999/xlink" x="0px" y="0px"
	 width="359.982px" height="359.982px" viewBox="0 0 359.982 359.982" enable-background="new 0 0 359.982 359.982"
	 xml:space="preserve">
<g>
	<path fill="#E72A53" d="M179.991,0C80.584,0,0,80.584,0,179.991s80.584,179.991,179.991,179.991s179.991-80.585,179.991-179.991
		S279.397,0,179.991,0z M109.043,220.689l-3.078-8.486c-8.117,7.25-18.002,10.918-29.465,10.918c-12.445,0-23.129-4.4-31.754-13.076
		c-8.617-8.67-12.986-19.32-12.986-31.65c0-9.434,2.705-18.082,8.037-25.707c5.35-7.631,12.564-13.129,21.445-16.348
		c5.221-1.881,10.395-2.834,15.391-2.834c9.455,0,18.113,2.74,25.734,8.142c7.611,5.398,13.104,12.629,16.32,21.496l20.857,57.545
		H109.043z M220.979,264.052h-28.68v-43.924c-5.15,1.988-10.576,2.992-16.198,2.992c-12.43,0-23.131-4.389-31.803-13.041
		c-8.678-8.668-13.076-19.355-13.076-31.768v-44.807h28.688v44.787c0,4.502,1.539,8.233,4.707,11.409
		c3.16,3.189,6.891,4.734,11.41,4.734c4.527,0,8.288-1.553,11.497-4.746c3.215-3.189,4.775-6.916,4.775-11.397v-44.787h28.68
		V264.052z M303.223,210.128c-8.633,8.623-19.363,12.992-31.893,12.992c-12.434,0-23.137-4.396-31.809-13.066
		c-8.668-8.674-13.062-19.379-13.062-31.817v-44.732h28.684v44.732c0,4.514,1.539,8.262,4.705,11.461
		c3.162,3.188,6.895,4.736,11.406,4.736c4.523,0,8.287-1.557,11.504-4.758c3.211-3.193,4.77-6.936,4.77-11.44v-44.732h28.688v44.732
		C316.215,190.763,311.844,201.492,303.223,210.128z M319.219,223.25c-4.959,0-8.994-4.035-8.994-8.998
		c0-4.967,4.035-9.004,8.994-9.004c4.967,0,9.008,4.037,9.008,9.004C328.227,219.214,324.186,223.25,319.219,223.25z"/>
	<path fill="#E72A53" d="M85.768,165c-2.711-1.891-5.74-2.803-9.283-2.803c-5.723,0-10.002,2.215-13.078,6.773
		c-1.994,2.92-2.959,5.969-2.959,9.342c0,5.664,2.262,9.969,6.916,13.16c2.889,1.998,5.867,2.963,9.121,2.963
		c4.514,0,8.262-1.539,11.459-4.709c3.188-3.158,4.736-6.893,4.736-11.414C92.68,172.552,90.418,168.199,85.768,165z"/>
</g>
</svg>
