<?xml version="1.0" encoding="utf-8"?>
<!-- Generator: Adobe Illustrator 16.0.0, SVG Export Plug-In . SVG Version: 6.00 Build 0)  -->
<!DOCTYPE svg PUBLIC "-//W3C//DTD SVG 1.1//EN" "http://www.w3.org/Graphics/SVG/1.1/DTD/svg11.dtd">
<svg version="1.1" id="Layer_1" xmlns="http://www.w3.org/2000/svg" xmlns:xlink="http://www.w3.org/1999/xlink" x="0px" y="0px" viewBox="0 0 505.407 120.595" enable-background="new 0 0 505.407 120.595"
	 xml:space="preserve">
<g>
	<path fill="none" d="M265.447,111.201c0,1.396,0.947,2.467,2.965,2.467c1.297,0,2.393-0.523,3.266-1.346l-3.688-4.385
		C266.345,108.859,265.447,109.781,265.447,111.201z"/>
	<path fill="none" d="M297.865,105.053c-1.719,0-2.766,1.289-2.99,3.289h6.08C300.832,106.342,299.984,105.053,297.865,105.053z"/>
	<path fill="none" d="M369.085,105.053c-1.719,0-2.766,1.289-2.99,3.289h6.08C372.05,106.342,371.203,105.053,369.085,105.053z"/>
	<path fill="none" d="M362.464,76.593c2.693,0,5.074-1.077,7.074-2.334v-6.465c-2-0.808-4.021-1.347-7.074-1.347
		c-3.322,0-5.027,1.796-5.027,5.028C357.437,74.439,358.962,76.593,362.464,76.593z"/>
	<path fill="none" d="M339.579,104.797c-1.221,0-2.04,0.822-3.04,1.669v5.507c1,0.772,1.845,1.72,3.14,1.72
		c1.844,0,2.84-1.396,2.84-4.161C342.518,106.243,341.473,104.797,339.579,104.797z"/>
	<path fill="none" d="M55.932,32.473c0.239,0.625,0.446,1.283,0.657,1.936c0.458,0.202,0.906,0.413,1.351,0.627
		c-1.385-5.831-2.752-11.764-4.265-17.609c-0.921,4.305-1.849,8.593-2.784,12.867C52.622,30.969,54.333,31.666,55.932,32.473z"/>
	<path fill="none" d="M238.685,111.575c0,1.296,0.908,2.168,2.604,2.168c1.369,0,2.25-0.848,3.25-1.67v-1.868
		c-1-0.35-1.682-0.573-3.076-0.573C239.818,109.631,238.685,110.378,238.685,111.575z"/>
	<path fill="none" d="M72.672,36.003c-0.832-0.813-1.369-1.919-1.753-3.18c-0.266,0.12-0.52,0.252-0.801,0.359
		c-0.137-0.134-0.247-0.296-0.369-0.445c0.813,3.355,1.612,6.574,2.376,9.492c2.733-3.312,5.495-6.667,8.231-10.107
		c-0.604,0.222-1.171,0.448-1.657,0.688C76.5,33.903,74.85,35.174,72.672,36.003z"/>
	<path fill="none" d="M218.539,66.897c-3-1.257-5.868-2.065-10.896-2.065c-5.926,0-9.758,2.694-9.758,7.004
		c0,4.668,3.055,7.811,9.16,7.811c4.938,0,9.494-3.053,11.494-6.016V66.897z"/>
	<path fill="none" d="M209.434,104.872c-1.943,0-3.14,1.72-3.14,4.311c0,2.866,1.32,4.436,3.264,4.436
		c1.944,0,3.215-1.969,3.215-4.36C212.773,106.591,211.502,104.872,209.434,104.872z"/>
	<path fill="none" d="M74.866,61.217c4.972-0.051,10.008-0.052,15.171,0.011c-2.986-1.548-5.759-3.644-9.208-5.012
		c0.21-0.442,0.45-0.854,0.702-1.255c-0.351-0.194-0.707-0.383-1.068-0.567C78.643,56.693,76.783,58.972,74.866,61.217z"/>
	<path fill="none" d="M402.724,104.797c-1.844,0-2.717,1.395-2.717,4.161c0,3.289,0.859,4.734,2.754,4.734
		c1.221,0,2.777-0.822,2.777-1.67v-5.507C405.539,105.744,404.019,104.797,402.724,104.797z"/>
	<path fill="none" d="M420.267,105.053c-1.719,0-2.766,1.289-2.99,3.289h6.08C423.232,106.342,422.384,105.053,420.267,105.053z"/>
	<path fill="none" d="M484.296,52.172c-2.334,0-3.758,0.898-5.758,2.245v18.046c2,1.347,3.334,2.245,5.848,2.245
		c3.322,0,5.027-2.065,5.027-10.864C489.414,54.417,487.708,52.172,484.296,52.172z"/>
	<path fill="#264C59" d="M140.359,58.277c-7.093-2.783-8.709-4.489-8.709-6.823c0-2.514,1.976-4.31,6.465-4.31
		s8.35,1.347,12.21,4.04l4.04-7.093c-4.22-3.053-10.056-5.208-15.981-5.208c-9.427,0-16.07,4.399-16.07,12.84
		c0,7.451,3.681,10.864,13.826,14.814c6.823,2.604,10.953,4.31,10.953,7.901c0,3.321-2.783,5.207-8.619,5.207
		c-4.399,0-9.337-1.616-13.736-4.669l-4.22,7.003c4.759,3.502,11.672,6.016,18.046,6.016c9.248,0,17.688-3.501,17.688-13.916
		C156.25,65.191,150.864,62.318,140.359,58.277z"/>
	<path fill="#264C59" d="M173.539,21.557l-9,4.848v13.938h-7v8h7v27.174c0,8.439,4.113,12.479,10.668,12.479
		c3.682,0,6.86-0.897,9.104-2.154l1.097-8.17c-1.706,0.987-4.498,1.885-6.923,1.885c-3.411,0-4.946-1.257-4.946-5.656V48.342h12v-8
		h-12V21.557z"/>
	<path fill="#264C59" d="M227.539,87.342V54.687c0-10.685-7.271-15.803-17.775-15.803c-6.645,0-11.716,1.438-16.205,4.221
		l3.568,7.003c3.682-2.065,7.563-2.963,12.412-2.963c5.746,0,9,2.873,9,7.99v3.502c-3-1.167-6.228-1.796-10.627-1.796
		c-10.685,0-18.826,4.759-18.826,15.263c0,11.582,8.801,15.892,16.433,15.892c5.117,0,10.021-2.424,13.021-5.656v5.003H227.539z
		 M207.014,79.646c-6.105,0-9.13-3.143-9.13-7.811c0-4.31,3.862-7.004,9.788-7.004c5.028,0,7.866,0.809,10.866,2.065v6.733
		C216.539,76.593,211.952,79.646,207.014,79.646z"/>
	<path fill="#264C59" d="M255.296,38.884c-4.668,0-8.758,2.335-10.758,5.478v-4.019h-9v47h9V60.073
		c0-7.991,3.396-12.121,9.232-12.121c3.053,0,5.109,0.629,7.084,1.706l2.428-8.799C261.398,39.603,259.068,38.884,255.296,38.884z"
		/>
	<path fill="#264C59" d="M298.552,74.08c0-8.889-5.387-11.762-15.891-15.802c-7.094-2.783-8.709-4.489-8.709-6.823
		c0-2.514,1.975-4.31,6.464-4.31s8.35,1.347,12.21,4.04l4.041-7.093c-4.221-3.053-10.057-5.208-15.982-5.208
		c-9.426,0-16.07,4.399-16.07,12.84c0,7.451,3.682,10.864,13.826,14.814c6.824,2.604,10.953,4.31,10.953,7.901
		c0,3.321-2.783,5.207-8.619,5.207c-4.398,0-9.337-1.616-13.736-4.669l-4.22,7.003c4.759,3.502,11.672,6.016,18.046,6.016
		C290.113,87.996,298.552,84.495,298.552,74.08z"/>
	<path fill="#264C59" d="M342.363,76.773l-10.234-7.99c-2.963,4.399-5.117,6.104-8.17,6.104c-4.4,0-6.645-3.86-6.645-11.312
		c0-7.453,2.064-11.583,6.195-11.583c3.502,0,5.027,1.976,7.272,6.105l11.133-8.439c-4.13-6.644-9.247-10.774-18.136-10.774
		c-15.084,0-22.445,9.967-22.445,24.422c0,15.891,8.26,24.689,22.086,24.689C331.769,87.996,336.886,84.853,342.363,76.773z"/>
	<path fill="#264C59" d="M369.539,83.866v3.477h15V56.392c0-10.953-5.776-17.508-18.974-17.508c-8.17,0-14.56,1.526-20.306,4.311
		l4.211,10.684c4.58-2.514,8.418-3.412,13.267-3.412c4.398,0,6.802,1.437,6.802,5.567v2.334c-3-1.167-5.639-1.976-9.947-1.976
		c-9.967,0-17.05,5.208-17.05,15.354c0,10.594,6.227,16.25,15.384,16.25C362.235,87.996,366.539,86.201,369.539,83.866z
		 M362.464,66.448c3.053,0,5.074,0.539,7.074,1.347v6.465c-2,1.257-4.381,2.334-7.074,2.334c-3.502,0-5.027-2.154-5.027-5.117
		C357.437,68.244,359.142,66.448,362.464,66.448z"/>
	<path fill="#264C59" d="M443.144,38.884c-6.464,0-10.435,2.515-13.847,5.298c-2.963-3.232-6.813-5.298-13.276-5.298
		c-5.119,0-8.482,1.976-11.482,4.131v-2.672h-16v47h16V60.073c0-5.926,2.179-7.542,5.5-7.542c3.232,0,5.5,1.616,5.5,7.722v27.089h16
		V60.073c0-5.926,1.723-7.542,5.045-7.542c3.232,0,4.955,1.616,4.955,7.722v27.089h17V58.188
		C458.539,45.798,453.739,38.884,443.144,38.884z"/>
	<path fill="#264C59" d="M489.683,38.884c-4.938,0-8.145,1.796-11.145,4.311v-2.852h-16v63.994l16-6.465V83.866
		c3,1.976,5.848,4.13,10.516,4.13c10.326,0,16.341-7.811,16.341-24.689C505.395,45.798,498.572,38.884,489.683,38.884z
		 M484.386,74.708c-2.514,0-3.848-0.898-5.848-2.245V54.417c2-1.347,3.424-2.245,5.758-2.245c3.412,0,5.117,2.245,5.117,11.672
		C489.414,72.643,487.708,74.708,484.386,74.708z"/>
	<path fill-rule="evenodd" clip-rule="evenodd" fill="#FF671B" d="M47.493,3.377c1.7-0.873,4-0.51,6.062-0.3
		c0.2-0.96,0.405-1.913,0.604-2.875c-2.38,0.669-6.544-1.019-9.221,0.353c-2.255,1.159-2.733,7.391-3.544,10.994
		c-1.071,4.758-2.16,9.531-3.253,14.302c0.659,0.299,1.297,0.604,1.906,0.933c-0.862,3.275-1.073,7.201-2.481,9.93
		c-0.573-0.284-1.151-0.55-1.729-0.819c-0.663,2.886-1.324,5.768-1.981,8.642c0.644,0.822,1.297,1.635,1.936,2.461
		c-1.168,3.559-1.708,7.747-2.837,11.346c-0.608-0.533-1.223-1.116-1.84-1.728c-0.609,2.708-1.213,5.407-1.806,8.088
		c0.783,0.079,1.534,0.192,2.228,0.378c-0.622,2.202-1.236,6.878-2.483,9.575c-0.624-0.041-1.256-0.065-1.891-0.083
		c-1.504,7.032-2.922,13.94-4.208,20.667c0.77,0.824,1.688,1.499,2.698,2.081c5.003-26.041,11.943-54.738,18.296-82.953
		C44.758,10.77,45.237,4.535,47.493,3.377z"/>
	<path fill-rule="evenodd" clip-rule="evenodd" fill="#FF671B" d="M60.26,3.024c0.15-0.001,0.29,0.022,0.429,0.048
		c-0.651-1.66-1.558-2.879-2.982-2.87c-1.721,0.011-2.552,1.251-3.041,2.966c0.758,0.042,1.458,0.021,2.047-0.144
		c-1,4.825-2.015,9.622-3.038,14.403c1.512,5.845,2.879,11.778,4.265,17.609c0.181,0.087,0.368,0.169,0.546,0.259
		c1.371,3.594,2.277,7.652,2.837,12.057c-0.117-0.04-0.226-0.088-0.342-0.128c0.433,1.607,0.876,3.193,1.335,4.752
		c0.519-0.339,0.99-0.728,1.439-1.136c-3.074-11.276-5.547-23.656-8.816-35.406C57.491,12.314,55.53,3.053,60.26,3.024z"/>
	<path fill-rule="evenodd" clip-rule="evenodd" fill="#F2DF00" d="M14.462,21.212c-0.835-0.975-1.664-1.955-2.503-2.925
		c-1.36,3.242-5.487,4.979-5.319,8.51c0.079,1.628,2.005,3.6,3.774,5.41c-0.692-0.905-1.181-1.788-1.22-2.587
		C9.027,26.126,13.06,24.385,14.462,21.212z"/>
	<path fill-rule="evenodd" clip-rule="evenodd" fill="#F2DF00" d="M12.904,34.963c4.843,5.899,9.77,12.68,14.478,17.63
		c-4.114-4.756-8.351-10.514-12.516-15.528C14.325,36.413,13.625,35.701,12.904,34.963z"/>
	<path fill-rule="evenodd" clip-rule="evenodd" fill="#F2DF00" d="M56.589,34.409c-0.211-0.653-0.418-1.311-0.657-1.936
		c-1.6-0.807-3.311-1.503-5.041-2.179c-0.715,3.269-1.432,6.531-2.153,9.784c0.367,0.19,0.732,0.382,1.101,0.57
		c0.491-3.103,0.86-5.416,1.91-8.191C53.379,33.09,55.016,33.717,56.589,34.409z"/>
	<path fill-rule="evenodd" clip-rule="evenodd" fill="#F2DF00" d="M49.904,42.402c-0.351-0.503-0.818-0.892-1.427-1.137
		c-0.209,0.944-0.42,1.882-0.63,2.825C48.758,43.752,49.484,43.229,49.904,42.402z"/>
	<path fill-rule="evenodd" clip-rule="evenodd" fill="#0099A8" d="M11.676,54.729c4.253-2.125,7.675-3.387,10.284-5.387
		c0.237,0,0.472,0,0.708,0c0.654,0,1.276,0.818,1.866,1.379c-0.177-0.199-0.353-0.52-0.518-0.71c-1.124-1.303-2.435-2.668-3.9-3.668
		c-0.238,0-0.473,0-0.709,0c-2.61,2-6.031,3.351-10.285,5.476c-3.146,1.575-10.602,4.007-8.863,7.527
		c0.738,0.369,1.574,0.684,2.47,0.943C3.757,57.785,9.127,56.004,11.676,54.729z"/>
	<path fill-rule="evenodd" clip-rule="evenodd" fill="#F2DF00" d="M48.789,62.711c-0.896-1.013-1.809-2.008-2.721-3.004
		c0.002,0.02,0.006,0.037,0.008,0.057C46.996,60.73,47.888,61.725,48.789,62.711z"/>
	<path fill-rule="evenodd" clip-rule="evenodd" fill="#F2DF00" d="M61.608,93.467c1.663,1.96,3.711,5.631,5.832,7.313
		c-1.184-1.589-2.298-3.338-3.279-4.495c-7.355-8.67-14.475-16.367-21.278-25.529c1.271-3.656,1.763-8.478,2.84-11.348
		c0.029-0.006,0.045,0,0.069-0.001c-0.367-0.399-0.732-0.801-1.103-1.198c-0.895,3.984-1.789,7.959-2.683,11.926
		C48.299,78.345,54.853,85.501,61.608,93.467z"/>
	<path fill-rule="evenodd" clip-rule="evenodd" fill="#0099A8" d="M94.66,62.954c-1.661-0.345-3.167-0.971-4.623-1.726
		c-5.163-0.063-10.199-0.062-15.171-0.011c-0.495,0.579-0.983,1.162-1.486,1.736c-4.96-0.339-8.271,0.73-12.056,0
		c0.075-0.501,0.28-0.992,0.558-1.479c-3.878,0.114-7.745,0.255-11.621,0.432c1.912,3.76,4.936,6.41,7.446,9.574
		c0.043-0.002,0.089-0.004,0.133-0.006c-1.849-2.077-3.703-4.147-5.025-6.748c16.524-0.751,32.853-0.948,50.979-0.444
		c0.128-0.684,0.279-1.345,0.47-1.967C100.505,62.586,97.092,63.458,94.66,62.954z"/>
	<path fill-rule="evenodd" clip-rule="evenodd" fill="#0099A8" d="M18.769,64.727c3.624,0.004,6.886-0.264,9.67-0.096
		c0.189-0.92,0.366-1.746,0.542-2.37c-2.333-0.627-5.199-0.545-8.451-0.442c-1.633,0.862-3.309,1.569-4.953,1.846
		c-4.694,0.787-9.57,0.179-12.766-1.418c-0.007-0.015-0.008-0.029-0.015-0.044c-0.649,0.109-1.27,0.239-1.833,0.413
		c0.792,2.873,1.043,6.287,2.484,8.514c0.48,0.11,0.968,0.205,1.461,0.288c-0.567-1.892-0.861-4.054-1.391-5.979
		C7.378,64.246,13.509,64.721,18.769,64.727z"/>
	<linearGradient id="SVGID_1_" gradientUnits="userSpaceOnUse" x1="67.4863" y1="81.7896" x2="78.0146" y2="81.7896">
		<stop  offset="0" style="stop-color:#E75300"/>
		<stop  offset="1" style="stop-color:#E75300"/>
	</linearGradient>
	<path fill-rule="evenodd" clip-rule="evenodd" fill="url(#SVGID_1_)" d="M67.486,74.053c0.831,4.505,2.351,8.326,2.988,13.029
		c0.888,0.487,1.696,1.42,2.5,2.508c-0.717-4.952-2.394-8.943-3.139-13.869c2.694-0.52,5.723-0.645,8.18-0.506
		c-0.121-0.416-0.246-0.815-0.369-1.225C74.241,73.982,70.818,73.99,67.486,74.053z"/>
	<linearGradient id="SVGID_2_" gradientUnits="userSpaceOnUse" x1="73.3418" y1="92.6206" x2="77.4575" y2="92.6206">
		<stop  offset="0" style="stop-color:#E75300"/>
		<stop  offset="1" style="stop-color:#E75300"/>
	</linearGradient>
	<path fill-rule="evenodd" clip-rule="evenodd" fill="url(#SVGID_2_)" d="M73.342,90.1c1.262,1.773,2.539,3.822,4.116,5.041
		C76.053,93.209,74.795,91.084,73.342,90.1z"/>
	<linearGradient id="SVGID_3_" gradientUnits="userSpaceOnUse" x1="34.9629" y1="89.3403" x2="48.8853" y2="89.3403">
		<stop  offset="0" style="stop-color:#E75300"/>
		<stop  offset="1" style="stop-color:#E75300"/>
	</linearGradient>
	<path fill-rule="evenodd" clip-rule="evenodd" fill="url(#SVGID_3_)" d="M36.466,101.834c1.022-4.127,0.61-8.325,2.16-11.574
		c0.414-0.861,2.443-3.115,3.904-4.965c1.761-2.23,3.405-4.24,5.317-5.674c0.374,0.181,0.717,0.394,1.038,0.631
		c-0.983-1.395-2.033-2.697-3.592-3.453c-1.911,1.434-3.557,3.443-5.317,5.674c-0.323,0.409-0.675,0.838-1.029,1.267
		c-1.339,5.967-2.671,11.924-3.984,17.872C35.454,101.88,35.958,101.935,36.466,101.834z"/>
	<path fill-rule="evenodd" clip-rule="evenodd" fill="#F2DF00" d="M18.769,17.564c2.771-0.484,8.222,3.506,10.639,4.609
		c2.947,1.342,5.493,2.277,7.75,3.243c0.103-0.494,0.212-0.982,0.336-1.455c-2.914-1.571-6.361-2.663-10.641-4.61
		c-2.415-1.103-7.868-5.092-10.637-4.609c-5.478,0.952-0.463,6.242,1.063,8.154c1.171,1.469,2.133,2.601,3.145,3.552
		c-0.195-0.239-0.385-0.472-0.591-0.73C18.307,23.805,13.292,18.518,18.769,17.564z"/>
	<path fill-rule="evenodd" clip-rule="evenodd" fill="#B6008D" d="M70.119,33.182c0.281-0.107,0.535-0.239,0.801-0.359
		c-0.582-1.912-0.801-4.186-1.085-6.395c5.732-1.967,13.766-7.746,19.858-9.574c0.228-0.068,0.466-0.07,0.707-0.045
		c0.042-0.331,0.03-0.666-0.069-1.004c-0.25-0.864-1.901-2.161-3.19-1.773c-6.003,1.801-13.881,7.426-19.593,9.476
		c0.735,3.109,1.475,6.222,2.203,9.229C69.872,32.886,69.981,33.047,70.119,33.182z"/>
	<path fill-rule="evenodd" clip-rule="evenodd" fill="#B6008D" d="M68.77,52.314c5.346-6.742,11.153-13.41,16.668-20.566
		c2.87-3.727,5.793-7.661,8.864-10.994c0.356,0.212,0.687,0.45,1.003,0.703c-0.702-0.988-1.471-1.909-2.391-2.679
		c0.507,2.274-2.446,4.391-3.576,5.877c-1.402,1.848-2.472,4.3-3.9,5.317c-1.221,0.875-3.306,1.497-5.081,2.15
		c-2.736,3.44-5.498,6.795-8.231,10.107c0.306,1.167,0.606,2.291,0.899,3.351c-2.949,2.843-4.653,6.929-8.155,9.219
		c-0.244-0.827-0.473-1.678-0.708-2.519c-0.6,0.844-1.201,1.693-1.844,2.534c-1.412,1.846-3.278,3.511-3.546,5.318
		c1.312,0.253,2.568,0.284,3.854,0.238c0.685-0.893,1.523-1.79,2.245-2.734C66.229,55.857,67.403,54.043,68.77,52.314z"/>
	<path fill-rule="evenodd" clip-rule="evenodd" fill="#F2DF00" d="M81.53,54.961c1.437-2.282,3.454-3.988,4.972-6.191
		c2.712,0.71,6.78,2.676,11.701,4.965c2.268,1.054,4.858,1.995,6.75,3.147c-0.689-2.728-5.464-4.183-9.302-5.969
		c-3.617-1.683-6.768-3.185-9.264-4.148c-1.955,2.546-3.921,5.096-5.925,7.629C80.824,54.578,81.18,54.767,81.53,54.961z"/>
	<g>
		<path fill-rule="evenodd" clip-rule="evenodd" fill="#FF671B" d="M53.676,17.427c1.023-4.781,2.038-9.578,3.038-14.403
			c-0.589,0.165-1.289,0.186-2.047,0.144c-0.359-0.02-0.731-0.053-1.111-0.092c-2.062-0.21-4.362-0.572-6.062,0.3
			c-2.256,1.158-2.734,7.393-3.545,10.992c-6.353,28.215-13.293,56.912-18.296,82.953c-0.047,0.246-0.097,0.496-0.144,0.741
			c2.227,2.383,5.64,3.578,9.22,4.609c0.078-0.354,0.158-0.708,0.236-1.061c1.313-5.948,2.645-11.905,3.984-17.872
			c1.016-4.526,2.035-9.061,3.059-13.604c0.894-3.967,1.788-7.942,2.683-11.926c1.055-4.693,2.107-9.398,3.158-14.119
			c0.21-0.943,0.421-1.881,0.63-2.825c0.087-0.396,0.175-0.792,0.262-1.188c0.721-3.252,1.438-6.515,2.153-9.784
			C51.827,26.021,52.755,21.732,53.676,17.427z"/>
	</g>
	<g>
		<path fill-rule="evenodd" clip-rule="evenodd" fill="#FF671B" d="M73.025,45.579c-0.293-1.06-0.593-2.184-0.899-3.351
			c-0.764-2.917-1.563-6.136-2.376-9.492c-0.729-3.008-1.468-6.121-2.203-9.229c-0.909-3.843-1.811-7.672-2.677-11.264
			c-0.813-3.375-1.472-8.678-4.181-9.171C60.55,3.047,60.41,3.023,60.26,3.024c-4.73,0.028-2.77,9.29-5.32,12.409
			c3.269,11.75,5.742,24.129,8.816,35.406c0.132,0.485,0.271,0.959,0.405,1.439c0.236,0.841,0.465,1.692,0.708,2.519
			C68.372,52.508,70.076,48.422,73.025,45.579z"/>
	</g>
	<g>
		<path fill-rule="evenodd" clip-rule="evenodd" fill="#F2DF00" d="M35.791,46.997c-0.639-0.827-1.292-1.639-1.936-2.461
			c-6.261-7.997-12.73-15.781-19.343-23.426c-0.015,0.035-0.034,0.068-0.05,0.103c-1.402,3.173-5.436,4.914-5.268,8.408
			c0.039,0.799,0.527,1.682,1.22,2.587c0.701,0.916,1.609,1.854,2.49,2.756c0.721,0.738,1.42,1.45,1.962,2.102
			c4.165,5.014,8.401,10.772,12.516,15.528c1.257,1.454,2.502,2.806,3.731,4.022c0.618,0.611,1.232,1.195,1.84,1.728
			C34.083,54.744,34.623,50.556,35.791,46.997z"/>
	</g>
	<g>
		<path fill-rule="evenodd" clip-rule="evenodd" fill="#F2DF00" d="M58.487,35.295c-0.179-0.09-0.365-0.171-0.546-0.259
			c-0.445-0.215-0.893-0.426-1.351-0.627c-1.573-0.691-3.21-1.318-4.84-1.952c-1.05,2.775-1.419,5.088-1.91,8.191
			c-0.07,0.444-0.143,0.905-0.22,1.385c3.624,1.896,7.258,3.775,11.362,5.19c0.117,0.04,0.225,0.088,0.342,0.128
			C60.764,42.947,59.858,38.889,58.487,35.295z"/>
	</g>
	<g>
		<path fill-rule="evenodd" clip-rule="evenodd" fill="#F2DF00" d="M48.913,43.806c0.127,1.405-1.148,2.575-0.356,3.546
			c1.759-0.254,3.224-0.797,3.902-2.127C51.778,44.248,50.672,43.697,48.913,43.806z"/>
	</g>
	<g>
		<path fill-rule="evenodd" clip-rule="evenodd" fill="#0099A8" d="M15.579,63.665c1.644-0.276,3.319-0.983,4.953-1.846
			c3.192-1.687,6.221-3.979,8.521-4.893c0.023-1.263-1.425-2.68-2.482-3.9c-0.622-0.72-1.304-1.609-2.035-2.304
			c-0.59-0.561-1.212-1.379-1.866-1.379c-0.236,0-0.471,0-0.708,0c-2.609,2-6.031,3.262-10.284,5.387
			c-2.549,1.275-7.919,3.095-8.947,5.598c-0.236,0.575-0.24,1.205,0.069,1.858c0.007,0.015,0.008,0.038,0.015,0.053
			C6.008,63.834,10.884,64.452,15.579,63.665z"/>
	</g>
	<g>
		<path fill-rule="evenodd" clip-rule="evenodd" fill="#F2DF00" d="M42.882,70.756c6.804,9.162,13.923,16.859,21.278,25.529
			c0.98,1.157,2.095,2.906,3.279,4.495c1.333,1.789,2.752,3.372,4.169,3.665c1.446,0.297,7.038-2.439,8.864-4.256
			c-10.957-12.1-20.677-25.434-31.685-37.479c-0.901-0.986-1.793-1.981-2.713-2.948c-0.002-0.02-0.005-0.037-0.008-0.057
			c-0.02-0.174-0.073-0.313-0.276-0.3c-0.024,0.002-0.04-0.005-0.069,0.001C44.645,62.279,44.153,67.1,42.882,70.756z"/>
	</g>
	<g>
		<path fill-rule="evenodd" clip-rule="evenodd" fill="#0099A8" d="M52.814,64.727c1.322,2.601,3.177,4.671,5.025,6.748
			c0.824,0.926,1.647,1.853,2.421,2.828c2.319-0.129,4.749-0.204,7.226-0.25c3.332-0.063,6.754-0.071,10.159-0.062
			c10.169,0.025,20.118,0.171,26.585-0.752c1.996-1.904,1.706-6.098,2.84-8.866c-1.107-0.036-2.184-0.06-3.277-0.09
			C85.667,63.779,69.338,63.976,52.814,64.727z"/>
	</g>
	<g>
		<path fill-rule="evenodd" clip-rule="evenodd" fill="#0099A8" d="M31.536,65.082c-0.694-0.186-1.445-0.299-2.228-0.378
			c-0.284-0.028-0.573-0.054-0.868-0.072c-2.784-0.168-6.047,0.1-9.67,0.096c-5.26-0.006-11.391-0.481-15.249,0.711
			c0.53,1.926,0.824,4.088,1.391,5.979c0.278,0.931,0.617,1.801,1.092,2.534c6.421,1.48,14.088,0.422,21.158,0.622
			c0.635,0.018,1.267,0.042,1.891,0.083C30.299,71.959,30.914,67.284,31.536,65.082z"/>
	</g>
	<g>
		<linearGradient id="SVGID_4_" gradientUnits="userSpaceOnUse" x1="69.8345" y1="87.0981" x2="84.7969" y2="87.0981">
			<stop  offset="0" style="stop-color:#E75300"/>
			<stop  offset="1" style="stop-color:#E75300"/>
		</linearGradient>
		<path fill-rule="evenodd" clip-rule="evenodd" fill="url(#SVGID_4_)" d="M69.834,75.721c0.746,4.926,2.422,8.917,3.139,13.869
			c0.016,0.106,0.037,0.207,0.051,0.314c0.107,0.059,0.212,0.124,0.317,0.195c1.453,0.984,2.711,3.109,4.116,5.041
			c1.813,2.493,3.873,4.662,6.918,3.629c1.218-3.652-0.498-7.943-1.421-11.701c-0.996-4.062-2.044-8.059-3.191-11.703
			c-0.532-0.067-1.127-0.115-1.749-0.15C75.558,75.077,72.529,75.202,69.834,75.721z"/>
	</g>
	<g>
		<linearGradient id="SVGID_5_" gradientUnits="userSpaceOnUse" x1="36.144" y1="92.1685" x2="54.2329" y2="92.1685">
			<stop  offset="0" style="stop-color:#E75300"/>
			<stop  offset="1" style="stop-color:#E75300"/>
		</linearGradient>
		<path fill-rule="evenodd" clip-rule="evenodd" fill="url(#SVGID_5_)" d="M42.53,85.295c-1.461,1.85-3.49,4.104-3.904,4.965
			c-1.55,3.249-1.137,7.447-2.16,11.574c-0.099,0.398-0.193,0.797-0.322,1.193c2.195,3.498,4.907,0.881,7.095-1.773
			c3.656-4.443,8.65-10.934,10.994-14.541c-2.014-1.987-3.129-4.821-5.348-6.461c-0.321-0.237-0.665-0.45-1.038-0.631
			C45.935,81.055,44.291,83.065,42.53,85.295z"/>
	</g>
	<g>
		<path fill-rule="evenodd" clip-rule="evenodd" fill="#F2DF00" d="M40.046,26.783c-0.609-0.329-1.247-0.634-1.906-0.933
			c-0.321-0.146-0.649-0.291-0.983-0.434c-2.256-0.966-4.802-1.901-7.75-3.243c-2.417-1.104-7.868-5.094-10.639-4.609
			c-5.478,0.953-0.462,6.24,1.064,8.153c0.206,0.259,0.396,0.491,0.591,0.73c2.231,2.744,3.799,4.267,6.855,5.654
			c3.035,1.379,5.831,2.523,8.557,3.791c0.578,0.269,1.156,0.535,1.729,0.819C38.973,33.984,39.184,30.059,40.046,26.783z"/>
	</g>
	<g>
		<path fill-rule="evenodd" clip-rule="evenodd" fill="#B6008D" d="M89.693,16.854c-6.093,1.828-14.126,7.607-19.858,9.574
			c0.284,2.209,0.503,4.483,1.085,6.395c0.384,1.261,0.921,2.367,1.753,3.18c2.178-0.829,3.827-2.1,6.028-3.193
			c0.485-0.24,1.053-0.466,1.657-0.688c1.774-0.653,3.859-1.275,5.081-2.15c1.429-1.018,2.498-3.47,3.9-5.317
			c1.13-1.486,4.083-3.603,3.576-5.877c-0.011-0.051-0.015-0.102-0.03-0.152c-0.206-0.711-1.362-1.701-2.485-1.816
			C90.159,16.784,89.92,16.785,89.693,16.854z"/>
	</g>
	<g>
		<path fill-rule="evenodd" clip-rule="evenodd" fill="#B6008D" d="M73.379,62.954c0.503-0.574,0.992-1.157,1.486-1.736
			c1.917-2.246,3.777-4.524,5.596-6.824c2.004-2.533,3.971-5.083,5.925-7.629c2.506-3.265,5.001-6.517,7.562-9.7
			c2.232-2.771,5.827-5.439,6.028-9.572c-1.42-2.148-2.688-4.451-4.672-6.036c-0.316-0.252-0.646-0.49-1.003-0.703
			c-3.071,3.333-5.994,7.268-8.864,10.994c-5.515,7.156-11.322,13.824-16.668,20.566c-1.367,1.729-2.541,3.543-3.9,5.32
			c-0.722,0.944-1.56,1.841-2.245,2.734c-0.283,0.368-0.533,0.736-0.744,1.106c-0.277,0.486-0.483,0.978-0.558,1.479
			C65.109,63.684,68.419,62.615,73.379,62.954z"/>
	</g>
	<g>
		<path fill-rule="evenodd" clip-rule="evenodd" fill="#F2DF00" d="M104.953,56.881c-1.891-1.152-4.482-2.093-6.75-3.147
			c-4.921-2.289-8.989-4.255-11.701-4.965c-1.518,2.204-3.535,3.909-4.972,6.191c-0.252,0.4-0.492,0.813-0.702,1.255
			c3.45,1.369,6.223,3.464,9.208,5.012c1.456,0.755,2.962,1.381,4.623,1.726c2.433,0.505,5.846-0.367,9.604-0.638
			c0.92-0.065,1.854-0.106,2.808-0.069C108.384,59.829,107.137,58.213,104.953,56.881z"/>
	</g>
	<path fill="#264C59" d="M161.766,97.696c-0.923,0-1.67,0.747-1.67,1.669c0,0.897,0.747,1.645,1.67,1.645
		c0.896,0,1.645-0.747,1.645-1.645C163.411,98.443,162.663,97.696,161.766,97.696z"/>
	<rect x="160.539" y="102.342" fill="#264C59" width="2" height="13"/>
	<path fill="#264C59" d="M175.853,102.43c-1.345,0-2.314,0.572-3.314,1.52v-1.607h-3v13h3v-7.206c0-2.118,0.78-3.339,2.5-3.339
		c1.694,0,2.5,0.946,2.5,3.588v6.957h3v-7.057C180.539,104.423,178.893,102.43,175.853,102.43z"/>
	<path fill="#264C59" d="M192.853,102.43c-1.345,0-2.314,0.572-3.314,1.52v-1.607h-2v13h2v-7.206c0-2.118,1.28-3.339,3-3.339
		c1.694,0,3,0.946,3,3.588v6.957h2v-7.057C197.539,104.423,195.893,102.43,192.853,102.43z"/>
	<path fill="#264C59" d="M209.534,102.43c-3.289,0-5.831,2.541-5.831,6.827c0,4.086,2.467,6.803,5.756,6.803
		c3.364,0,5.906-2.542,5.906-6.878C215.365,105.096,212.873,102.43,209.534,102.43z M209.558,113.618
		c-1.943,0-3.264-1.569-3.264-4.436c0-2.591,1.196-4.311,3.14-4.311c2.068,0,3.339,1.72,3.339,4.386
		C212.773,111.649,211.502,113.618,209.558,113.618z"/>
	<path fill="#264C59" d="M226.902,109.625c-0.398,1.271-0.748,2.583-0.898,3.306c-0.174-0.723-0.547-2.079-0.971-3.351l-2.342-7.237
		H220l4.684,13h2.566l4.609-13h-2.715L226.902,109.625z"/>
	<path fill="#264C59" d="M241.802,102.43c-1.844,0-3.152,0.398-4.398,1.171l1.039,1.943c1.021-0.573,2.176-0.822,3.521-0.822
		c1.594,0,2.574,0.798,2.574,2.218v0.972c-1-0.324-1.781-0.498-3.002-0.498c-2.965,0-5.25,1.32-5.25,4.235
		c0,3.215,2.48,4.411,4.6,4.411c1.42,0,2.652-0.673,3.652-1.57v0.853h2v-8.527C246.539,103.85,244.718,102.43,241.802,102.43z
		 M244.539,112.073c-1,0.822-1.881,1.67-3.25,1.67c-1.695,0-2.561-0.872-2.561-2.168c0-1.196,1.111-1.943,2.756-1.943
		c1.395,0,2.055,0.224,3.055,0.573V112.073z"/>
	<path fill="#264C59" d="M276.71,108.161l-2.367-0.673c-0.275,0.972-0.674,1.994-1.197,2.891l-5.107-6.254
		c-0.723-0.897-0.896-1.371-0.896-2.094c0-0.972,0.648-1.545,1.992-1.545c1.346,0,2.344,0.35,3.689,1.321l1.221-2.094
		c-1.521-1.071-3.064-1.645-4.686-1.645c-2.965,0-4.834,1.495-4.834,4.012c0,1.296,0.475,2.293,1.645,3.688l0.324,0.398
		c-2.416,1.37-3.662,2.791-3.662,5.158c0,2.815,1.77,4.734,5.48,4.734c1.969,0,3.613-0.97,4.91-2.116l1.369,1.398h2.99l-2.766-3.192
		C275.712,110.855,276.335,109.582,276.71,108.161z M268.412,113.667c-2.018,0-2.965-1.071-2.965-2.467
		c0-1.42,0.898-2.342,2.543-3.264l3.688,4.385C270.804,113.144,269.708,113.667,268.412,113.667z"/>
	<path fill="#264C59" d="M298.041,102.43c-3.389,0-5.732,2.392-5.732,6.827c0,4.336,2.592,6.803,5.656,6.803
		c1.994,0,3.365-0.623,4.512-1.72l-1.521-1.645c-0.871,0.647-1.744,1.141-2.84,1.141c-1.596,0-3.016-1.494-3.289-3.494h8.646
		c0.025,0,0.074-0.791,0.074-1.266C303.546,105.54,301.753,102.43,298.041,102.43z M294.875,108.342c0.225-2,1.271-3.289,2.99-3.289
		c2.119,0,2.967,1.289,3.09,3.289H294.875z"/>
	<path fill="#264C59" d="M323.03,102.43c-2.043,0-3.075,0.747-4.022,1.918c-0.697-1.245-1.701-1.918-3.471-1.918
		c-1.346,0-2.998,0.572-2.998,1.52v-1.607h-3v13h3v-7.206c0-2.118,0.782-3.339,2.501-3.339c1.693,0,2.499,0.946,2.499,3.588v6.957h2
		v-7.206c0-2.118,0.78-3.339,2.499-3.339c1.695,0,2.501,0.946,2.501,3.588v6.957h3v-7.057
		C327.539,104.423,326.071,102.43,323.03,102.43z"/>
	<path fill="#264C59" d="M340.039,102.43c-1.369,0-2.5,0.647-3.5,1.52v-1.607h-2v18.253l2-1.321v-4.709
		c1,0.797,2.057,1.495,3.377,1.495c2.715,0,5.158-2.118,5.158-6.604C345.074,104.473,342.855,102.43,340.039,102.43z
		 M339.678,113.693c-1.295,0-2.14-0.947-3.14-1.72v-5.507c1-0.847,1.819-1.669,3.04-1.669c1.895,0,2.939,1.445,2.939,4.734
		C342.518,112.297,341.522,113.693,339.678,113.693z"/>
	<path fill="#264C59" d="M353.539,103.95v-1.607h-2v13h2v-7.032c0-2.218,1.144-3.363,2.763-3.363c0.848,0,1.521,0.174,2.067,0.473
		l0.723-2.441c-0.523-0.349-1.344-0.548-2.391-0.548C355.406,102.43,354.539,103.078,353.539,103.95z"/>
	<path fill="#264C59" d="M369.259,102.43c-3.389,0-5.73,2.392-5.73,6.827c0,4.336,2.592,6.803,5.656,6.803
		c1.994,0,3.363-0.623,4.51-1.72l-1.52-1.645c-0.873,0.647-1.744,1.141-2.842,1.141c-1.594,0-3.014-1.494-3.289-3.494h8.646
		c0.025,0,0.076-0.791,0.076-1.266C374.767,105.54,372.972,102.43,369.259,102.43z M366.095,108.342c0.225-2,1.271-3.289,2.99-3.289
		c2.117,0,2.965,1.289,3.09,3.289H366.095z"/>
	<path fill="#264C59" d="M386.853,102.43c-1.346,0-2.314,0.572-3.314,1.52v-1.607h-3v13h3v-7.206c0-2.118,0.779-3.339,2.5-3.339
		c1.693,0,2.5,0.946,2.5,3.588v6.957h3v-7.057C391.539,104.423,389.892,102.43,386.853,102.43z"/>
	<path fill="#264C59" d="M405.539,103.925c0-0.798-1.731-1.495-3.052-1.495c-2.715,0-5.04,2.117-5.04,6.603
		c0,4.983,2.041,7.027,4.855,7.027c1.371,0,3.236-0.648,3.236-1.521v0.803h3V97.621l-3,1.32V103.925z M405.539,112.023
		c0,0.848-1.494,1.67-2.715,1.67c-1.895,0-2.816-1.445-2.816-4.734c0-2.767,0.811-4.161,2.654-4.161
		c1.295,0,2.877,0.946,2.877,1.719V112.023z"/>
	<path fill="#264C59" d="M420.441,102.43c-3.389,0-5.73,2.392-5.73,6.827c0,4.336,2.592,6.803,5.656,6.803
		c1.994,0,3.363-0.623,4.51-1.72l-1.52-1.645c-0.873,0.647-1.744,1.141-2.842,1.141c-1.594,0-3.014-1.494-3.289-3.494h8.646
		c0.025,0,0.076-0.791,0.076-1.266C425.949,105.54,424.154,102.43,420.441,102.43z M417.277,108.342c0.225-2,1.271-3.289,2.99-3.289
		c2.117,0,2.965,1.289,3.09,3.289H417.277z"/>
</g>
</svg>
