<svg xmlns="http://www.w3.org/2000/svg" xmlns:xlink="http://www.w3.org/1999/xlink" version="1.1" id="Layer_1" x="0px" y="0px" viewBox="0 0 100 100" enable-background="new 0 0 100 100" xml:space="preserve">
<path fill-rule="evenodd" clip-rule="evenodd" d="M19.6,31.5c0.9-0.3,1.7,0,2.6,0.1c0.5,0.1,0.9,0,1.4,0.1c0,0,0,0.1,0.1,0.1  c0.2,0,0.2,0.1,0.3,0.1c0.1,0,0.2,0,0.3,0c0.1,0,0.1,0.1,0.2,0.1c0.2,0,0.6,0,0.9,0c1.5,0.1,3.7,0.1,5.4,0.1c1.3,0,3.2,0,4.8,0  c0.6,0,1,0.1,1.3,0c0.5-0.2,0.5-0.4,0.8-0.8c0-0.1,0.2-0.2,0.2-0.2c0,0,0-0.2,0-0.2c0.1-0.1,0.3-0.3,0.3-0.5c0-0.1,0.2-0.3,0.2-0.3  c0-0.1,0.1-0.2,0.1-0.2c0.1-0.1,0.2-0.2,0.2-0.2c0-0.1,0.1-0.2,0.1-0.2c0.7-0.9,1.2-1.7,2.2-2.5c0.2-0.2,0.4-0.4,0.7-0.6  c0.1-0.1,0.2-0.2,0.4-0.3c0.1-0.1,0.2-0.2,0.3-0.3c0,0,0.2,0,0.2,0c0,0,0-0.1,0-0.1c0.3-0.2,0.8-0.4,1.2-0.6  c0.4-0.2,0.8-0.4,1.1-0.6c0.1,0,0.5,0,0.6-0.1c0.1-0.1,0.4-0.1,0.9-0.2c0.3-0.1,0.9-0.2,1.5-0.3c0.6-0.1,1.8-0.2,2.7-0.1  c0.3,0.1,0.5,0.2,0.8,0.2c0.7,0.1,1.4,0,1.9,0.1c0,0,0.1,0.1,0.1,0.1c0.3,0.1,0.7,0.2,1,0.3c0,0,0.2,0,0.2,0  c0.1,0.2,0.2,0.2,0.5,0.3c0,0,0.3,0.1,0.3,0.1c0.2,0.2,0.6,0.5,0.9,0.8c0.1,0,0,0.1,0.1,0.1c0.2,0,0.6,0.5,0.8,0.7  c0.1,0.1,0.3,0.1,0.5,0.2c0.1,0.1,0.1,0.3,0.2,0.3c0,0,0.2,0,0.2,0c0,0,0.1,0.2,0.1,0.2c0,0,0.2,0,0.2,0c0,0,0.1,0.2,0.1,0.2  c0.5,0.4,1.1,0.5,1.5,0.9c0,0,0,0.2,0,0.2c0,0,0.2,0.1,0.2,0.1c0.1,0.1,0,0.2,0.1,0.3c0.1,0.1,0.3,0.1,0.3,0.2  c0.1,0.1,0.1,0.2,0.1,0.3c0.1,0.1,0.2,0.2,0.2,0.3c0.1,0.2,0.2,0.3,0.3,0.6c0.1,0.1,0.1,0.2,0.1,0.3c0,0,0.2,0.1,0.2,0.1  c0.1,0.2,0.1,0.3,0.2,0.4c0,0.1,0.1,0,0.1,0.1c0,0,0.1,0.2,0.1,0.2c0.1,0.1,0.2,0.1,0.2,0.2c0.1,0.1,0,0.3,0.1,0.4  c0,0.1,0.2,0.1,0.2,0.2c0.3,0.4,0.4,0.4,1,0.5c0.1,0,0.2,0,0.3,0c0.1,0,0.1,0.1,0.2,0.1c0.4,0,0.9-0.1,1.3,0c0,0,0,0.1,0.1,0.1  c1.5,0,3.3,0.1,4.9,0.1c0.1,0,0.2,0,0.3,0c0.1,0,0.1,0.1,0.2,0.1c0.2,0,0.4-0.1,0.6-0.1c0.5,0,0.8,0.1,1.2,0.1c1,0,2.1-0.2,3-0.2  c0.2,0,0.3,0.1,0.5,0.1c0.1,0,0.2,0,0.3,0c0.1,0,0.7,0.1,1.1,0.2c0,0,0,0.1,0.1,0.1c0.1,0,0.4,0.1,0.7,0.2c0.3,0.1,0.7,0.1,0.8,0.2  c0.4,0.3,0.4,0.7,0.6,1.2c0.1,0.3,0.5,0.6,0.6,0.9c0.1,0.1,0.1,0.4,0.1,0.7c0,0.1,0.1,0.4,0.1,0.6c0.1,0.8,0.2,1.7,0.4,2.6  c0.1,0.3,0,0.6,0.1,1c0,0.1,0.1,0.1,0.1,0.2c0.1,0.7-0.1,1.3,0,2c0,0,0,0.2,0,0.2c0.1,0.1,0.1,0.2,0.1,0.4c0,0.2,0.1,0.6,0.1,1  c0,0.1,0,0.3,0,0.4c0.1,0.3,0.3,1.1,0.4,1.6c0,0.3-0.1,0.7,0,1c0,0,0.1,0.1,0.1,0.1c0,0.3-0.1,0.7-0.1,1.1c0,0.3,0.1,0.7,0.1,1  c0,0,0.1,0,0.1,0.1c0,0.2-0.1,0.4,0,0.7c0.1,0.3,0.3,1.6,0.3,2.1c0,0.1,0.1,0.5,0,0.6c-0.2,0.2-0.2,0.7-0.2,1.2  c0,0.2-0.1,0.4-0.1,0.6c0,0.5,0.1,1,0.1,1.5c0,0.5,0,0.9,0,1.5c0,0.9,0.2,1.9-0.2,2.8c-0.1,0.2,0.1,0.3,0.1,0.3c0,0,0,0.2,0,0.2  c0.4,0.3,0,1.9,0.1,2.6c0,0.8,0.3,1.6,0.3,2.4c0,0.5-0.3,1.2-0.5,1.8c0,0.1-0.1,0.2-0.1,0.2c0,0.1-0.3,0.5-0.3,0.7  c0,0.1-0.1,0.3-0.2,0.5c-0.1,0.1-0.2,0.8-0.3,1.1c-0.1,0.6-0.1,0.9-0.4,1.2c-0.2,0.2-0.4,0.4-0.7,0.7c-0.1,0.1-0.3,0.4-0.4,0.5  c-0.1,0.1-0.2,0-0.3,0.1c-0.1,0-0.2,0.2-0.2,0.2c-0.3,0.1-0.7,0.1-0.9,0.2c-0.1,0.1-0.3,0.1-0.4,0.2c-0.1,0-0.2,0.2-0.2,0.2  c-0.1,0.1-0.2,0.1-0.3,0.1c-0.1,0-0.2,0.2-0.2,0.2c-0.1,0-0.2,0-0.2,0c-0.2,0-0.7,0.3-1.1,0.4c-0.1,0-0.4,0-0.4,0c0,0,0,0.1,0,0.1  c-0.1,0-0.2,0-0.3,0c-0.4,0.1-1.5,0.3-2.2,0.4c0,0,0,0.1-0.1,0.1c-1.3,0.1-3,0-4.4,0c-2.7,0-5.4,0-8.2,0.2c-0.2,0-0.4,0-0.6,0  c-0.2,0-0.3,0.1-0.4,0.1c-1.5,0.1-3,0.2-4.5,0.3c-0.1,0-0.2,0.1-0.6,0.1c-0.8,0.1-2,0-2.8-0.1c-1.1,0-2-0.1-3.3-0.2  c-1.4-0.1-3,0-4.5-0.1c-0.7-0.1-1.3-0.3-1.9-0.3c-0.2,0-0.5,0-0.7,0c-0.3,0-0.5,0.2-1,0.1c-0.2,0-0.2-0.1-0.5-0.1  c-2.6,0-5.5,0.1-8.2-0.1c0,0-0.1-0.1-0.1-0.1c-0.3-0.1-0.8,0.1-1.2,0c-0.1,0-0.2-0.1-0.3-0.1c-0.3,0-0.9,0-1.2-0.1  c-0.2,0-0.4,0-0.6,0c0,0,0-0.1-0.1-0.1c-0.3,0-0.4,0-0.8-0.1c0,0,0-0.1-0.1-0.1c0,0-0.5,0-0.6-0.1c-0.1-0.1-0.5-0.3-0.8-0.4  c0,0-0.2,0-0.2,0c0,0,0-0.1,0-0.1c-0.1,0-0.4-0.1-0.6-0.1c-0.4-0.1-0.7-0.1-1.1-0.2c0,0,0-0.1-0.1-0.1c-0.1,0-0.3,0-0.4,0  c0,0,0-0.1-0.1-0.1c-0.2,0-0.2-0.1-0.3-0.1c-0.3-0.1-0.6-0.1-0.8-0.2c-0.1,0,0-0.1-0.1-0.1c-0.2,0-0.3-0.1-0.6-0.2  c-0.4-0.1-0.7-0.2-1-0.3c-0.1,0,0-0.1-0.1-0.1c0,0-0.3-0.1-0.3-0.1c-0.1-0.1-0.2-0.3-0.3-0.3c-0.3-0.2-0.5-0.3-0.8-0.5  c-0.5-0.4-0.8-0.5-0.9-1.2c-0.1-0.3,0.1-0.6-0.1-0.7c0-0.4-0.3-0.7-0.4-1.1c-0.2-1-0.1-2.3-0.1-3.5c0-0.8,0-1.6,0.1-2.6  c0-0.6,0.1-1-0.1-1.7c0-0.1-0.2-0.1-0.2-0.1c0-0.1,0-0.2,0-0.3c0,0-0.1,0-0.1-0.1c0-0.1,0-0.2,0-0.3c-0.1-0.7,0.2-1.4,0.3-2.1  c0-0.6-0.2-1.3,0-1.9c0-0.1,0.1-0.1,0.1-0.1c0-0.3,0-0.7,0-1c0-0.3,0.1-0.6,0.1-0.9c0-0.7-0.1-1.3-0.2-2c0-2.1,0.3-4.3,0.1-6.6  c0-0.3-0.1-0.5-0.1-0.8c0-0.2,0.1-0.2,0.1-0.5c0.1-0.9,0.1-2.1,0.2-3.1c0-0.5,0-1,0.1-1.5c0.2-0.6-0.1-2.2,0.2-2.8  c0-0.1,0.1,0,0.1-0.1c0-0.1,0.2-0.1,0.2-0.2c0,0,0-0.2,0-0.2c0,0,0.1,0,0.1,0c0,0,0-0.2,0-0.2c0.1-0.1,0-0.3,0.1-0.5  c0,0,0.1,0,0.1,0c0.1-0.4,0-0.8,0.1-1.2c0-0.1,0.1-0.1,0.1-0.2c0-0.1,0-0.2,0-0.3c0,0,0.1,0,0.1-0.1c0-0.1,0-0.3,0-0.4  c0,0,0.1,0,0.1-0.1c0,0,0-0.3,0-0.3c0,0,0.1,0,0.1,0c0.1-0.2,0.2-0.5,0.2-0.7C19.2,31.9,19.5,31.8,19.6,31.5z M53.5,31.2  c-0.2-0.2-0.3-0.4-0.5-0.4c-0.1,0-0.1-0.1-0.1-0.1c-0.2-0.1-0.4-0.2-0.6-0.3c-0.2-0.1-0.6-0.2-0.7-0.3c0,0-0.3,0-0.3,0  c-0.1,0-0.1-0.1-0.1-0.1c-0.5-0.1-1.3,0-1.8-0.1c-0.2,0-0.2,0.1-0.3,0.1c-0.3,0.1-0.5,0.1-0.6,0.1c-0.1,0-0.2,0.1-0.3,0.1  c-0.3,0.1-0.3,0.1-0.4,0.2c-0.1,0.1-0.2,0.1-0.3,0.2c-0.6,0.5-1.3,1.1-1.4,1.8c0.5,0.5,1.3,0.3,2,0.3c0.7,0,1.4,0.2,2.1,0.2  c0.9,0,2-0.1,2.6-0.2c0.6,0,1.2,0.1,1.6-0.3C54.3,31.9,53.8,31.5,53.5,31.2z M24.9,38.1c-0.3,0.2-0.2,0.9-0.2,1.5  c0,0.4,0.2,0.7,0.1,1.1c0,0.1-0.1,0.3-0.1,0.3c0,0.8,0,1.7-0.1,2.4c0,0-0.1,0-0.1,0.1c-0.1,0.6,0,1.3,0.1,1.7c0,0.1,0,0.2,0,0.3  c0,0.6,0,1.1-0.1,1.5c0,0.1-0.1,0.1-0.1,0.2c-0.1,0.6,0.1,2.4-0.2,2.6c0,0,0,0.2,0,0.2c0,0.2,0,0.2-0.1,0.3c-0.1,0,0,0.4,0,0.4  c0,0-0.1,0.2-0.1,0.1c0,0.3,0.2,0.6,0.2,0.9c0.2,0.7,0.1,1.4,0,2c0,0.3-0.1,0.7-0.1,1c0,0.7,0.2,1.4,0.3,2.1c0.1,1.7,0.1,4,0,5.3  c0,0.2,0,0.5,0,0.7c-0.1,0.4-0.3,0.7-0.3,1.1c0,0.4,0.2,0.5,0.1,0.8c-0.1,0.4-0.1,1.4-0.1,1.8c0,0.1,0.1,0.1,0.1,0.1  c0,0.2-0.1,0.4-0.1,0.6c0,0.4-0.1,0.7,0.1,1c0.5,0.4,1.4,0.4,1.7,0.5c0.6,0.1,1.5,0,1.7,0.3c0,0,0.3,0,0.3,0c0.1,0,0.1,0.1,0.1,0.1  c0.4,0.1,0.5,0,0.7,0.2c0,0,0.2,0,0.2,0c0,0,0,0.1,0,0.1c0,0,0.2,0,0.2,0c0,0,0,0.1,0,0.1c0,0,0.3,0.1,0.3,0.1c0.5,0.1,1,0,1.5,0.1  c3.1,0.3,6.6,0.1,9.8,0.1c0.9,0,1.7,0.1,2.6,0.2c0.9,0,1.9,0,2.8,0.1c0,0,0,0.1,0,0.1c0,0.1,0.5,0,0.6,0c0.9,0,1.5,0,2.1,0.1  c1.1,0,2.3,0,3.3,0c0.1,0,0.1,0.1,0.1,0.1c0.2,0,0.3-0.1,0.6-0.1c0.5,0,1,0,1.5,0c0.1,0,0.1-0.1,0.2-0.1c0.1,0,0.2,0,0.3,0  c0.6-0.1,1-0.1,1.3-0.1c0.4,0,0.7,0,0.8-0.1c0-0.1,0.5,0,0.6,0c1-0.1,2.2-0.1,2.8-0.2c1.8-0.2,3.3-0.1,5.1-0.1c2,0,4.3,0.1,6.2,0  c0.1,0,0.1-0.1,0.1-0.1c0.5-0.1,0.7-0.1,1.1-0.1c0.1,0,0.1-0.1,0.1-0.1c0.5-0.1,0.6-0.1,0.8-0.4c0,0,0.2,0,0.2,0  c0.1-0.1,0.3-0.3,0.3-0.3c0.1-0.1,0.1-0.1,0.2-0.2c0,0,0-0.2,0-0.2c0.1-0.2,0.2-0.2,0.3-0.3c0.1-0.1,0.1-0.3,0.2-0.5  c0.1-0.1,0.1-0.1,0.2-0.2c0,0,0-0.2,0-0.2c0,0,0.1,0,0.1,0c0,0,0-0.2,0-0.2c0.1-0.3,0.2-0.3,0.2-0.6c0-0.1,0.1-0.1,0.1-0.1  c0.1-0.3,0-0.5,0-0.7c0,0,0.1-0.1,0.1-0.1c0.2-2.4-0.2-4.7-0.2-6.8c0-1.3,0-2.6,0-3.8c0-1.3,0.2-2.6,0.1-3.8c0-0.5-0.1-0.9-0.1-1.3  c-0.2-2.4-0.4-4.9-0.5-7.2c0-0.9,0.1-1.9-0.4-2.7c-1-0.3-2.1,0.1-3.1,0.1c-0.8,0-1.6-0.2-2.5-0.3c-0.8,0-1.6,0.1-2.4,0  c-0.7,0-1.4-0.3-2.1-0.3c-0.8,0-1.7,0-2.5,0c-0.8,0-1.6,0.1-2.4,0.2c-0.3,0-0.6-0.1-0.9-0.1c-0.4,0-0.8,0-1.1,0c0,0-0.1-0.1-0.1-0.1  c-0.1,0-0.2,0-0.2,0c-1.1-0.1-1.8,0-2.7,0.1c-1.3,0.1-2.7,0.1-3.9,0.1c-0.6,0-1.2-0.1-1.8-0.2c-0.7-0.1-1.3,0-2-0.1  c-1.3-0.1-2.6-0.2-3.9-0.3c-1.5-0.1-3.2-0.3-4.6-0.4c-0.1,0-0.1-0.1-0.1-0.1c-0.4,0-0.7,0-1-0.1c-0.6-0.1-1.3-0.2-1.9-0.2  c-0.9,0-1.8,0.1-2.7,0.1c-0.8,0-1.6-0.2-2.5-0.2c-1.7,0-3.4,0-5.2-0.1C25.1,37.8,24.9,37.9,24.9,38.1z"/>
</svg>