<svg xmlns="http://www.w3.org/2000/svg" xmlns:xlink="http://www.w3.org/1999/xlink" version="1.1" id="Layer_1" x="0px" y="0px" viewBox="0 0 100 100" style="enable-background:new 0 0 100 100;" xml:space="preserve">
<style type="text/css">
	.st0{fill-rule:evenodd;clip-rule:evenodd;}
</style>
<g>
	<path class="st0" d="M71.317,40.462c0.321-0.263,0.709-1.28,0.8-1.68c0.277-1.257,0.247-2.724,0.16-3.999   c-0.119-1.749-0.888-3.285-2-4.559c-0.427-0.49-0.904-0.85-1.36-1.28c-0.51-0.481,0.01-0.81,0.184-1.27   c0.092-0.245,0.228-0.491,0.277-0.735c0.047-0.236,0.367-0.907,0.343-1.11c-0.093-0.794,0.196-1.556-0.094-2.372   c-0.337-0.944-0.745-1.796-1.349-2.512c-1.319-1.558-2.937-1.793-4.479-2.8c-0.271-0.171-0.562-0.281-0.72-0.48   c-0.314-0.383-1.872-0.436-2.44-0.462c-1.073-0.049-2.076-0.401-3.139-0.494c-0.626-0.055-0.654-0.692-0.82-0.964   c-0.159-0.262-0.853-1.345-1.12-1.36c-0.276-0.015-0.742-0.699-0.96-0.88c-0.248-0.206-0.861-0.863-1.2-0.879   c-0.289-0.016-0.577-0.514-0.796-0.484c-0.169,0.024-0.496-0.282-0.724-0.396c-0.304-0.016-0.738-0.314-0.96-0.4   c-1.017-0.392-2.186-0.761-3.26-0.668c-1.378,0.12-3.318,0.632-4.25,1.693c-0.643,0.733-1.643,1.31-2.126,2.214   c-0.126,0.237-0.289,0.472-0.521,0.676c-0.415,0.366-0.628,1.3-1.201,1.444c-0.557,0.139-1.184-0.05-1.759,0.025   c-0.559,0.072-1.087,0.262-1.607,0.471c-0.519,0.209-1.437,0.833-1.993,0.863c-0.295,0.017-0.807,0.473-1.04,0.641   c-0.944,0.675-1.899,1.421-2.719,2.239c-0.449,0.447-0.731,1.215-1.2,1.596c-0.276,0.224-0.291,1.08-0.399,1.425   c-0.223,0.708-0.56,1.397-0.592,2.149c-0.044,1.016,0.312,2.155,0.672,3.069c0.152,0.384,0.242,0.84,0.4,1.2   c0.072,0.166,0.433,0.541,0.402,0.719c-0.023,0.131,0.587,0.679,0.7,0.789c0.332,0.321,0.505,0.639,0.098,0.972   c-0.142,0.118-0.344,0.521-0.48,0.72c-0.162,0.235-0.393,0.548-0.629,0.808c-0.364,0.401-0.606,0.882-0.924,1.342   c-0.183,0.265-0.231,0.667-0.267,0.987c-0.026,0.232-0.093,0.966-0.26,1.103c-0.08,0.065-0.174,0.815-0.182,0.888   c-0.054,0.501-0.169,1.091-0.138,1.592c0.048,0.768,0.419,1.583,0.64,2.32c0.211,0.698,0.504,1.418,0.655,2.128   c0.14,0.661,1.211,1.329,1.745,1.712c0.378,0.27,0.706,0.478,1.12,0.72c0.391,0.228,0.941,0.356,1.292,0.64   c0.359,0.291,0.87,0.212,1.315,0.282c0.672,0.106,0.552,0.448,0.676,1.05c0.098,0.472,0.279,0.919,0.397,1.387   c0.194,0.787,0.529,1.57,1.04,2.16c0.598,0.687,1.253,1.194,1.92,1.679c1.12,0.812,2.593,1.083,3.911,1.503   c1.169,0.372,2.408,0.547,3.608,0.737c0.583,0.091,1.067-0.079,1.6-0.32c0.607-0.275,1.204-0.817,1.195,0.232   c-0.01,1.142-0.199,2.267-0.296,3.364c-0.055,0.63-0.195,1.22-0.304,1.839c-0.03,0.169,0.013,0.369-0.025,0.531   c-0.043,0.185-0.301,0.293-0.33,0.433c-0.292,0-0.457-0.161-0.718-0.235c-0.223-0.064-0.829-0.328-0.958-0.485   c-0.13-0.158-0.66-0.344-0.883-0.4c-0.467-0.115-0.85-0.412-1.324-0.447c-0.57-0.042-1.104,0.031-1.657-0.149   c-0.605-0.197-1.119-0.08-1.738-0.124c-0.331-0.033-0.688-0.157-1.083-0.102c-0.399,0.056-0.762,0.245-1.157,0.262   c-0.367,0.019-1.453,0.54-1.769,0.737c-0.396,0.247-0.919,0.305-1.111,0.543c-0.06,0.073-0.636,0.36-0.805,0.407   c-0.445,0.126-0.919,0.431-1.304,0.814c-0.533,0.529-0.917,0.852-1.43,1.358c-0.494,0.488-1.553,1.408-1.498,2.201   c0.024,0.341,0.365,0.557,0.496,0.844c0.148,0.325,0.187,1.031,0.461,1.254c0.064,0.052,0.037,0.245,0.08,0.32   c0.123,0.22,0.412,0.503,0.633,0.72c0.548,0.538,1.126,1.096,1.687,1.52c0.423,0.319,1.128,0.502,1.52,0.72   c0.492,0.271,1.028,0.681,1.6,0.8c0.329,0.082,0.696,0.143,1.04,0.24c0.213,0.06,0.999,0.259,1.116,0.398   c0.132,0.157,0.601,0.22,0.798,0.236c0.546,0.046,1.031,0.223,1.566,0.333c0.983,0.203,1.982,0.348,3.099,0.146   c0.751-0.136,1.36-0.337,2.14-0.393c0.544-0.038,1.396-0.557,1.499,0.268c0.094,0.751-0.037,1.498-0.003,2.249   c0.041,0.909,0.214,1.812,0.281,2.756c0.107,1.502-0.01,3.024-0.019,4.528c-0.01,1.658-0.569,3.976,0.962,4.916   c1.022,0.629,3.036,0.454,3.434-0.915c0.669-2.3,0.19-4.87,0.207-7.203c0.008-1.135-0.074-2.257-0.102-3.387   c-0.016-0.626-0.181-1.228-0.192-1.852c-0.014-0.756,0.037-1.496-0.046-2.251c-0.098-0.898,0.029-2.421,1.339-1.75   c0.35,0.181,0.999,0.789,1.437,0.723c0.162-0.024,0.661,0.332,0.853,0.404c0.57,0.213,1.117,0.485,1.71,0.632   c0.88,0.222,1.61,0.544,2.52,0.643c1.354,0.147,2.397,0.262,3.735-0.084c0.195-0.05,3.036-0.795,3.024-0.916   c0.013,0.124,1.262-0.669,1.279-0.682c0.619-0.462,1.446-0.929,2-1.52c0.311-0.331,0.558-0.714,0.8-1.04   c0.373-0.501,0.934-1.073,0.877-1.778c-0.158-1.953-1.842-3.118-3.196-4.221c-1.28-1.043-2.746-1.579-4.159-2.32   c-1.666-0.867-3.552-1.436-5.439-0.959c-1.595,0.399-3.132,0.661-4.562,1.487c-0.521,0.301-1.593,1.082-2.157,0.913   c-0.207-1.425,0.249-2.777,0.361-4.18c0.086-1.079,0.137-2.085,0.207-3.178c0.025-0.382-0.025-0.967,0.231-1.28   c0.169-0.205,1.208-0.091,1.2,0.038c-0.011,0.168,1.978,0.017,2.137,0.027c1.03,0.068,1.996,0.12,2.902-0.352   c0.286-0.149,0.557-0.228,0.719-0.433c0.189-0.234,0.918-0.355,1.2-0.64c0.597-0.596,0.972-1.132,1.52-1.679   c0.538-0.536,1.026-1.039,1.282-1.727c0.084-0.226,0.211-0.285,0.318-0.513c0.146-0.312,0.225-1.15,0.48-1.36   c0.177-0.145,0.262-1.134,0.3-1.373c0.083-0.529,0.318-1.08,0.34-1.586c0.008-0.135,0.079-0.465,0.112-0.635   c0.086-0.455,0.832-0.37,1.183-0.399c0.556-0.046,0.994-0.42,1.466-0.681c0.486-0.268,0.98-0.704,1.417-1.061   C70.525,41.464,70.956,40.76,71.317,40.462z M47.801,69.097c-1.33,0.599-2.553,0.583-3.92,0.88c-1.29,0.275-2.792,0.3-4.047-0.009   c-0.539-0.133-0.95-0.265-1.421-0.423c-0.284-0.095-0.823-0.566-1.094-0.525c-0.082,0.012-0.39-0.184-0.524-0.262   c-0.554-0.32-1.598-0.865-1.712-1.581c0.235-0.337,0.629-0.636,0.938-0.901c0.112-0.096,0.6-0.383,0.662-0.459   c0.058-0.073,0.54-0.411,0.644-0.397c0.092,0.013,1.746-0.591,1.777-0.686c0.15-0.458,2.384-0.203,2.736-0.226   c0.835-0.053,1.648-0.092,2.431,0.191c0.431,0.156,1.411,0.759,1.851,0.637c0.249,0.42,1.043,0.818,1.409,0.995   C48.227,66.668,48.042,68.471,47.801,69.097C47.274,69.335,48.079,68.375,47.801,69.097z M54.84,66.938   c1.619-1.453,4.497-2.625,6.85-2.584c0.473,0.008,0.824,0.372,1.304,0.502c0.238,0.065,0.99,0.397,1.127,0.563   c0.194,0.235,0.766,0.344,1.056,0.527c0.333,0.209,0.561,0.507,0.86,0.753c0.295,0.241,0.764,0.395,0.88,0.799   c-0.04,0.411-0.664,0.601-0.96,0.8c-0.536,0.356-1.082,0.496-1.68,0.72c-1.022,0.375-2.217,0.488-3.323,0.583   c-0.748,0.064-1.415-0.093-2.153-0.178c-0.495-0.057-1.722-0.171-2.043-0.565C56.391,68.406,54.082,67.624,54.84,66.938   C54.904,66.88,54.737,67.031,54.84,66.938z M67.078,37.342c-0.479,2.132-2.136,2.02-3.859,2.652   c-0.548,0.201-1.522,0.698-1.682,1.283c-0.318,1.166-0.13,2.358-0.395,3.546c-0.1,0.447-0.259,0.818-0.369,1.259   c-0.067,0.268-0.401,0.673-0.415,0.939c-0.004,0.074-0.357,0.663-0.4,0.72c-0.271,0.364-0.727,0.66-1.044,1.011   c-0.515,0.569-0.951,1.029-1.595,1.389c-0.59,0.331-1.262,0.343-1.964,0.26c-0.278-0.033-2.064,0.051-2.216-0.382   c-0.047-0.135-0.846-0.257-0.969-0.317c-0.59-0.288-1.102-0.619-1.73-0.201c-0.856,0.583-1.392,1.578-2.264,2.116   c-0.49,0.302-1.026,0.49-1.495,0.844c-0.068,0.05-0.557,0.377-0.559,0.362c0.047,0.392-2.172-0.048-2.382-0.092   c-1.451-0.299-2.864-0.571-3.778-1.71c-0.683-0.851-1.28-1.766-1.44-2.88c-0.096-0.701,0-1.409-0.055-2.135   c-0.094-1.247-1.695-1.219-2.573-1.325c-0.715-0.087-1.425-0.57-2.012-0.939c-0.258-0.162-0.463-0.391-0.72-0.56   c-0.197-0.131-0.429-0.156-0.627-0.312c-0.227-0.179-0.143-0.409-0.335-0.57c-0.475-0.4-0.496-1.764-0.369-2.314   c0.215-0.931,0.325-2.06,0.691-2.882c0.236-0.527,0.822-1.424,1.311-1.749c0.246-0.164,0.254-0.383,0.448-0.571   c0.181-0.174,0.405-0.217,0.576-0.416c0.328-0.381,1.046-0.521,1.503-0.703c0.478-0.187,1.4-0.909,1.036-1.537   c-0.136-0.233-0.499-0.526-0.716-0.703c-0.172-0.14-0.612-0.32-0.678-0.483c-0.048-0.119-0.611-0.514-0.762-0.636   c-0.193-0.157-0.318-0.274-0.48-0.4c-0.243-0.192-0.521-0.334-0.762-0.528c-0.277-0.223-0.126-0.272-0.278-0.512   c-0.257-0.406-0.507-0.797-0.668-1.268c-0.352-1.032-0.021-1.806,0.237-2.758c0.13-0.478,0.121-0.93,0.444-1.329   c0.313-0.386,0.8-0.623,1.148-1.007c0.346-0.381,1.214-0.87,1.717-0.997c0.937-0.234,1.716-0.769,2.702-0.867   c0.332-0.033,1.197-0.193,1.457,0.068c0.106,0.106,0.978-0.19,1.125-0.217c0.899-0.168,0.963-1.529,1.355-2.183   c0.552-0.906,1.622-1.843,2.4-2.559c0.422-0.383,1.01-0.87,1.65-0.989c1.582-0.294,3.563,0.471,4.669,1.629   c0.829,0.869,1.208,2.005,1.515,3.116c0.139,0.503,0.609,0.846,0.935,1.202c0.303,0.33,0.675,0.374,1.101,0.347   c1.182-0.075,2.331-0.317,3.488-0.107c0.329,0.06,2.347,0.165,2.42,0.362c0.045,0.12,0.674,0.451,0.779,0.518   c0.341,0.217,0.691,0.394,1.037,0.593c0.233,0.134,0.504,0.217,0.722,0.366c0.276,0.192,0.339,0.366,0.564,0.562   c0.505,0.441,0.034,1.997-0.164,2.397c-0.061,0.131-0.341,0.971-0.442,0.959c-0.091-0.011-0.574,1.157-0.598,1.36   c-0.072,0.59,0.114,1.13,0.417,1.66c0.312,0.546,1.152,1.027,1.633,1.414c0.483,0.388,1.127,1.037,1.389,1.486   C67.358,33.705,67.364,36.07,67.078,37.342C67.067,37.393,67.303,36.341,67.078,37.342z"/>
	<path class="st0" d="M56.36,32.783c-0.168-0.663-0.681-1.464-1.12-2c-0.638-0.779-0.975-1.59-1.932-2.059   c-1.309-0.641-2.741-1.494-4.147-1.78c-0.236-0.033-1.184-0.183-1.338,0.043c-0.123,0.181-1.068,0.473-1.321,0.52   c-0.494,0.093-1.157,0.218-1.5,0.636c-0.116,0.144-0.68,0.168-0.758,0.398c-0.06,0.179-0.24,0.062-0.362,0.163   c-0.178,0.144-0.258,0.386-0.4,0.56c-0.36,0.437-0.788,0.819-1.146,1.259c-0.544,0.667-0.618,1.581-0.983,2.41   c-0.561,1.278-0.573,3.306,0.129,4.569c0.413,0.767,1.306,1.229,1.92,1.84c0.471,0.474,1.398,1.074,2.08,1.28   c0.456,0.131,1.152,0.776,1.676,0.724c0.477-0.047,0.864,0.428,1.308,0.459c0.562,0.039,0.997-0.001,1.575-0.063   c0.926-0.1,1.852-0.135,2.629-0.713c0.209-0.155,0.621-0.279,0.73-0.407c0.039-0.047,0.206-0.027,0.292-0.123   c0.233-0.258,0.425-0.54,0.695-0.765c0.708-0.59,1.523-1.899,1.573-2.872c0.025-0.472,0.267-1.076,0.275-1.571   c0.008-0.519,0.016-0.879,0.125-1.388C56.432,33.564,56.445,33.122,56.36,32.783z M51.481,34.383c-0.1,0.492-0.071,1.89-0.48,2.24   c-0.658,0.538-1.432,0.78-2.467,0.824c-0.936,0.039-1.766-0.553-2.497-1.118c-0.437-0.338-1.258-0.854-1.258-1.428   c0-0.506,0.357-1.327,0.543-1.798c0.058-0.145,0.414-0.542,0.397-0.642c-0.013-0.08,0.742-0.987,0.803-1.038   c0.191-0.155,0.364-0.33,0.56-0.48c0.365,0.019,0.73,0.038,1.094,0.071c0.412,0.038,0.999,0.292,1.39,0.245   c0.102-0.012,0.402,0.236,0.556,0.244c0.473,0.027,1.137,0.891,1.44,1.2C51.601,33.305,51.603,33.776,51.481,34.383   C51.427,34.65,51.555,34.014,51.481,34.383z"/>
</g>
</svg>