<svg xmlns="http://www.w3.org/2000/svg" xmlns:xlink="http://www.w3.org/1999/xlink" version="1.1" id="Layer_1" x="0px" y="0px" viewBox="0 0 100 100" enable-background="new 0 0 100 100" xml:space="preserve">
<path fill-rule="evenodd" clip-rule="evenodd" d="M21.9,55.6c-0.4-1-0.5-1.6-0.6-2.8c-0.1-1.5-0.1-3.8-0.1-5.8c0,0-0.1-0.6,0-0.6  c0.1-0.1,0.1-0.2,0.1-0.3c0-0.1-0.1-0.1-0.1-0.2c0-0.2,0.1-0.4,0.1-0.6c0.1-1.3,0-2.9,0.2-4.3c0,0,0.1,0,0.1-0.1c0-0.1,0-0.3,0-0.4  c0-0.2,0.1-0.3,0.1-0.4c0.1-0.6,0.1-1.3,0.2-2c0,0,0.1,0,0.1-0.1c0-0.2-0.1-0.5,0-0.7c0-0.1,0.1-0.3,0.1-0.6c0-0.1,0-0.2,0-0.3  c0-0.1,0.1-0.4,0.1-0.7c0-0.1,0-0.2,0-0.3c0.1-0.3,0.2-1.1,0.3-1.6c0-0.1,0-0.2,0-0.3c0-0.1,0.1-0.4,0.1-0.7  c0.1-0.6,0.1-1.7,0.1-2.6c0,0,0.1,0,0.1-0.1c0-0.9,0.1-2,0.2-2.9c0-0.2,0.1-0.2,0.1-0.4c0-0.3,0-0.5,0.1-0.8c0,0,0.1,0,0.1-0.1  c0,0,0-0.5,0.1-0.5c0.2-0.1,0.2-1,0.3-1.1c0,0,0.2-0.2,0.2-0.2c0.3-0.4,0.8-0.9,1.2-1.3c0.1-0.1,0.2-0.3,0.3-0.4  c0.1-0.1,0.2,0,0.3-0.1c0.1,0,0.1-0.2,0.1-0.2c0.1-0.1,0.2-0.1,0.3-0.1c0.1,0,0-0.1,0.1-0.1c0.1,0,0.3-0.2,0.5-0.3  c0.3-0.2,0.8-0.3,1.2-0.4c0.2-0.1,0.5,0,0.7-0.1c0.3-0.1,0.7-0.3,1.1-0.4c0.5-0.2,1.3-0.2,2-0.3c0.9-0.1,1.9-0.2,2.9-0.3  c0.3,0,0.5,0,0.8,0c0.8-0.1,2-0.3,3.1-0.2c0.3,0,0.6,0.1,0.9,0.1c0.2,0,0.4-0.1,0.6-0.1c0.5,0,1,0,1.6-0.1c0.2,0,0.5-0.1,0.9-0.1  c0.1,0,0.5,0,0.5,0c0.1-0.1,0.4-0.1,0.7-0.1c0.3,0,0.6-0.2,1-0.1c0.2,0,0.5,0.2,0.9,0.1C46.5,19,47.3,19,48,19  c0.2,0,0.4-0.1,0.8-0.1c0.1,0,0.3,0,0.4,0c0.2,0,0.2-0.1,0.3-0.1c0.6,0,1.1,0,1.7,0c0.2,0,0.2-0.1,0.3-0.1c0.6,0,1.2,0.1,1.8,0.1  c0.5,0,1.1-0.1,1.7-0.1c0.1,0,0.2,0.1,0.4,0.1c0.9,0.1,1.9,0,2.9,0.1c0,0,0,0.1,0.1,0.1c1.5,0.1,3.5,0,5.1,0.1  c0.3,0,0.5,0.1,0.8,0.1c0.2,0,0.5-0.1,0.7-0.1c0.2,0,0.4,0.1,0.8,0.1c1.3,0.1,2.8,0,4.4,0.1c0.6,0,1.1,0.1,1.7,0.1  c0.3,0,0.5-0.1,0.8-0.1c0.3,0,0.6,0,0.9,0c0,0,0,0.1,0.1,0.1c0.3,0,0.9-0.1,1.3,0c0.1,0,0.1,0.1,0.1,0.1c0.6,0.1,1.1,0.1,1.7,0.1  c0.6,0,1.2,0,1.7,0.1c0,0,0,0.1,0.1,0.1c0,0,0.1,0,0.1,0c0.1,0,0.2,0.1,0.3,0.1c0.1,0,0.3,0.1,0.4,0.2c0.1,0,0.2,0.2,0.2,0.2  c0.5,0.2,1,0.2,1.3,0.4c0.1,0,0.1,0.2,0.2,0.2c0.1,0.1,0.3,0.3,0.5,0.4c0.1,0.1,0.3,0.2,0.4,0.2c0,0,0.3,0.2,0.4,0.3  c0.1,0,0.2,0.2,0.3,0.3c0,0,0,0.2,0,0.2c0,0,0.2,0.1,0.2,0.1c0.1,0.1,0.1,0.3,0.2,0.4c0.1,0.1,0.2,0.1,0.3,0.2  c0.3,0.4,0.4,0.9,0.7,1.3c0.1,0.1,0.2,0.4,0.2,0.7c0,0.1,0,0.3,0,0.4c0,0.1,0.1,0.1,0.1,0.2c0.1,0.6,0.2,1.2,0.2,1.9  c0,0.1,0,0.3,0,0.4c0.1,0.2,0.2,0.7,0.2,1.1c0,0,0,0.2,0,0.2c0.2,0.1,0,0.9,0,1.3c0,0,0.1,0.1,0.1,0.1c0,0.1-0.1,0.9,0,1  c0,0,0.1,0,0.1,0c0.2,2.1,0.1,4.2,0.2,6.5c0,0.4,0.1,0.9,0.1,1.2c0,0.5-0.2,1-0.2,1.5c0,0.4,0.1,1,0,1.5c-0.2,0.7-0.1,2.3-0.1,3.3  c0,2.1-0.1,4.2-0.1,6.3c0,0.5,0,1.1,0,1.7c0,0.1-0.1,0.2-0.1,0.3c0,0.2,0.1,0.2,0.1,0.3c0.1,0.9-0.1,2.1,0,3.2c0,0.1,0,0.3,0,0.4  c0.1,0.2,0.2,0.9,0.1,1.5c0,0.1-0.1,0.2-0.1,0.3c0,1.2,0.3,3.3,0,4.6c0,0.1,0,0.3-0.1,0.4c0,0.1-0.2,0.1-0.2,0.2c0,0,0,0.2,0,0.2  c-0.4,0.3-0.9,0.8-1.3,1.2c-0.3,0.3-0.6,0.6-0.9,0.9c-0.2,0.1-0.4,0.3-0.5,0.4c0,0-0.1,0.2-0.1,0.2c-0.1,0.1-0.3,0.1-0.4,0.2  c-0.3,0.3-0.6,0.6-0.9,0.9c-0.6,0.6-1.2,1.3-1.9,1.9c-0.1,0.1-0.2,0.1-0.3,0.2c-0.1,0-0.1,0.2-0.2,0.2c-0.3,0.2-0.7,0.3-0.9,0.6  c0,0,0,0.2,0,0.2c-0.1,0.1-0.5,0.3-0.5,0.5c0,0.1-0.5,0.6-0.6,0.7c-0.3,0.3-0.7,0.7-1.1,1c-0.2,0.2-0.3,0.3-0.5,0.5  c-0.7,0.7-1.3,1.4-2.1,2.2c-0.5,0.5-1,1-1.6,1.6c-0.2,0.2-0.4,0.3-0.5,0.5c-0.2,0.2-0.2,0.4-0.4,0.6c-0.1,0.1-0.2,0.1-0.3,0.2  c-0.1,0.1-0.1,0.2-0.2,0.3c0,0-0.2,0-0.2,0c-0.1,0.1-0.1,0.1-0.2,0.2c-0.1,0.1-0.2,0.2-0.3,0.3c-0.1,0.1-0.3,0.1-0.4,0.2  c-0.1,0.1-0.2,0.2-0.3,0.3c0,0-0.2,0-0.2,0c-0.1,0.1-0.1,0.1-0.2,0.2c-0.1,0.1-0.2,0.2-0.3,0.3c0,0-0.2,0-0.2,0  c-0.1,0.2-0.2,0.2-0.4,0.3c-0.1,0.1-0.6,0.2-0.8,0.3c0,0-0.2,0-0.2,0c0,0,0,0.1,0,0.1c-0.3,0.1-0.9,0.1-1.1,0.2c-0.1,0-0.2,0-0.2,0  c-0.1,0-0.1,0.2-0.1,0.2c-0.1,0.1-0.2,0-0.3,0.1c-0.1,0,0,0.1-0.1,0.1c-0.2,0-0.2,0.3-0.4,0.3c-0.1,0-0.5,0.2-0.6,0.2  c-0.1,0-0.1,0-0.2,0c-0.3,0.1-1.2,0.1-1.9,0.1c-1.1,0-2.1,0.1-3.3,0c-0.2,0-0.5-0.1-0.7-0.1c-1.3-0.1-2.8,0-4-0.3  c-0.3-0.1-0.5-0.2-0.7-0.2c-0.6-0.1-1.4-0.3-2.1-0.4c-0.3-0.1-0.6,0-0.8-0.1c-0.2,0-0.4-0.2-0.6-0.2c-0.8-0.2-1.7-0.2-2.5-0.4  c-0.2-0.1-0.6,0-0.9-0.1c-0.2-0.1-0.7,0-1.1-0.1c0,0,0-0.1-0.1-0.1c-0.4,0-0.8,0-1.2-0.1c-0.1,0-0.1-0.1-0.1-0.1  c-0.7-0.1-1.3-0.1-2.1-0.2c-0.1,0-0.1,0-0.2,0c-0.1,0-0.2-0.1-0.5-0.1c-0.2,0-0.2-0.1-0.3-0.1c-0.5,0-1.1,0.1-1.7,0  c-0.5,0-1-0.2-1.6-0.3c-0.5-0.1-0.9-0.1-1.3-0.2c-0.3-0.1-1-0.4-1.6-0.5c-0.5-0.1-1-0.2-1.5-0.3c-1.2-0.3-2.4-0.6-3.6-0.9  c-0.2-0.1-0.5,0-0.7-0.1c0,0,0-0.1-0.1-0.1c-0.3,0-0.6-0.2-0.9-0.2c-0.3,0-0.6,0-1-0.1c-0.1,0-0.6-0.1-0.9-0.2c0,0,0-0.1-0.1-0.1  c-0.3,0-0.4-0.1-0.7-0.2C23,78.1,22.7,78,22.3,78c-0.1,0-0.1,0-0.2,0c-0.1,0-0.1-0.1-0.1-0.1c-0.3,0-0.6,0-0.8,0  c-0.2,0-0.5-0.2-0.7-0.2c-0.3-0.1-0.5-0.1-0.7-0.1c-1.6-0.3-3.2-0.7-4.9-1c-0.1,0-0.1,0-0.2,0c-0.1,0-0.1-0.1-0.1-0.1  c-0.2-0.1-0.5,0-0.7-0.1c0,0,0-0.1-0.1-0.1c-0.2,0-0.3,0-0.4-0.1c-0.1,0-0.1-0.2-0.2-0.2c0,0-0.2,0-0.2,0c-0.1-0.1-0.3-0.2-0.5-0.3  c-0.1,0,0-0.1-0.1-0.1c-0.1,0-0.2-0.2-0.4-0.2c-0.2-0.1-0.4-0.1-0.6-0.2c0,0-0.2,0-0.2,0c-0.1-0.2-0.8-0.3-1-0.4  c-0.3-0.1-0.6-0.3-0.9-0.5c-0.1,0-0.1-0.2-0.2-0.2c0,0-0.2,0-0.2,0c0,0,0-0.1,0-0.1c-0.1-0.1-0.3-0.1-0.4-0.2  c-0.1-0.1-0.1-0.2-0.2-0.2c-0.1-0.1-0.4-0.3-0.5-0.4c-0.3-0.3-0.4-0.5-0.5-0.8c-0.1-0.3-0.1-0.6-0.2-0.9C6.7,71,6.8,71,6.9,70.7  c0-0.3-0.1-0.6-0.1-0.8c0,0,0.1-0.1,0.1-0.1c0.1-0.2,0.1-0.4,0.2-0.6c0-0.2,0-0.3,0.2-0.4C7.4,68.4,7.7,68.2,8,68  c0.1-0.1,0.2-0.3,0.3-0.4c0,0,0.2,0,0.2,0c0.1-0.1,0.1-0.1,0.2-0.2c0.5-0.4,1-0.8,1.5-1.2c0.2-0.2,0.4-0.4,0.6-0.5  c0.3-0.2,0.5-0.6,0.8-0.8c0.1-0.1,0.2,0,0.3-0.1c0.1,0,0.1-0.2,0.1-0.2c0.1-0.1,0.3-0.1,0.4-0.2c0.1,0,0.1-0.2,0.2-0.2  c0.1-0.1,0.2-0.1,0.4-0.2c0.1,0,0-0.1,0.1-0.1c0.2,0,0.4-0.4,0.6-0.6c0.3-0.3,0.5-0.6,0.8-0.9c0,0,0.2-0.1,0.2-0.1c0,0,0-0.2,0-0.2  c0.1-0.1,0.2-0.1,0.3-0.2c0.2-0.2,0.4-0.4,0.7-0.6c0.1-0.1,0.3-0.2,0.4-0.2c0.1,0,0.2-0.2,0.3-0.2c0.1-0.1,0.2-0.2,0.4-0.3  c0.2-0.1,0.2-0.2,0.4-0.4c0.1-0.1,0.3-0.2,0.4-0.4c0.1-0.1,0.1-0.2,0.2-0.3c0.1-0.1,0.1-0.2,0.2-0.3c0.2-0.2,0.6-0.7,0.8-0.9  c0.5-0.4,1-0.8,1.5-1.1c0.1-0.1,0.3-0.2,0.4-0.3c0.1-0.1,0.2-0.2,0.3-0.3c0.1-0.1,0.3-0.1,0.4-0.2C21.8,55.8,21.6,55.6,21.9,55.6z   M78.4,53.4c0-2.1,0.1-4.3,0.1-6.1c0-1.3-0.2-3.3,0.1-4.3c0-0.1,0-0.2,0-0.3c0-0.6,0-1.4,0.1-1.8c0-0.1,0-0.2,0-0.3  c0-0.5,0.1-0.6,0.1-0.9c0.1-0.9,0-1.7,0-2.6c0-3,0-6-0.3-8.5c-0.1-0.5-0.1-0.9-0.1-1.2c0-0.1-0.1-0.1-0.1-0.1  c-0.1-0.4-0.2-0.8-0.3-0.9c-0.1-0.1-0.4-0.5-0.4-0.5c-0.6-0.4-2.9-0.2-3.9-0.3c-0.1,0-0.2-0.1-0.3-0.1c-1.1-0.1-1.8,0-2.7,0  c-0.4,0-0.8,0-1.2,0c-0.1,0-0.1-0.1-0.2-0.1c-0.1,0-0.2,0-0.3,0c-1.1-0.1-2.3-0.1-3.1-0.1c-1.1,0-2.3-0.1-3.2,0  c-0.2,0-0.4,0.1-0.6,0.1c-0.6,0-1.2-0.1-1.8-0.1c-0.3,0-0.5-0.1-0.6-0.1c-1-0.1-2.3-0.1-3-0.2c-1.5-0.1-3.7,0-4.9,0.1  c-1.4,0.2-2.9,0.1-4.5,0.2c-1.5,0.1-3.1,0.2-4.6,0.2c-2.3,0.1-4.7,0.2-6.9,0.3c-0.9,0.1-2,0.1-2.5,0.2c-0.1,0-0.3,0-0.4,0  c-0.1,0-0.1,0.1-0.2,0.1c-0.2,0-0.3,0-0.4,0.1c0,0-0.2,0-0.2,0c-0.3,0.1-0.7,0.1-1,0.2c-0.4,0.1-0.7,0.3-1,0.5c0,0-0.1,0.2-0.1,0.2  c-0.1,0.1-0.2,0-0.3,0.1c-0.1,0.1-0.3,0.3-0.3,0.5c-0.2,0.2-0.1,0.5-0.1,0.6c0,0.4-0.1,0.9-0.1,1c-0.1,0.4,0,0.9,0,1.2  c0,0.1-0.1,0.1-0.1,0.2c-0.1,0.6,0,1.3-0.1,1.7c0,0.1-0.1,0.1-0.1,0.1c-0.2,0.8,0,1.6-0.1,2.5c0,0.1-0.1,0.1-0.1,0.2  c0,0.1,0,0.3,0,0.4c0,0.2-0.2,0.4-0.2,0.6c0,0.1,0,0.3,0,0.4c0,0.1-0.1,0.2-0.1,0.3c-0.1,0.7-0.1,1.4-0.2,2.2c0,0-0.1,0-0.1,0.1  c0,0.1,0,0.1,0,0.2c0,0.4-0.1,0.6-0.1,0.7c-0.3,1-0.2,2.2-0.3,3.3c-0.1,1-0.3,1.9-0.3,2.9c0,0.5,0,1.1,0,1.7c0,0.6,0.1,1.1,0.1,1.7  c0,1-0.6,2-0.2,3.1c0.9,0.4,2,0.1,3,0.1c0.2,0,0.4,0.1,0.6,0.1c0.9,0.1,1.6,0,2.4,0.1c0.9,0.1,1.5,0.2,2.3,0.2  c1.3,0,2.5,0.1,3.8,0.2c2.1,0.1,4.2,0.1,6.2,0.3c0.7,0.1,1.5,0.2,1.9,0.2c0.1,0,0.3,0,0.4,0c0.5,0,0.9,0.1,1.1,0.1c0.3,0,0.9,0,1,0  c0,0,0.1,0.1,0.1,0.1c0.6,0.1,1.5,0.2,1.9,0.2c0.1,0,0.3,0,0.4,0c0.4,0,0.8,0.1,0.9,0.1c0.1,0,0.1,0,0.2,0c1.4,0.1,2.7,0.2,4,0.4  c1,0.1,2,0.2,3,0.3c0,0,0,0.1,0,0.1c0.1,0.1,0.6,0,0.6,0c0.3,0,0.5,0.1,0.7,0.1c0.5,0,1,0,1.3,0.1c0.9,0.2,2.1,0.3,3.1,0.4  c0.5,0,1,0.1,1.5,0.1c1.7,0.1,3,0.3,4.5,0.5c1.4,0.2,2.9,0.2,4.2,0.4c0.5,0.1,1.2,0.3,1.8,0.1C78.6,56.1,78.4,54.7,78.4,53.4z   M73.6,63c-0.5-0.1-1-0.1-1.5-0.2c-1.6-0.2-3.2-0.2-4.9-0.4c-0.1,0-0.2-0.1-0.3-0.1c-0.1,0-0.2,0-0.3,0c-0.1,0-0.1-0.1-0.1-0.1  c-0.3,0-0.6,0-0.9,0c0,0,0-0.1-0.1-0.1c-0.1,0-0.1,0-0.2,0c-0.6,0-1.2-0.1-1.5-0.2c-0.1,0-0.1,0-0.2,0c-0.3,0-0.4-0.1-0.5-0.1  c-0.1,0-0.1,0-0.2,0c-0.4,0-0.6-0.1-0.8-0.1c-0.1,0-0.2,0-0.3,0c-0.1,0-0.1-0.1-0.1-0.1c-0.3,0-0.6,0-0.9,0  c-0.6-0.1-1.1-0.1-1.7-0.2c-0.6-0.1-1.2,0-1.8-0.1c-0.2,0-0.6-0.2-0.7-0.2C56.2,61,56,61,55.7,60.9c-0.1,0-0.2-0.1-0.3-0.1  c-0.9-0.2-1.9-0.1-2.9-0.1c-0.1,0-0.2-0.1-0.4-0.1c-0.4,0-0.7,0-1,0c-0.1,0-0.1,0.1-0.2,0.1c-0.1,0-0.1-0.1-0.2-0.1  c-0.4,0-1-0.1-1.1-0.1c-0.1,0-0.2,0-0.3,0c-0.5-0.1-1.4-0.1-1.8-0.2c-0.3-0.1-0.6-0.1-0.8-0.1c-0.9-0.1-1.8,0-2.7,0  c-0.1,0-0.1-0.1-0.2-0.1c-0.4-0.1-0.7,0-1,0c-0.4,0-0.8-0.2-1.2-0.2c-0.7,0-2.4,0.2-2.7-0.1c0,0-0.2,0-0.2,0c-0.5-0.1-0.9,0.1-1-0.1  c0,0-0.2,0-0.2,0c-0.3,0-0.4-0.1-0.5-0.1c-0.2,0-0.3,0-0.4-0.1c0,0-0.2,0-0.2,0c-0.6-0.1-1-0.1-1.6-0.1c-0.2,0-0.4-0.1-0.6-0.1  c-0.4,0-0.9,0-1.3,0c-0.4,0-0.8-0.2-1.2-0.2c-0.2,0-0.4,0.1-0.6,0.1c-0.3,0-0.6,0-0.8,0c-0.2,0-0.3-0.1-0.4-0.1  c-0.5-0.1-0.9,0-1.1-0.2c-0.2-0.2-1,0.1-0.9,0.2c-0.6,0.4-0.8,1.2-1.3,1.7c-0.1,0.1-0.2,0-0.3,0.1c-0.1,0-0.1,0.2-0.2,0.2  c-0.1,0.1-0.2,0.1-0.3,0.1c0,0-0.1,0.1-0.1,0.1c-0.2,0.2-0.4,0.4-0.5,0.5c0,0-0.2,0-0.2,0c-0.1,0.1-0.1,0.1-0.2,0.2  c-0.4,0.3-0.8,0.7-1,1c-0.3,0.4-0.5,0.5-0.8,0.8c-0.2,0.2-0.3,0.5-0.5,0.6c0,0-0.2,0-0.2,0c-0.1,0-0.1,0.2-0.2,0.2  c-0.1,0-0.2,0.2-0.3,0.2c-0.4,0.3-0.8,0.5-1,0.7c-0.3,0.3-0.6,0.6-0.9,0.9c-0.2,0.2-0.7,0.7-0.7,0.9c0,0.2-0.3,0.3-0.4,0.4  c-0.6,0.7-1.3,1.3-1.9,1.9c-0.2,0.2-0.6,0.3-0.5,0.7c0.3,0.3,0.7,0.3,1.1,0.4c1.2,0.3,2.8,0.4,3.9,0.7c0.1,0,0.1,0.1,0.1,0.1  c0.9,0.2,1.9,0.2,2.8,0.4c0.9,0.2,1.8,0.4,2.7,0.6c0.7,0.2,1.4,0.4,1.9,0.5c0.5,0.1,0.9,0.2,1.3,0.3c0.2,0.1,0.3,0.1,0.5,0.1  c0.1,0,0.1,0.1,0.1,0.1c0.4,0.1,1,0.1,1.2,0.2c0.1,0,0.1,0.1,0.1,0.1c0.4,0.1,0.9,0.1,1.3,0.2c0.5,0.1,0.9,0.2,1.3,0.3  c1,0.2,1.9,0.3,2.9,0.4c0.9,0.1,1.9,0.3,2.8,0.4c1,0.1,1.9,0.3,2.9,0.4c2.1,0.3,4.4,0.6,6.2,1c0.2,0.1,0.3,0.1,0.5,0.1  c0.1,0,0.1,0.1,0.1,0.1c0.4,0.1,1,0.1,1.5,0.2c2,0.3,4.2,0.3,6.2,0.3c0.6,0,1.1,0,1.7,0c0.5,0,1.1,0.1,1.6,0.1  c0.1,0,0.1-0.1,0.2-0.1c0.4-0.1,0.6,0,0.9-0.2c0.1-0.1,0.1-0.2,0.2-0.2c0.1-0.1,0.3,0,0.4-0.1c0.1,0,0.1-0.2,0.2-0.2  c0,0,0.2-0.1,0.2-0.1c0.1,0,0-0.1,0.1-0.1c0.2-0.1,0.3-0.2,0.4-0.3c0,0,0.2,0,0.2,0c0.2-0.1,0.2-0.3,0.4-0.5  c0.2-0.2,0.4-0.3,0.5-0.4c0.2-0.2,0.3-0.4,0.4-0.5c0.1-0.1,0.2-0.1,0.3-0.1c0,0,0.1-0.1,0.1-0.1c0.1,0,0.1,0,0.2-0.1  c0.3-0.3,0.5-0.7,0.8-1c0.1-0.1,0.3-0.3,0.4-0.3c0.1,0,0-0.1,0.1-0.1c0.2-0.1,0.3-0.1,0.4-0.2c0,0,0.1-0.2,0.1-0.2  c0.5-0.4,1-0.9,1.5-1.3c0.2-0.2,0.3-0.4,0.4-0.5c0.4-0.3,0.9-0.4,1.1-0.6c0.2-0.1,0.3-0.4,0.4-0.5c0.1-0.1,0.2-0.1,0.2-0.2  c0-0.1,0-0.2,0-0.2c0,0,0.2-0.1,0.2-0.1c0.4-0.4,0.9-0.9,1.1-1.2c0,0,0.2,0,0.2,0c0.3-0.2,0.4-0.6,0.7-0.6c0.2,0,0.1-0.3,0.4-0.2  c0.1-0.4,0.5-0.7,0.7-0.9c0.2-0.3,0.5-0.6,0.7-0.9c0.2-0.3,0.6-0.5,0.8-0.8c0.2-0.3,0.8-0.6,0.5-1C75.5,63.2,74.5,63.1,73.6,63z"/>
<path d="M35.5,61.9c0-0.1-0.1-0.3-0.3-0.4c0,0-0.1-0.1-0.2-0.1c0,0,0,0,0,0c0,0-0.1-0.1-0.1-0.1c0,0-0.1-0.1-0.1-0.1  c0,0-0.1-0.1-0.1-0.1c0-0.1-0.1-0.1-0.1-0.1c-0.1,0-0.2-0.1-0.2,0c0,0-0.1-0.1-0.2-0.1c0,0-0.1,0-0.1,0c0,0,0,0-0.1-0.1  c-0.3-0.1-0.5-0.1-0.9,0l-0.3,0c-0.1,0-0.2,0-0.3,0c0,0-0.1,0-0.2,0.1c-0.1,0-0.2,0-0.3,0c-0.3,0-0.7,0.1-0.9,0.2  c-0.1,0-0.1,0-0.2,0c-0.1,0-0.1,0.1-0.2,0.3c0,0.1-0.1,0.1-0.1,0.2c-0.1,0-0.1,0.1-0.2,0.2c0,0-0.1,0.1-0.1,0.1c0,0-0.1,0.1-0.1,0.1  c0,0.1,0,0.2,0,0.3c0,0,0,0.1,0,0.1c0,0,0,0.1-0.1,0.1c-0.1,0-0.1,0.1-0.1,0.2c0,0.1,0,0.2,0.1,0.3c0,0,0,0.1,0,0.1  c0,0,0,0.1-0.1,0.1c0,0-0.1,0.1-0.1,0.2c0,0.2,0,0.3,0,0.4c0,0,0,0.1,0,0.1c0,0.1,0,0.2,0,0.2c0,0.1,0,0.1,0,0.2c0,0,0,0,0.1,0.1  c0,0.1,0.1,0.2,0.2,0.2c0,0,0.1,0.1,0.1,0.1c0,0,0,0.1,0.1,0.1c0,0,0.1,0,0.1,0c0,0,0,0.1,0.1,0.1c0,0,0.1,0.1,0.2,0.1  c0,0,0,0,0,0.1c0,0.1,0.1,0.1,0.2,0.1c0.2,0.1,0.5,0.1,0.7,0.1c0.2,0,0.4,0,0.5-0.1c0.1,0,0.3,0,0.6,0.1c0,0,0.1,0,0.2-0.1  c0.1-0.1,0.2-0.1,0.4-0.1c0.1,0,0.2-0.1,0.3-0.1c0.1,0,0.1-0.1,0.1-0.1c0,0,0,0,0,0c0.1,0,0.2,0,0.3-0.1c0.1,0,0.2,0,0.3,0  c0.1,0,0.2,0,0.2-0.1c0.1-0.1,0.1-0.2,0.1-0.2c0,0,0-0.1,0-0.1c0.1,0,0.2-0.1,0.3-0.1c0,0,0.1-0.1,0.1-0.1c0.1,0,0.1-0.1,0.1-0.2  c0-0.1,0-0.2,0.1-0.3c0.1-0.1,0.1-0.3,0.1-0.5c0.1-0.2,0.2-0.4,0.2-0.6c0-0.1,0-0.3,0.1-0.3c0.1-0.1,0.1-0.1,0.1-0.2  C35.7,62.1,35.6,62,35.5,61.9C35.5,62,35.5,61.9,35.5,61.9z"/>
<path d="M45.1,62.6c0-0.1-0.1-0.3-0.3-0.4c0,0-0.1-0.1-0.2-0.1c0,0,0,0,0,0c0,0-0.1-0.1-0.1-0.1c0,0-0.1-0.1-0.1-0.1  c0,0-0.1-0.1-0.1-0.1c0-0.1-0.1-0.1-0.1-0.1c-0.1,0-0.2-0.1-0.2,0c0,0-0.1-0.1-0.2-0.1c0,0-0.1,0-0.1,0c0,0,0,0-0.1-0.1  c-0.3-0.1-0.5-0.1-0.9,0l-0.3,0c-0.1,0-0.2,0-0.3,0c0,0-0.1,0-0.2,0.1c-0.1,0-0.2,0-0.3,0c-0.3,0-0.7,0.1-0.9,0.2  c-0.1,0-0.1,0-0.2,0c-0.1,0-0.1,0.1-0.2,0.3c0,0.1-0.1,0.1-0.1,0.2c-0.1,0-0.1,0.1-0.2,0.2c0,0-0.1,0.1-0.1,0.1c0,0-0.1,0.1-0.1,0.1  c0,0.1,0,0.2,0,0.3c0,0,0,0.1,0,0.1c0,0,0,0.1-0.1,0.1c-0.1,0-0.1,0.1-0.1,0.2c0,0.1,0,0.2,0.1,0.3c0,0,0,0.1,0,0.1  c0,0,0,0.1-0.1,0.1c0,0-0.1,0.1-0.1,0.2c0,0.2,0,0.3,0,0.4c0,0,0,0.1,0,0.1c0,0.1,0,0.2,0,0.2c0,0.1,0,0.1,0,0.2c0,0,0,0,0.1,0.1  c0,0.1,0.1,0.2,0.2,0.2c0,0,0.1,0.1,0.1,0.1c0,0,0,0.1,0.1,0.1c0,0,0.1,0,0.1,0c0,0,0,0.1,0.1,0.1c0,0,0.1,0.1,0.2,0.1  c0,0,0,0,0,0.1c0,0.1,0.1,0.1,0.2,0.1c0.2,0.1,0.5,0.1,0.7,0.1c0.2,0,0.4,0,0.5-0.1c0.1,0,0.3,0,0.6,0.1c0,0,0.1,0,0.2-0.1  c0.1-0.1,0.2-0.1,0.4-0.1c0.1,0,0.2-0.1,0.3-0.1c0.1,0,0.1-0.1,0.1-0.1c0,0,0,0,0,0c0.1,0,0.2,0,0.3-0.1c0.1,0,0.2,0,0.3,0  c0.1,0,0.2,0,0.2-0.1c0.1-0.1,0.1-0.2,0.1-0.2c0,0,0-0.1,0-0.1c0.1,0,0.2-0.1,0.3-0.1c0,0,0.1-0.1,0.1-0.1c0.1,0,0.1-0.1,0.1-0.2  c0-0.1,0-0.2,0.1-0.3c0.1-0.1,0.1-0.3,0.1-0.5c0.1-0.2,0.2-0.4,0.2-0.6c0-0.1,0-0.3,0.1-0.3c0.1-0.1,0.1-0.1,0.1-0.2  C45.3,62.8,45.2,62.7,45.1,62.6C45.1,62.7,45.1,62.6,45.1,62.6z"/>
<path d="M48.9,70.1c0-0.1-0.1-0.3-0.3-0.4c0,0-0.1-0.1-0.2-0.1c0,0,0,0,0,0c0,0-0.1-0.1-0.1-0.1c0,0-0.1-0.1-0.1-0.1  c0,0-0.1-0.1-0.1-0.1c0-0.1-0.1-0.1-0.1-0.1c-0.1,0-0.2-0.1-0.2,0c0,0-0.1-0.1-0.2-0.1c0,0-0.1,0-0.1,0c0,0,0,0-0.1-0.1  c-0.3-0.1-0.5-0.1-0.9,0l-0.3,0c-0.1,0-0.2,0-0.3,0c0,0-0.1,0-0.2,0.1c-0.1,0-0.2,0-0.3,0c-0.3,0-0.7,0.1-0.9,0.2  c-0.1,0-0.1,0-0.2,0c-0.1,0-0.1,0.1-0.2,0.3c0,0.1-0.1,0.1-0.1,0.2c-0.1,0-0.1,0.1-0.2,0.2c0,0-0.1,0.1-0.1,0.1c0,0-0.1,0.1-0.1,0.1  c0,0.1,0,0.2,0,0.3c0,0,0,0.1,0,0.1c0,0,0,0.1-0.1,0.1c-0.1,0-0.1,0.1-0.1,0.2c0,0.1,0,0.2,0.1,0.3c0,0,0,0.1,0,0.1  c0,0,0,0.1-0.1,0.1c0,0-0.1,0.1-0.1,0.2c0,0.2,0,0.3,0,0.4c0,0,0,0.1,0,0.1c0,0.1,0,0.2,0,0.2c0,0.1,0,0.1,0,0.2c0,0,0,0,0.1,0.1  c0,0.1,0.1,0.2,0.2,0.2c0,0,0.1,0.1,0.1,0.1c0,0,0,0.1,0.1,0.1c0,0,0.1,0,0.1,0c0,0,0,0.1,0.1,0.1c0,0,0.1,0.1,0.2,0.1  c0,0,0,0,0,0.1c0,0.1,0.1,0.1,0.2,0.1c0.2,0.1,0.5,0.1,0.7,0.1c0.2,0,0.4,0,0.5-0.1c0.1,0,0.3,0,0.6,0.1c0,0,0.1,0,0.2-0.1  c0.1-0.1,0.2-0.1,0.4-0.1c0.1,0,0.2-0.1,0.3-0.1c0.1,0,0.1-0.1,0.1-0.1c0,0,0,0,0,0c0.1,0,0.2,0,0.3-0.1c0.1,0,0.2,0,0.3,0  c0.1,0,0.2,0,0.2-0.1c0.1-0.1,0.1-0.2,0.1-0.2c0,0,0-0.1,0-0.1c0.1,0,0.2-0.1,0.3-0.1c0,0,0.1-0.1,0.1-0.1c0.1,0,0.1-0.1,0.1-0.2  c0-0.1,0-0.2,0.1-0.3c0.1-0.1,0.1-0.3,0.1-0.5c0.1-0.2,0.2-0.4,0.2-0.6c0-0.1,0-0.3,0.1-0.3c0.1-0.1,0.1-0.1,0.1-0.2  C49.1,70.2,49,70.2,48.9,70.1C48.9,70.1,48.9,70.1,48.9,70.1z"/>
<path d="M65.7,65.3c0-0.1-0.1-0.3-0.3-0.4c0,0-0.1-0.1-0.2-0.1c0,0,0,0,0,0c0,0-0.1-0.1-0.1-0.1c0,0-0.1-0.1-0.1-0.1  c0,0-0.1-0.1-0.1-0.1c0-0.1-0.1-0.1-0.1-0.1c-0.1,0-0.2-0.1-0.2,0c0,0-0.1-0.1-0.2-0.1c0,0-0.1,0-0.1,0c0,0,0,0-0.1-0.1  c-0.3-0.1-0.5-0.1-0.9,0l-0.3,0c-0.1,0-0.2,0-0.3,0c0,0-0.1,0-0.2,0.1c-0.1,0-0.2,0-0.3,0c-0.3,0-0.7,0.1-0.9,0.2  c-0.1,0-0.1,0-0.2,0c-0.1,0-0.1,0.1-0.2,0.3c0,0.1-0.1,0.1-0.1,0.2c-0.1,0-0.1,0.1-0.2,0.2c0,0-0.1,0.1-0.1,0.1c0,0-0.1,0.1-0.1,0.1  c0,0.1,0,0.2,0,0.3c0,0,0,0.1,0,0.1c0,0,0,0.1-0.1,0.1c-0.1,0-0.1,0.1-0.1,0.2c0,0.1,0,0.2,0.1,0.3c0,0,0,0.1,0,0.1  c0,0,0,0.1-0.1,0.1c0,0-0.1,0.1-0.1,0.2c0,0.2,0,0.3,0,0.4c0,0,0,0.1,0,0.1c0,0.1,0,0.2,0,0.2c0,0.1,0,0.1,0,0.2c0,0,0,0,0.1,0.1  c0,0.1,0.1,0.2,0.2,0.2c0,0,0.1,0.1,0.1,0.1c0,0,0,0.1,0.1,0.1c0,0,0.1,0,0.1,0c0,0,0,0.1,0.1,0.1c0,0,0.1,0.1,0.2,0.1  c0,0,0,0,0,0.1c0,0.1,0.1,0.1,0.2,0.1c0.2,0.1,0.5,0.1,0.7,0.1c0.2,0,0.4,0,0.5-0.1c0.1,0,0.3,0,0.6,0.1c0,0,0.1,0,0.2-0.1  c0.1-0.1,0.2-0.1,0.4-0.1c0.1,0,0.2-0.1,0.3-0.1c0.1,0,0.1-0.1,0.1-0.1c0,0,0,0,0,0c0.1,0,0.2,0,0.3-0.1c0.1,0,0.2,0,0.3,0  c0.1,0,0.2,0,0.2-0.1c0.1-0.1,0.1-0.2,0.1-0.2c0,0,0-0.1,0-0.1c0.1,0,0.2-0.1,0.3-0.1c0,0,0.1-0.1,0.1-0.1c0.1,0,0.1-0.1,0.1-0.2  c0-0.1,0-0.2,0.1-0.3c0.1-0.1,0.1-0.3,0.1-0.5c0.1-0.2,0.2-0.4,0.2-0.6c0-0.1,0-0.3,0.1-0.3c0.1-0.1,0.1-0.1,0.1-0.2  C65.9,65.4,65.8,65.4,65.7,65.3C65.7,65.3,65.7,65.3,65.7,65.3z"/>
<path d="M29.3,66.9c0-0.1-0.1-0.3-0.3-0.4c0,0-0.1-0.1-0.2-0.1c0,0,0,0,0,0c0,0-0.1-0.1-0.1-0.1c0,0-0.1-0.1-0.1-0.1  c0,0-0.1-0.1-0.1-0.1c0-0.1-0.1-0.1-0.1-0.1c-0.1,0-0.2-0.1-0.2,0c0,0-0.1-0.1-0.2-0.1c0,0-0.1,0-0.1,0c0,0,0,0-0.1-0.1  c-0.3-0.1-0.5-0.1-0.9,0l-0.3,0c-0.1,0-0.2,0-0.3,0c0,0-0.1,0-0.2,0.1c-0.1,0-0.2,0-0.3,0c-0.3,0-0.7,0.1-0.9,0.2  c-0.1,0-0.1,0-0.2,0c-0.1,0-0.1,0.1-0.2,0.3c0,0.1-0.1,0.1-0.1,0.2c-0.1,0-0.1,0.1-0.2,0.2c0,0-0.1,0.1-0.1,0.1c0,0-0.1,0.1-0.1,0.1  c0,0.1,0,0.2,0,0.3c0,0,0,0.1,0,0.1c0,0,0,0.1-0.1,0.1c-0.1,0-0.1,0.1-0.1,0.2c0,0.1,0,0.2,0.1,0.3c0,0,0,0.1,0,0.1  c0,0,0,0.1-0.1,0.1c0,0-0.1,0.1-0.1,0.2c0,0.2,0,0.3,0,0.4c0,0,0,0.1,0,0.1c0,0.1,0,0.2,0,0.2c0,0.1,0,0.1,0,0.2c0,0,0,0,0.1,0.1  c0,0.1,0.1,0.2,0.2,0.2c0,0,0.1,0.1,0.1,0.1c0,0,0,0.1,0.1,0.1c0,0,0.1,0,0.1,0c0,0,0,0.1,0.1,0.1c0,0,0.1,0.1,0.2,0.1  c0,0,0,0,0,0.1c0,0.1,0.1,0.1,0.2,0.1c0.2,0.1,0.5,0.1,0.7,0.1c0.2,0,0.4,0,0.5-0.1c0.1,0,0.3,0,0.6,0.1c0,0,0.1,0,0.2-0.1  c0.1-0.1,0.2-0.1,0.4-0.1c0.1,0,0.2-0.1,0.3-0.1c0.1,0,0.1-0.1,0.1-0.1c0,0,0,0,0,0c0.1,0,0.2,0,0.3-0.1c0.1,0,0.2,0,0.3,0  c0.1,0,0.2,0,0.2-0.1c0.1-0.1,0.1-0.2,0.1-0.2c0,0,0-0.1,0-0.1c0.1,0,0.2-0.1,0.3-0.1c0,0,0.1-0.1,0.1-0.1c0.1,0,0.1-0.1,0.1-0.2  c0-0.1,0-0.2,0.1-0.3c0.1-0.1,0.1-0.3,0.1-0.5c0.1-0.2,0.2-0.4,0.2-0.6c0-0.1,0-0.3,0.1-0.3c0.1-0.1,0.1-0.1,0.1-0.2  C29.5,67,29.5,67,29.3,66.9C29.4,66.9,29.3,66.9,29.3,66.9z"/>
<path d="M39.4,68.5c0-0.1-0.1-0.3-0.3-0.4c0,0-0.1-0.1-0.2-0.1c0,0,0,0,0,0c0,0-0.1-0.1-0.1-0.1c0,0-0.1-0.1-0.1-0.1  c0,0-0.1-0.1-0.1-0.1c0-0.1-0.1-0.1-0.1-0.1c-0.1,0-0.2-0.1-0.2,0c0,0-0.1-0.1-0.2-0.1c0,0-0.1,0-0.1,0c0,0,0,0-0.1-0.1  c-0.3-0.1-0.5-0.1-0.9,0l-0.3,0c-0.1,0-0.2,0-0.3,0c0,0-0.1,0-0.2,0.1c-0.1,0-0.2,0-0.3,0c-0.3,0-0.7,0.1-0.9,0.2  c-0.1,0-0.1,0-0.2,0c-0.1,0-0.1,0.1-0.2,0.3c0,0.1-0.1,0.1-0.1,0.2c-0.1,0-0.1,0.1-0.2,0.2c0,0-0.1,0.1-0.1,0.1c0,0-0.1,0.1-0.1,0.1  c0,0.1,0,0.2,0,0.3c0,0,0,0.1,0,0.1c0,0,0,0.1-0.1,0.1c-0.1,0-0.1,0.1-0.1,0.2c0,0.1,0,0.2,0.1,0.3c0,0,0,0.1,0,0.1  c0,0,0,0.1-0.1,0.1c0,0-0.1,0.1-0.1,0.2c0,0.2,0,0.3,0,0.4c0,0,0,0.1,0,0.1c0,0.1,0,0.2,0,0.2c0,0.1,0,0.1,0,0.2c0,0,0,0,0.1,0.1  c0,0.1,0.1,0.2,0.2,0.2c0,0,0.1,0.1,0.1,0.1c0,0,0,0.1,0.1,0.1c0,0,0.1,0,0.1,0c0,0,0,0.1,0.1,0.1c0,0,0.1,0.1,0.2,0.1  c0,0,0,0,0,0.1c0,0.1,0.1,0.1,0.2,0.1c0.2,0.1,0.5,0.1,0.7,0.1c0.2,0,0.4,0,0.5-0.1c0.1,0,0.3,0,0.6,0.1c0,0,0.1,0,0.2-0.1  c0.1-0.1,0.2-0.1,0.4-0.1c0.1,0,0.2-0.1,0.3-0.1c0.1,0,0.1-0.1,0.1-0.1c0,0,0,0,0,0c0.1,0,0.2,0,0.3-0.1c0.1,0,0.2,0,0.3,0  c0.1,0,0.2,0,0.2-0.1c0.1-0.1,0.1-0.2,0.1-0.2c0,0,0-0.1,0-0.1c0.1,0,0.2-0.1,0.3-0.1c0,0,0.1-0.1,0.1-0.1c0.1,0,0.1-0.1,0.1-0.2  c0-0.1,0-0.2,0.1-0.3c0.1-0.1,0.1-0.3,0.1-0.5c0.1-0.2,0.2-0.4,0.2-0.6c0-0.1,0-0.3,0.1-0.3c0.1-0.1,0.1-0.1,0.1-0.2  C39.6,68.6,39.6,68.6,39.4,68.5C39.4,68.5,39.4,68.5,39.4,68.5z"/>
<path d="M59.3,70.8c0-0.1-0.1-0.3-0.3-0.4c0,0-0.1-0.1-0.2-0.1c0,0,0,0,0,0c0,0-0.1-0.1-0.1-0.1c0,0-0.1-0.1-0.1-0.1  c0,0-0.1-0.1-0.1-0.1c0-0.1-0.1-0.1-0.1-0.1c-0.1,0-0.2-0.1-0.2,0c0,0-0.1-0.1-0.2-0.1c0,0-0.1,0-0.1,0c0,0,0,0-0.1-0.1  c-0.3-0.1-0.5-0.1-0.9,0l-0.3,0c-0.1,0-0.2,0-0.3,0c0,0-0.1,0-0.2,0.1c-0.1,0-0.2,0-0.3,0c-0.3,0-0.7,0.1-0.9,0.2  c-0.1,0-0.1,0-0.2,0c-0.1,0-0.1,0.1-0.2,0.3c0,0.1-0.1,0.1-0.1,0.2c-0.1,0-0.1,0.1-0.2,0.2c0,0-0.1,0.1-0.1,0.1c0,0-0.1,0.1-0.1,0.1  c0,0.1,0,0.2,0,0.3c0,0,0,0.1,0,0.1c0,0,0,0.1-0.1,0.1c-0.1,0-0.1,0.1-0.1,0.2c0,0.1,0,0.2,0.1,0.3c0,0,0,0.1,0,0.1  c0,0,0,0.1-0.1,0.1c0,0-0.1,0.1-0.1,0.2c0,0.2,0,0.3,0,0.4c0,0,0,0.1,0,0.1c0,0.1,0,0.2,0,0.2c0,0.1,0,0.1,0,0.2c0,0,0,0,0.1,0.1  c0,0.1,0.1,0.2,0.2,0.2c0,0,0.1,0.1,0.1,0.1c0,0,0,0.1,0.1,0.1c0,0,0.1,0,0.1,0c0,0,0,0.1,0.1,0.1c0,0,0.1,0.1,0.2,0.1  c0,0,0,0,0,0.1c0,0.1,0.1,0.1,0.2,0.1c0.2,0.1,0.5,0.1,0.7,0.1c0.2,0,0.4,0,0.5-0.1c0.1,0,0.3,0,0.6,0.1c0,0,0.1,0,0.2-0.1  c0.1-0.1,0.2-0.1,0.4-0.1c0.1,0,0.2-0.1,0.3-0.1c0.1,0,0.1-0.1,0.1-0.1c0,0,0,0,0,0c0.1,0,0.2,0,0.3-0.1c0.1,0,0.2,0,0.3,0  c0.1,0,0.2,0,0.2-0.1c0.1-0.1,0.1-0.2,0.1-0.2c0,0,0-0.1,0-0.1c0.1,0,0.2-0.1,0.3-0.1c0,0,0.1-0.1,0.1-0.1c0.1,0,0.1-0.1,0.1-0.2  c0-0.1,0-0.2,0.1-0.3c0.1-0.1,0.1-0.3,0.1-0.5c0.1-0.2,0.2-0.4,0.2-0.6c0-0.1,0-0.3,0.1-0.3c0.1-0.1,0.1-0.1,0.1-0.2  C59.5,71,59.4,71,59.3,70.8C59.3,70.9,59.3,70.9,59.3,70.8z"/>
<path d="M54.3,63.7c0-0.1-0.1-0.3-0.3-0.4c0,0-0.1-0.1-0.2-0.1c0,0,0,0,0,0c0,0-0.1-0.1-0.1-0.1c0,0-0.1-0.1-0.1-0.1  c0,0-0.1-0.1-0.1-0.1c0-0.1-0.1-0.1-0.1-0.1c-0.1,0-0.2-0.1-0.2,0c0,0-0.1-0.1-0.2-0.1c0,0-0.1,0-0.1,0c0,0,0,0-0.1-0.1  c-0.3-0.1-0.5-0.1-0.9,0l-0.3,0c-0.1,0-0.2,0-0.3,0c0,0-0.1,0-0.2,0.1c-0.1,0-0.2,0-0.3,0c-0.3,0-0.7,0.1-0.9,0.2  c-0.1,0-0.1,0-0.2,0c-0.1,0-0.1,0.1-0.2,0.3c0,0.1-0.1,0.1-0.1,0.2c-0.1,0-0.1,0.1-0.2,0.2c0,0-0.1,0.1-0.1,0.1c0,0-0.1,0.1-0.1,0.1  c0,0.1,0,0.2,0,0.3c0,0,0,0.1,0,0.1c0,0,0,0.1-0.1,0.1c-0.1,0-0.1,0.1-0.1,0.2c0,0.1,0,0.2,0.1,0.3c0,0,0,0.1,0,0.1  c0,0,0,0.1-0.1,0.1c0,0-0.1,0.1-0.1,0.2c0,0.2,0,0.3,0,0.4c0,0,0,0.1,0,0.1c0,0.1,0,0.2,0,0.2c0,0.1,0,0.1,0,0.2c0,0,0,0,0.1,0.1  c0,0.1,0.1,0.2,0.2,0.2c0,0,0.1,0.1,0.1,0.1c0,0,0,0.1,0.1,0.1c0,0,0.1,0,0.1,0c0,0,0,0.1,0.1,0.1c0,0,0.1,0.1,0.2,0.1  c0,0,0,0,0,0.1c0,0.1,0.1,0.1,0.2,0.1c0.2,0.1,0.5,0.1,0.7,0.1c0.2,0,0.4,0,0.5-0.1c0.1,0,0.3,0,0.6,0.1c0,0,0.1,0,0.2-0.1  C51.7,67,51.8,67,52,67c0.1,0,0.2-0.1,0.3-0.1c0.1,0,0.1-0.1,0.1-0.1c0,0,0,0,0,0c0.1,0,0.2,0,0.3-0.1c0.1,0,0.2,0,0.3,0  c0.1,0,0.2,0,0.2-0.1c0.1-0.1,0.1-0.2,0.1-0.2c0,0,0-0.1,0-0.1c0.1,0,0.2-0.1,0.3-0.1c0,0,0.1-0.1,0.1-0.1c0.1,0,0.1-0.1,0.1-0.2  c0-0.1,0-0.2,0.1-0.3c0.1-0.1,0.1-0.3,0.1-0.5c0.1-0.2,0.2-0.4,0.2-0.6c0-0.1,0-0.3,0.1-0.3c0.1-0.1,0.1-0.1,0.1-0.2  C54.5,63.9,54.4,63.8,54.3,63.7C54.3,63.7,54.3,63.7,54.3,63.7z"/>
</svg>