<?xml version="1.0" encoding="utf-8"?>
<!-- Generator: Adobe Illustrator 16.0.0, SVG Export Plug-In . SVG Version: 6.00 Build 0)  -->
<!DOCTYPE svg PUBLIC "-//W3C//DTD SVG 1.1//EN" "http://www.w3.org/Graphics/SVG/1.1/DTD/svg11.dtd">
<svg version="1.1" id="Layer_1" xmlns="http://www.w3.org/2000/svg" xmlns:xlink="http://www.w3.org/1999/xlink" x="0px" y="0px"
	  viewBox="0 0 165 165" enable-background="new 0 0 165 165" xml:space="preserve">
<path fill="#FFFFFF" d="M82.5,2.5c-44.181,0-80,35.817-80,80s35.819,80,80,80c44.184,0,80-35.817,80-80S126.684,2.5,82.5,2.5z
	 M63.074,66.347L27.646,83.602l35.428,17.346v7.16L19.937,86.722v-6.057l0.542-0.269L63.074,59.28V66.347z M87.027,116H79.96V49
	h7.067V116z M101.928,108.107v-7.16l35.428-17.346l-35.428-17.254V59.28l42.594,21.116l0.541,0.269v6.057L101.928,108.107z"/>
</svg>
