<svg xmlns="http://www.w3.org/2000/svg" viewBox="0 0 442.55 64">
<g id="Resources">
	<g>
		<path fill="#F1F2F2" d="M46.993,7.142h5.159v48.911h-5.159V7.142z"/>
		<path fill="#F1F2F2" d="M61.531,46.003V45.87c0-7.438,6.03-11.323,14.808-11.323c4.422,0,7.504,0.603,10.586,1.474v-1.072
			c0-6.164-3.752-9.38-10.251-9.38c-4.087,0-7.303,1.005-10.52,2.479l-1.541-4.222c3.819-1.742,7.505-2.948,12.597-2.948
			c4.891,0,8.71,1.341,11.189,3.819c2.412,2.412,3.618,5.762,3.618,10.185v21.172h-5.093v-5.159
			c-2.412,3.082-6.365,5.896-12.462,5.896C67.963,56.791,61.531,53.105,61.531,46.003z M86.992,43.323v-3.216
			c-2.546-0.736-5.896-1.474-10.117-1.474c-6.433,0-10.117,2.813-10.117,6.968v0.134c0,4.355,4.02,6.901,8.71,6.901
			C81.833,52.636,86.992,48.817,86.992,43.323z"/>
		<path fill="#F1F2F2" d="M108.096,49.42v6.633h-5.159V7.142h5.159v21.24c2.813-4.154,6.9-7.706,13.266-7.706
			c8.309,0,16.55,6.566,16.55,17.957v0.134c0,11.323-8.175,18.023-16.55,18.023C114.93,56.791,110.776,53.306,108.096,49.42z
			 M132.619,38.834V38.7c0-8.174-5.629-13.399-12.194-13.399c-6.433,0-12.529,5.427-12.529,13.333v0.134
			c0,8.04,6.097,13.4,12.529,13.4C127.125,52.167,132.619,47.209,132.619,38.834z"/>
		<path fill="#F1F2F2" d="M145.28,38.901v-0.134c0-9.782,7.639-18.091,18.09-18.091c10.386,0,18.023,8.175,18.023,17.957v0.134
			c0,9.782-7.705,18.091-18.157,18.091C152.851,56.858,145.28,48.683,145.28,38.901z M176.1,38.901v-0.134
			c0-7.438-5.56-13.534-12.864-13.534c-7.504,0-12.663,6.097-12.663,13.4v0.134c0,7.438,5.494,13.468,12.797,13.468
			C170.874,52.235,176.1,46.205,176.1,38.901z"/>
		<path fill="#F1F2F2" d="M190.705,21.414h5.16v9.045c2.545-5.762,7.57-9.916,14.137-9.647v5.561H209.6
			c-7.57,0-13.734,5.428-13.734,15.88v13.802h-5.16V21.414z"/>
		<path fill="#F1F2F2" d="M213.553,46.003V45.87c0-7.438,6.029-11.323,14.807-11.323c4.424,0,7.506,0.603,10.588,1.474v-1.072
			c0-6.164-3.754-9.38-10.252-9.38c-4.088,0-7.305,1.005-10.52,2.479l-1.541-4.222c3.818-1.742,7.504-2.948,12.596-2.948
			c4.893,0,8.711,1.341,11.189,3.819c2.412,2.412,3.619,5.762,3.619,10.185v21.172h-5.092v-5.159
			c-2.412,3.082-6.365,5.896-12.463,5.896C219.984,56.791,213.553,53.105,213.553,46.003z M239.014,43.323v-3.216
			c-2.547-0.736-5.896-1.474-10.117-1.474c-6.432,0-10.119,2.813-10.119,6.968v0.134c0,4.355,4.021,6.901,8.711,6.901
			C233.854,52.636,239.014,48.817,239.014,43.323z"/>
		<path fill="#F1F2F2" d="M256.434,46.875V25.97h-4.824v-4.557h4.824V10.961h5.16v10.452h10.988v4.557h-10.988v20.234
			c0,4.221,2.344,5.762,5.828,5.762c1.742,0,3.217-0.335,5.025-1.206v4.422c-1.809,0.938-3.752,1.475-6.23,1.475
			C260.654,56.657,256.434,53.91,256.434,46.875z"/>
		<path fill="#F1F2F2" d="M278.543,38.901v-0.134c0-9.782,7.639-18.091,18.09-18.091c10.387,0,18.023,8.175,18.023,17.957v0.134
			c0,9.782-7.705,18.091-18.156,18.091C286.115,56.858,278.543,48.683,278.543,38.901z M309.363,38.901v-0.134
			c0-7.438-5.561-13.534-12.863-13.534c-7.504,0-12.664,6.097-12.664,13.4v0.134c0,7.438,5.494,13.468,12.797,13.468
			C304.139,52.235,309.363,46.205,309.363,38.901z"/>
		<path fill="#F1F2F2" d="M323.969,21.414h5.158v9.045c2.547-5.762,7.572-9.916,14.139-9.647v5.561h-0.402
			c-7.572,0-13.736,5.428-13.736,15.88v13.802h-5.158V21.414z"/>
		<path fill="#F1F2F2" d="M351.238,8.148h5.895v5.694h-5.895V8.148z M351.572,21.414h5.16v34.64h-5.16V21.414z"/>
		<path fill="#F1F2F2" d="M366.111,46.003V45.87c0-7.438,6.029-11.323,14.807-11.323c4.422,0,7.504,0.603,10.586,1.474v-1.072
			c0-6.164-3.752-9.38-10.252-9.38c-4.086,0-7.303,1.005-10.518,2.479l-1.541-4.222c3.818-1.742,7.504-2.948,12.596-2.948
			c4.891,0,8.709,1.341,11.189,3.819c2.412,2.412,3.617,5.762,3.617,10.185v21.172h-5.092v-5.159
			c-2.412,3.082-6.365,5.896-12.463,5.896C372.543,56.791,366.111,53.105,366.111,46.003z M391.57,43.323v-3.216
			c-2.545-0.736-5.895-1.474-10.117-1.474c-6.432,0-10.117,2.813-10.117,6.968v0.134c0,4.355,4.021,6.901,8.711,6.901
			C386.412,52.636,391.57,48.817,391.57,43.323z"/>
		<g display="none">
			<polygon display="inline" fill="#FFD369" points="3.175,30.258 3.175,34.68 34.666,50.292 34.666,45.065 3.571,30.062 			"/>
			<polygon display="inline" fill="#DD9D5F" points="34.666,14.647 3.571,30.062 34.666,45.065 8.803,32.402 34.666,19.806 			"/>
		</g>
		<g>
			<polygon fill="#FFFFFF" points="3.175,30.258 3.175,34.68 34.666,50.292 34.666,45.065 3.571,30.062 			"/>
			<polygon fill="#E6E7E8" points="34.666,14.647 3.571,30.062 34.666,45.065 8.803,32.402 34.666,19.806 			"/>
		</g>
		<g>
			<polygon fill="#FFFFFF" points="439.375,30.258 439.375,34.68 407.885,50.292 407.885,45.065 438.979,30.062 			"/>
			<polygon fill="#E6E7E8" points="407.885,14.647 438.979,30.062 407.885,45.065 433.748,32.402 407.885,19.806 			"/>
		</g>
	</g>
</g>
<g id="FOLD">
</g>
<g id="Guides" display="none">
</g>
</svg>
