<svg xmlns="http://www.w3.org/2000/svg" xmlns:xlink="http://www.w3.org/1999/xlink" version="1.1" id="Layer_1" x="0px" y="0px" viewBox="0 0 100 100" enable-background="new 0 0 100 100" xml:space="preserve">
<path fill-rule="evenodd" clip-rule="evenodd" d="M52.6,29.6c0,0.6,0.1,1.1,0.2,1.6c0.1,0.5,0,1,0.1,1.6c0,0.2,0.1,0.5,0.2,0.7  c0.1,0.4,0.1,0.7,0.2,1.1c0.1,0.2,0.1,0.4,0.2,0.7c0.1,0.2,0,0.4,0.1,0.8c0,0.1,0.1,0.3,0.1,0.4c0,0.3-0.1,0.7-0.1,1  c0,0.3,0.1,0.8,0.1,1.1c0,0.6,0,1.1,0,1.8c0,0.1,0.1,0.3,0.1,0.5c0,0.4-0.1,0.8-0.1,1c0.1,0.3,0.2,0.3,0.4,0.5c0,0,0,0.1,0.1,0.1  c0.1,0,0.2,0.2,0.3,0.3c0,0,0.1,0,0.2,0c0.1,0.1,0.1,0.2,0.3,0.3c0.1,0.1,0.2,0.1,0.3,0.2c0.2,0.1,0.4,0.5,0.6,0.6  c0.1,0,0.2,0,0.2,0.1c0,0,0,0.1,0.1,0.1c0.1,0,0.2,0.2,0.3,0.3c0.1,0.1,0.2,0,0.2,0.1c0.1,0.1,0.2,0.3,0.3,0.4  c0.1,0.1,0.4,0.3,0.6,0.5c0,0,0,0.2,0.1,0.2c0,0,0.3,0.2,0.5,0.2c0.2,0,0.5,0,0.9-0.1c0,0,0-0.1,0.1-0.1c0.7,0,1.5-0.3,2.1-0.4  c0.6-0.1,1.1-0.2,1.6-0.2c0,0,0-0.1,0.1-0.1c0.2,0,0.4,0,0.6-0.1c0.3,0,0.5,0,0.8-0.1c0,0,0-0.1,0.1-0.1c0.1,0,0.2,0,0.3,0  c0,0,0-0.1,0.1-0.1c0.3,0,0.4,0,0.7-0.1c0.1,0,0.2,0,0.2,0c0.1,0,0.3-0.1,0.6-0.1c0.1,0,0.2,0,0.2,0c0.5-0.1,1.5-0.3,2.1-0.4  c0.1,0,0.3,0,0.3,0c0,0,0.2-0.1,0.4-0.2c0.2-0.1,0.4-0.1,0.7-0.2c0.3-0.1,0.6-0.1,1-0.2c0.3,0,0.6,0,0.7-0.1  c0.2-0.1,0.3-0.2,0.4-0.3c0.1-0.1,0.1-0.1,0.2-0.2c0-0.1,0.1-0.1,0.2-0.2c0.1-0.1,0-0.2,0.1-0.3c0,0,0.1-0.1,0.2-0.2  c0.1-0.1,0.2-0.2,0.3-0.3c0,0,0-0.1,0-0.2c0,0,0.1-0.1,0.2-0.1c0.1-0.1,0-0.2,0.1-0.2c0.1-0.1,0.2-0.2,0.3-0.3c0,0,0-0.1,0-0.2  c0.1-0.1,0.2-0.1,0.3-0.2c0.1-0.1,0.2-0.3,0.2-0.4c0,0,0.1,0,0.2,0c0.1-0.1,0.2-0.3,0.4-0.4c0.1-0.1,0.1-0.2,0.2-0.2  c0,0,0.1,0,0.2,0c0.1-0.1,0.1-0.2,0.3-0.2c0,0,0.1,0,0.2,0c0.2-0.2,0.8-0.4,1.2-0.5c0.4-0.1,1.2,0,1.6-0.2c0.1-0.1,0.2-0.2,0.5-0.2  c0.2-0.1,0.5-0.1,0.9-0.2c0.2,0,0.4-0.1,0.6-0.1c0.2,0,0.4,0,0.6,0.1c0,0,0,0.1,0.1,0.1c0.2,0,0.2,0.1,0.4,0.2  c0.4,0.1,0.8,0.2,1,0.3c0,0,0,0.1,0.1,0.1c0,0,0.1,0.1,0.2,0.1c0.1,0,0.1,0.1,0.2,0.2c0,0,0.1,0,0.2,0c0,0,0.1,0.1,0.1,0.2  c0.1,0.1,0.2,0,0.2,0.1c0,0,0,0.1,0.1,0.1c0.1,0,0.2,0.2,0.3,0.2c0,0,0.1,0.1,0.2,0.2c0.1,0,0.2,0.2,0.3,0.2c0.1,0,0.2,0.2,0.3,0.2  c0.1,0.1,0.2,0.2,0.3,0.3c0,0,0.1,0,0.2,0c0,0,0.1,0.1,0.1,0.2c0.1,0.1,0.4,0.2,0.6,0.4c0,0.1,0,0.2,0.1,0.2  c0.1,0.1,0.3,0.4,0.3,0.6c0,0.2,0.1,0.3,0.2,0.5c0,0,0,0.1,0,0.2c0.2,0.1,0.2,0.6,0.2,1c0.1,0.3,0.2,0.6,0.2,0.9  c0,0.7-0.3,1.3-0.6,2c-0.1,0.1,0,0.2-0.1,0.3c0,0-0.1,0.1-0.2,0.2c-0.1,0.1-0.1,0.3-0.2,0.5c0,0.1,0,0.2-0.1,0.2  c0,0-0.1,0.1-0.2,0.2c-0.1,0.1-0.1,0.4-0.2,0.5c-0.1,0.1-0.2,0.2-0.3,0.3c-0.1,0.1-0.2,0.2-0.3,0.3c-0.2,0.2-0.4,0.5-0.7,0.7  c0,0-0.1,0.1-0.1,0.1c-0.1,0.1-0.3,0.1-0.4,0.2c0,0-0.1,0.1-0.2,0.2c-0.1,0.1-0.2,0-0.3,0.1c-0.1,0-0.1,0.1-0.2,0.2  c-0.1,0-0.2,0-0.2,0.1c0,0-0.1,0.1-0.2,0.2c0,0-0.1,0-0.2,0c-0.1,0-0.2,0.1-0.4,0.2c-0.1,0-0.3,0-0.3,0c0,0,0,0.1,0,0.1  c-0.2,0-0.4,0.1-0.6,0.1c-0.1,0-0.2,0.1-0.3,0.1c-1.1,0.1-2.2-0.1-3.1-0.4c-0.1,0-0.3-0.1-0.4-0.2c-0.2-0.1-0.4-0.1-0.7-0.2  c0,0,0-0.1-0.1-0.1c0,0-0.1,0-0.1,0c-0.1,0-0.1-0.1-0.2-0.1c-0.1,0-0.5-0.2-0.7-0.2c0,0,0-0.1-0.1-0.1c0,0-0.1-0.1-0.2-0.1  c-0.1,0-0.2-0.2-0.3-0.2c-0.1,0-0.4-0.3-0.6-0.5c-0.2-0.2-0.5-0.4-0.7-0.6c-0.1-0.1-0.2-0.2-0.2-0.2c0,0,0-0.1,0-0.2  c-0.1-0.1-0.3-0.1-0.3-0.4c-0.1,0-0.3-0.1-0.3-0.2c-0.4,0-0.7,0.1-1,0.2c-0.5,0.1-1.2,0-1.6,0.2c-0.1,0.1-0.5,0.2-0.7,0.2  c-0.1,0-0.3,0-0.5,0c-0.1,0-0.2,0.1-0.3,0.1c-0.2,0-0.4-0.1-0.8-0.1c-0.5,0-1,0.2-1.6,0.2c-0.3,0-0.6,0-0.9,0.1  c-0.1,0-0.5,0.1-0.7,0.2c-0.4,0.1-0.8,0.2-1.2,0.2c-0.1,0-0.2,0-0.2,0c-0.3,0.1-0.9,0.1-1.4,0.2c-0.4,0.1-1.2,0-1.7,0.2  c-0.1,0-0.2,0-0.3,0.1c-0.3,0.2-0.3,0.7-0.4,1.2c-0.1,0.3-0.1,0.3-0.2,0.5c0,0.1-0.1,0.2-0.2,0.3c-0.1,0.1-0.1,0.3-0.2,0.4  c0,0.1-0.1,0.1-0.2,0.2c-0.1,0.2-0.1,0.3-0.2,0.5c0,0-0.1,0-0.1,0.1c0,0.1-0.1,0.2-0.2,0.2c-0.1,0.1-0.1,0.2-0.2,0.4  c0,0-0.1,0-0.1,0.1c0,0.1-0.1,0.2-0.2,0.2c-0.1,0.1-0.3,0.3-0.3,0.6c0,0.2,0.1,0.4,0.2,0.6c0.1,0.2,0.1,0.4,0.2,0.6  c0.3,0.6,0.6,1,1,1.6c0,0.1,0,0.1,0.1,0.2c0,0,0.1,0.1,0.1,0.1c0.1,0.1,0,0.2,0.1,0.3c0,0.1,0.2,0.2,0.2,0.2c0,0,0,0.1,0,0.2  c0,0,0.1,0.1,0.2,0.1c0.1,0.1,0,0.2,0.1,0.3c0,0,0.1,0.1,0.2,0.1c0.1,0.1,0,0.2,0.1,0.3c0,0,0.1,0,0.1,0.1c0,0.1,0.2,0.2,0.2,0.4  c0,0.1,0.1,0.2,0.2,0.3c0.1,0.1,0.3,0.4,0.4,0.6c0,0,0.1,0.1,0.2,0.1c0.1,0.2,0.1,0.2,0.2,0.4c0.2,0.3,0.5,0.6,0.7,1  c0,0.1,0.2,0.2,0.2,0.3c0,0.1,0.2,0.2,0.3,0.3c0,0,0,0.1,0,0.2c0,0,0.1,0.1,0.2,0.1c0.1,0.1,0,0.2,0.1,0.3c0,0,0.1,0.1,0.2,0.1  c0.1,0.2,0.1,0.3,0.2,0.6c0.6,0.9,1.2,1.9,1.8,2.9c0.1,0.2,0.2,0.4,0.4,0.6c0,0,0.1,0.1,0.1,0.1c0.1,0.1,0,0.2,0.1,0.3  c0,0,0.1,0.1,0.2,0.1c0,0,0,0.1,0,0.2c0,0,0.1,0.1,0.2,0.1c0.1,0.2,0.1,0.2,0.2,0.4c0,0.1,0.2,0.2,0.2,0.3c0,0.1,0.2,0.1,0.2,0.2  c0,0.1,0.1,0.3,0.2,0.4c0,0.1,0.1,0.1,0.2,0.2c0,0,0,0.1,0,0.2c0,0,0.1,0.1,0.2,0.1c0,0,0,0.1,0,0.2c0,0,0.1,0,0.2,0.1  c0,0,0,0.1,0,0.2c0.1,0.1,0.2,0.1,0.3,0.2c0.3,0.1,0.6,0,1,0c0.2,0,0.3,0.1,0.5,0.1c0.4,0.1,0.7,0.1,1.2,0c0,0,0.1,0,0.2,0  c0,0,0-0.1,0-0.1c0.6-0.1,1.3,0,1.8,0.2c0,0,0.1,0,0.2,0c0.1,0.1,0.5,0.2,0.7,0.2c0,0,0.1,0,0.2,0c0,0,0,0.1,0,0.1c0,0,0.1,0,0.2,0  c0,0,0,0.1,0,0.1c0,0,0.1,0,0.2,0c0,0,0,0.1,0,0.1c0,0,0.1,0,0.2,0c0,0,0.1,0.1,0.1,0.2c0.1,0.1,0.3,0.2,0.5,0.3  c0.1,0.1,0.1,0.3,0.3,0.3c0.1,0,0.2,0.1,0.3,0.2c0.1,0.1,0.1,0.1,0.2,0.2c0.1,0.1,0.2,0.2,0.3,0.2c0.2,0,0.7,0.7,0.9,0.9  c0,0,0.1,0,0.2,0c0,0,0,0.1,0.1,0.2c0,0,0.2,0.1,0.2,0.1c0,0,0,0.1,0,0.2c0,0.1,0.2,0.1,0.2,0.2c0,0.1,0,0.2,0.1,0.2  c0,0.1,0.1,0.1,0.1,0.2c0.1,0.2,0.1,0.5,0.2,0.7c0.2,0.5,0.7,1.2,0.7,1.8c0.1,0.5,0,1-0.2,1.5c0,0.1-0.1,0.3-0.2,0.5  c0,0.1-0.1,0.2-0.2,0.4c0,0.1,0,0.2-0.1,0.3c0,0-0.2,0.1-0.2,0.2c0,0.1,0,0.1-0.1,0.2c-0.1,0.1-0.3,0.4-0.4,0.6  c-0.1,0.1-0.3,0.2-0.4,0.4c-0.1,0.1-0.2,0.4-0.3,0.5c-0.1,0.1-0.2,0-0.2,0.1c0,0,0,0.1-0.1,0.2c-0.1,0-0.2,0-0.2,0.1  c0,0,0,0.1-0.1,0.2c-0.1,0.1-0.4,0.2-0.6,0.2c0,0,0,0.1-0.1,0.1c-0.1,0-0.1,0.1-0.2,0.2c0,0-0.1,0-0.2,0c-0.2,0.1-0.3,0.5-0.5,0.6  c-0.1,0.1-0.3,0.2-0.5,0.3C73,82.9,72.8,83,72.7,83c-0.3,0.1-0.5,0.1-0.9,0.1c-0.9,0.1-2,0.1-3.1-0.1c-0.1,0-0.1-0.1-0.2-0.1  c-0.2,0-0.3,0-0.6-0.1c0,0-0.1,0-0.2,0c0,0,0-0.1,0-0.1c-0.4-0.1-0.7,0-1-0.1c0,0,0-0.1-0.1-0.1c-0.2,0-0.2-0.1-0.4-0.2  c-0.1,0-0.2,0-0.3-0.1c-0.1,0-0.1-0.1-0.2-0.2c-0.1,0-0.1,0-0.2-0.1c-0.1,0-0.1-0.1-0.2-0.2c0,0-0.1,0-0.2,0c0,0-0.2-0.2-0.3-0.2  c0,0-0.1,0-0.1,0c-0.1,0-0.1-0.1-0.2-0.2c0,0-0.1,0-0.2,0c-0.1-0.1-0.1-0.2-0.3-0.2c-0.1,0-0.2-0.2-0.3-0.2  c-0.2-0.2-0.4-0.3-0.6-0.5c-0.3-0.3-0.7-0.7-1-1.1c-0.1-0.1-0.1-0.1-0.2-0.2c0,0,0-0.1-0.1-0.2C62,79.1,61.8,79,61.8,79  c0,0,0-0.1,0-0.2c0,0-0.2-0.2-0.2-0.4c0,0-0.1-0.1-0.1-0.2c-0.1-0.2-0.1-0.4-0.2-0.6c0,0-0.1,0-0.1-0.1c0-0.2,0-0.2-0.1-0.4  c-0.2-0.5-0.2-1.3,0-1.8c0,0,0-0.1,0-0.2c0.1-0.1,0.1-0.1,0.2-0.2c0,0,0-0.1,0-0.2c0,0,0.1,0,0.1,0c0.1-0.2,0-0.4,0.1-0.5  c0-0.1,0.1-0.1,0.2-0.2c0-0.1,0-0.2,0.1-0.2c0-0.1,0.1-0.1,0.2-0.2c0,0,0-0.1,0-0.2c0.4-0.3,0.6-0.7,0.3-1.4c0,0-0.1,0-0.1-0.1  c0-0.1-0.1-0.2-0.2-0.3c0,0-0.2-0.3-0.2-0.5c0-0.1-0.2-0.5-0.3-0.6c0,0-0.1,0-0.1-0.1c0-0.1-0.1-0.2-0.2-0.3  c-0.1-0.1-0.2-0.4-0.3-0.6c0,0-0.1,0-0.1-0.1c0-0.1-0.1-0.2-0.2-0.3c-0.1-0.1-0.1-0.2-0.2-0.2c-0.1-0.1-0.1-0.3-0.2-0.5  c-0.1-0.1-0.1-0.2-0.2-0.2C60,68.3,60,68.2,59.9,68c0,0-0.1-0.1-0.2-0.1c-0.1-0.2-0.1-0.2-0.2-0.4c0,0-0.1,0-0.1-0.1  c0-0.1-0.2-0.2-0.2-0.4c0-0.1,0-0.2-0.1-0.2c0,0-0.1-0.1-0.2-0.1c0,0,0-0.1,0-0.2c0,0-0.1-0.1-0.2-0.1c0,0,0-0.1,0-0.2  c0,0-0.1-0.1-0.2-0.1c0,0,0-0.1,0-0.2c0-0.1-0.1-0.1-0.2-0.2c-0.1-0.1-0.1-0.2-0.2-0.4c0,0-0.1-0.1-0.1-0.1c-0.1-0.1,0-0.2-0.1-0.3  c0-0.1-0.1-0.1-0.2-0.2c0-0.1,0-0.1-0.1-0.2c0,0-0.2-0.3-0.2-0.5c0-0.1-0.1-0.2-0.2-0.3c-0.1-0.1-0.1-0.2-0.2-0.2  c0,0-0.1-0.1-0.1-0.1c-0.1-0.1,0-0.2-0.1-0.3c0,0-0.1-0.1-0.2-0.1c0,0,0-0.1,0-0.2c0-0.1-0.1-0.1-0.2-0.2c0,0,0-0.1,0-0.2  c0,0-0.1-0.1-0.2-0.1c0,0,0-0.1,0-0.2c0,0-0.1-0.1-0.2-0.1c0,0,0-0.1,0-0.2c-0.2-0.1-0.3-0.5-0.5-0.7c-0.1-0.1-0.2-0.4-0.3-0.6  c0,0-0.1,0-0.1-0.1c0-0.1-0.2-0.1-0.2-0.2c0-0.1-0.2-0.3-0.2-0.4c0-0.1,0-0.1-0.1-0.2c0,0-0.2-0.4-0.2-0.5c0-0.1-0.2-0.2-0.2-0.4  c0-0.1-0.2-0.2-0.2-0.3c0-0.1-0.1-0.2-0.2-0.3c0,0-0.1-0.1-0.1-0.1c-0.1-0.1,0-0.2-0.1-0.3c0-0.1-0.1-0.1-0.2-0.2  C54,58,54,57.9,54,57.8c0,0-0.1-0.1-0.2-0.1c0,0,0-0.1,0-0.2c-0.1-0.2-0.3-0.2-0.4-0.3c-0.4,0.1-0.8,0.1-1.3,0.2c0,0,0,0.1-0.1,0.1  c-0.5,0-1.2,0.1-2,0c0,0-0.1,0-0.2,0c-0.1-0.1-0.4,0-0.5-0.1c-0.1-0.2-0.2,0-0.5-0.1c-0.5-0.1-1.4-0.3-1.9-0.6c0,0,0-0.1-0.1-0.1  c-0.1,0-0.2-0.1-0.4-0.2c-0.1,0-0.2,0-0.3-0.1c-0.1,0-0.1-0.1-0.2-0.2c0,0-0.1,0-0.2,0c0,0,0-0.1,0-0.1c-0.1,0-0.2,0-0.2-0.1  c0,0-0.1-0.1-0.2-0.2c0,0-0.1,0-0.2,0c0,0-0.2-0.1-0.2-0.1c-0.1-0.1-0.6-0.3-0.8-0.4c-0.1,0-0.1-0.1-0.2-0.2  c-0.2-0.1-0.5-0.4-0.7-0.6c-0.1-0.1-0.3-0.3-0.4-0.5c0,0-0.1,0-0.1-0.1c0-0.1-0.1-0.2-0.2-0.2c-0.1-0.1-0.1-0.2-0.2-0.3  c-0.1-0.1-0.2-0.3-0.4-0.4c-0.3,0-0.5,0.3-0.8,0.4c-0.1,0-0.2,0.2-0.3,0.2c-0.1,0-0.2,0.1-0.3,0.2c-0.3,0.2-0.9,0.5-1.3,0.8  c-0.1,0-0.1,0.1-0.2,0.2c-0.6,0.4-1.2,0.7-1.8,1.1c0,0,0,0.1-0.1,0.1c0,0-0.1,0.1-0.2,0.1c-0.1,0-0.1,0.1-0.2,0.2  c-0.1,0-0.1,0-0.2,0.1c0,0-0.1,0.1-0.1,0.1c-0.1,0-0.2,0-0.2,0.1c0,0-0.1,0.1-0.1,0.2c0,0-0.1,0-0.2,0c0,0-0.1,0.1-0.1,0.2  c0,0-0.1,0-0.2,0c-0.1,0-0.1,0.2-0.2,0.2c-0.1,0.1-0.2,0-0.2,0.1c0,0-0.1,0.1-0.1,0.2c-0.1,0-0.2,0.1-0.3,0.2  c-0.1,0.1-0.3,0.2-0.4,0.3c-0.1,0.1-0.3,0.3-0.4,0.4c-0.1,0.1-0.3,0.2-0.4,0.3c-0.1,0.1-0.2,0.1-0.2,0.2c0,0-0.1,0.1-0.1,0.2  c0,0-0.1,0-0.2,0c-0.1,0.1-0.2,0.3-0.3,0.4c-0.6,0.5-1.3,0.9-1.9,1.4c0,0,0,0.1-0.1,0.1c-0.1,0-0.1,0.2-0.2,0.2  c-0.1,0-0.2,0.2-0.3,0.2c-0.1,0.1-0.2,0.1-0.2,0.2c-0.1,0-0.1,0.1-0.2,0.2c0,0-0.1,0-0.2,0c0,0-0.1,0.1-0.1,0.2  c-0.1,0.1-0.2,0-0.2,0.1c0,0-0.1,0.1-0.1,0.2c0,0-0.1,0-0.2,0c-0.1,0.1-0.1,0.2-0.2,0.2c0,0-0.1,0-0.2,0c-0.2,0.2-0.4,0.4-0.6,0.6  c-0.1,0.1-0.2,0.1-0.2,0.2c0,0.1,0.1,0.2-0.1,0.2c0.2,0.4,0.3,0.8,0.4,1c0,0,0.1,0,0.1,0.1c0,0.2,0.2,0.4,0.2,0.6c0,0,0,0.1,0,0.2  c0,0,0.1,0.1,0.1,0.1c0.1,0.3,0,0.8,0,1.1c0,0.7,0,1.1-0.2,1.5c0,0.1,0,0.1-0.1,0.2c0,0,0,0.1,0,0.2c-0.1,0.1-0.1,0.1-0.1,0.2  c0,0-0.1,0.2-0.1,0.2c0,0-0.1,0-0.1,0c0,0,0,0.1,0,0.2c0,0-0.1,0-0.1,0c0,0,0,0.1,0,0.2c-0.1,0.1-0.3,0.5-0.4,0.8  c0,0.1-0.1,0.3-0.2,0.4c0,0,0,0.1,0,0.2c0,0-0.1,0-0.1,0c0,0,0,0.1,0,0.2c0,0-0.2,0.2-0.2,0.3c0,0,0,0.1,0,0.1  c-0.1,0.1-0.2,0.2-0.2,0.2c0,0,0,0.1,0,0.2c-0.1,0.1-0.1,0.1-0.2,0.2c-0.1,0.1-0.2,0.1-0.2,0.2c-0.1,0.2-0.3,0.4-0.4,0.6  c-0.1,0.1-0.2,0.1-0.2,0.2c0,0,0,0.1,0,0.2c-0.2,0.1-0.6,0.4-0.9,0.6c-0.1,0-0.1,0.1-0.2,0.2c-0.1,0.1-0.2,0-0.2,0.1  c0,0-0.1,0.1-0.2,0.2c0,0-0.1,0-0.2,0c0,0,0,0.1,0,0.1c0,0-0.1,0-0.2,0c-0.2,0.2-0.9,0.3-1.4,0.4c-0.1,0-0.2,0-0.3,0  c-0.3,0.1-1,0.1-1.6,0.1c-0.3,0-0.5,0.1-0.7,0c-0.1,0-0.3,0-0.5,0c-0.3,0-0.7-0.2-1-0.2c-0.2,0-0.4,0-0.6-0.1c-0.2,0-0.2,0-0.4-0.1  c-0.2,0-0.7-0.3-0.9-0.5c-0.1-0.1-0.2-0.1-0.3-0.2c0,0-0.1-0.1-0.1-0.1c-0.1,0-0.2-0.2-0.3-0.2c0,0-0.1-0.1-0.2-0.1  c-0.1,0-0.2,0-0.2-0.1c0,0-0.1-0.1-0.1-0.2c0,0-0.1,0-0.2,0c0,0-0.1-0.1-0.1-0.2c0,0-0.1,0-0.2,0c0,0-0.1-0.1-0.1-0.2  c-0.1,0-0.2-0.1-0.3-0.2c-0.1-0.1-0.3-0.2-0.4-0.3c0,0-0.1-0.1-0.1-0.2c-0.1,0-0.2,0-0.3-0.2c-0.1-0.1,0-0.2-0.1-0.2  c0,0-0.1,0-0.2-0.1c-0.1-0.1-0.1-0.2-0.2-0.3c0,0-0.1,0-0.1-0.1c0-0.1-0.1-0.2-0.2-0.3c0,0,0-0.1,0-0.2c0,0-0.1,0-0.1,0  c-0.1-0.2-0.2-0.4-0.2-0.6c0,0-0.1,0-0.1-0.1c0-0.1-0.2-0.2-0.2-0.3c0-0.1-0.1-0.3-0.2-0.4c0-0.2,0.1-0.6,0.2-1c0-0.3,0-0.6,0.1-1  c0,0,0.1,0,0.1-0.1c0-0.1,0-0.3,0-0.5c0,0,0.1,0,0.1-0.1c0-0.2,0-0.2,0.1-0.3c0-0.1,0-0.2,0.1-0.2c0-0.1,0.1-0.2,0.2-0.3  c0.1-0.4,0.1-0.8,0.2-1.1c0,0,0.1,0,0.1-0.1c0-0.1,0.1-0.3,0.2-0.4c0.1-0.2,0.3-0.2,0.4-0.4c0.2-0.2,0.3-0.5,0.5-0.7  c0-0.1,0.1-0.1,0.2-0.2c0,0,0-0.1,0-0.2c0,0,0.1-0.1,0.2-0.1c0,0,0-0.1,0-0.2c0,0,0.1-0.1,0.2-0.1c0,0,0-0.1,0-0.2  c0,0,0.1-0.1,0.2-0.1c0.1-0.1,0-0.2,0.1-0.2c0,0,0.1-0.1,0.2-0.1c0,0,0-0.1,0-0.2c0.1-0.1,0.2-0.1,0.2-0.2c0.2-0.2,0.3-0.3,0.5-0.5  c0,0,0-0.1,0.1-0.1c0,0,0.1,0,0.1,0c0.1-0.1,0.2-0.2,0.2-0.2c0.1-0.1,0.2-0.1,0.3-0.2c0,0,0-0.1,0.1-0.1c0.1,0,0.2-0.2,0.3-0.2  c0,0,0.2-0.1,0.2-0.1c0.1,0,0.2-0.2,0.2-0.2c0.1,0,0.3,0,0.4-0.1c0,0,0-0.1,0.1-0.1c0,0,0.1,0,0.1,0c0,0,0.1-0.1,0.1-0.1  c0.3-0.1,0.6,0,1-0.1c0,0,0-0.1,0.1-0.1c0.4,0,1.2-0.1,1.7-0.2c0.3,0,0.7,0,1,0c0.3,0,0.7,0.2,1,0.4c0.1,0,0.2,0,0.3,0.1  c0,0,0.1,0.1,0.2,0.2c0.3,0.1,0.6,0.2,1,0.1c0.1-0.1,0.1-0.1,0.2-0.2c0.2-0.1,0.3-0.2,0.6-0.4c0.1-0.1,0.1-0.2,0.2-0.2  c0.1,0,0.2-0.2,0.2-0.2c0.1,0,0.2-0.2,0.3-0.2c0.4-0.3,1-0.7,1.4-1c0.1-0.1,0.2-0.2,0.2-0.2c0,0,0.1,0,0.2,0  c0.1-0.1,0.1-0.1,0.2-0.2c0.1-0.1,0.2-0.2,0.2-0.2c0,0,0.1,0,0.2,0c0.3-0.3,0.8-0.7,1.1-1c0.2-0.2,0.4-0.5,0.7-0.7  c0.2-0.2,0.5-0.4,0.7-0.6c0.1-0.1,0.1-0.2,0.2-0.2c0.1-0.1,0.2-0.1,0.3-0.2c0.1-0.1,0.1-0.2,0.2-0.2c0.1,0,0.2-0.2,0.2-0.2  c0.1,0,0.4-0.3,0.6-0.4c0.1,0,0.2-0.2,0.2-0.2c0,0,0.1,0,0.1,0c0.1-0.1,0.1-0.2,0.2-0.2c0.1-0.1,0.3-0.1,0.5-0.2c0,0,0-0.1,0.1-0.1  c0,0,0.1,0,0.1,0c0.1-0.1,0.1-0.2,0.2-0.2c0.1-0.1,0.2-0.1,0.3-0.2c0.1-0.1,0.2-0.2,0.2-0.2c0,0,0.1,0,0.2,0c0,0,0.1-0.1,0.1-0.2  c0.1-0.1,0.2-0.1,0.3-0.2c0.1-0.1,0.1-0.2,0.2-0.2c0,0,0.1,0,0.2,0c0,0,0-0.1,0-0.1c0,0,0.1,0,0.2,0c0.1-0.1,0.1-0.2,0.2-0.2  c0.1,0,0.2-0.2,0.3-0.2c0.1,0,0.2-0.2,0.2-0.2c0,0,0.1,0,0.1,0c0.1-0.1,0.2-0.2,0.2-0.2c0,0,0.1,0,0.2,0c0,0,0.1-0.1,0.1-0.2  c0,0,0.1,0,0.2,0c0,0,0-0.1,0-0.1c0,0,0.1,0,0.2,0c0,0,0-0.1,0-0.1c0.1-0.1,0.3-0.1,0.5-0.2c0,0,0-0.1,0.1-0.1c0,0,0.1,0,0.1,0  c0.1-0.1,0.1-0.2,0.2-0.2c0.5-0.4,1.1-0.7,1.7-1.1c0.1-0.1,0.1-0.2,0.2-0.2c0,0,0.1,0,0.2,0c0,0,0.1-0.1,0.1-0.2  c0.1-0.1,0.3,0,0.4-0.1c0,0,0-0.1,0.1-0.1c0.2,0,0.3-0.2,0.5-0.3c0.1-0.1,0.2-0.1,0.2-0.2c0.1-0.2,0.2-0.4,0.2-0.6  c0.1-0.4,0.3-0.7,0.6-1.1c0-0.1,0-0.1,0.1-0.2c0,0,0.1-0.1,0.1-0.1c0.1-0.1,0-0.2,0.1-0.3c0-0.1,0.2-0.1,0.2-0.2c0,0,0-0.1,0-0.2  c0,0,0.1,0,0.2-0.1c0.1-0.2,0.2-0.3,0.3-0.5c0.1-0.1,0.3-0.3,0.4-0.4c0.2-0.2,0.3-0.3,0.6-0.5c0,0,0-0.1,0.1-0.1c0,0,0.1,0,0.1,0  c0.1-0.1,0.1-0.2,0.2-0.2c0,0,0.1,0,0.2,0c0.1-0.1,0.2-0.2,0.4-0.3c0.5-0.3,0.9-0.6,1.6-0.7c0,0,0.1-0.1,0.1-0.1c0.2,0,0.4,0,0.6,0  c0.4-0.1,0.7-0.2,0.8-0.4c0.1-0.2,0.1-0.2,0.2-0.6c0-0.4,0-0.7-0.1-1c0-0.1,0-0.2,0-0.3c0,0-0.1,0-0.1-0.1c0-0.1,0-0.3,0-0.4  c-0.1-0.3-0.1-1-0.2-1.5c0,0-0.1,0-0.1-0.1c0-0.4,0-0.7-0.1-1.2c-0.1-0.4-0.2-0.8-0.3-1.2c-0.1-0.5-0.2-1.1-0.3-1.6  c0-0.1,0-0.2,0-0.2c0-0.1-0.1-0.2-0.1-0.5c0,0,0-0.1,0-0.2c0-0.1-0.1-0.5-0.2-0.8c0,0-0.1,0-0.1-0.1c0-0.1,0-0.2,0-0.2  c0-0.2-0.1-0.9-0.2-1.3c0-0.4,0-0.6-0.2-0.9c0-0.1-0.1-0.2-0.2-0.3c0,0-0.1,0-0.2,0c0,0,0-0.1,0-0.1c0,0-0.1,0-0.2,0  c0,0,0-0.1,0-0.1c0,0-0.1,0-0.2,0c0,0,0-0.1,0-0.1c0,0-0.1,0-0.2,0c0,0,0-0.1,0-0.1c0,0-0.1,0-0.2,0c0,0,0-0.1,0-0.1  c0,0-0.1,0-0.2,0c-0.1-0.1-0.6-0.2-0.8-0.3c-0.2-0.1-0.5-0.2-0.6-0.3c0,0,0-0.1-0.1-0.1c0,0-0.5-0.4-0.6-0.5c0,0,0-0.1,0-0.2  c0,0-0.1,0-0.1,0c0,0,0-0.1,0-0.2c0,0-0.1,0-0.1,0c0,0,0-0.1,0-0.2c0,0-0.1-0.1-0.2-0.1c0,0,0-0.1,0-0.2c-0.2-0.2-0.5-0.4-0.7-0.7  c-0.1-0.2-0.1-0.3-0.2-0.6c-0.1-0.4-0.5-1.2-0.6-1.8c0-0.4,0-0.9,0.1-1.2c0-0.1,0.1-0.2,0.2-0.3c0.1-0.2,0.1-0.5,0.2-0.7  c0,0,0.1,0,0.1-0.1c0-0.1,0.1-0.2,0.2-0.3c0,0,0-0.1,0-0.2c0,0,0.1,0,0.1,0c0,0,0-0.1,0-0.2c0,0,0.1,0,0.1,0c0,0,0-0.1,0-0.2  c0.1-0.1,0.1-0.1,0.2-0.2c0.2-0.3,0.4-0.9,0.9-1c0.1-0.3,0.3-0.5,0.4-0.7c0.2,0,0.4-0.2,0.6-0.3c0,0,0.1-0.1,0.1-0.2  c0,0,0.1,0,0.2,0c0,0,0.1-0.1,0.1-0.2c0,0,0.1,0,0.2,0c0,0,0-0.1,0.1-0.2c0,0,0.1,0,0.2,0c0,0,0-0.1,0-0.1c0.1-0.1,0.2,0,0.3-0.1  c0.1-0.1,0.2-0.1,0.4-0.2c0.2-0.1,0.7-0.2,1-0.3c0,0,0-0.1,0.1-0.1c0.1,0,0.2,0,0.3-0.1c0.1,0,0.1-0.1,0.2-0.1  c0.1,0,0.5-0.1,0.7-0.2c0.2,0,0.4-0.1,0.9,0c0,0,0,0.1,0.1,0.1c0.3,0.1,0.7,0,1.1,0.1c0.4,0,0.6,0.1,1,0.2c0.2,0.1,0.4,0.1,0.6,0.2  c0.1,0,0.2,0.1,0.3,0.2c0.1,0,0.2,0,0.2,0.1c0,0,0.1,0.1,0.2,0.2c0.1,0.1,0.4,0.1,0.5,0.2c0.1,0,0.1,0.1,0.2,0.2  c0.1,0,0.2,0,0.2,0.1c0.1,0,0.1,0.1,0.2,0.2c0.1,0.1,0.2,0.3,0.4,0.4c0.1,0.1,0.2,0,0.2,0.1c0,0,0,0.1,0.1,0.2  c0.2,0.1,0.3,0.2,0.5,0.5c0,0.1,0,0.1,0.1,0.2c0.1,0.1,0.1,0.2,0.2,0.2c0,0,0.1,0.1,0.1,0.1c0,0.1,0,0.2,0.1,0.2  c0,0.1,0.2,0.1,0.2,0.2c0,0,0,0.1,0,0.2c0.1,0.1,0.1,0.1,0.2,0.2c0,0.1,0.1,0.1,0.1,0.2c0,0.1,0.1,0.5,0.2,0.9c0,0.3,0,0.5,0,0.8  c0,0.5,0.1,1.1,0.1,1.5c0,0.5-0.3,1-0.4,1.5c0,0.1-0.1,0.3-0.1,0.4c-0.1,0.3-0.1,0.5-0.2,0.7c0,0,0,0.1,0,0.2c0,0-0.1,0-0.1,0  c0,0,0,0.1,0,0.2c0,0-0.1,0-0.1,0c0,0,0,0.1,0,0.2c0,0-0.1,0-0.2,0.1c0,0-0.1,0.2-0.1,0.2c-0.2,0.1-0.2,0.1-0.4,0.2  c-0.1,0-0.1,0.1-0.2,0.2C55.2,27.9,55.1,28,55,28c0,0-0.1,0.1-0.2,0.2c-0.1,0.1-0.2,0-0.3,0.1c-0.1,0-0.1,0.1-0.2,0.2  c-0.1,0-0.1,0-0.2,0.1c-0.1,0.1-0.1,0.1-0.2,0.2c-0.1,0.1-0.4,0.2-0.6,0.3c0,0,0,0.1-0.1,0.1c-0.1,0-0.2,0.1-0.3,0.2  c0,0-0.1,0-0.2,0C52.8,29.4,52.8,29.5,52.6,29.6z M49.1,21c0,0-0.1,0-0.2,0c0,0-0.1,0.1-0.2,0.2c-0.3,0.1-0.3,0.2-0.5,0.4  c-0.2,0.3-0.4,0.7-0.6,0.9c-0.1,0.2-0.2,0.5-0.3,0.6c0,0,0,0.1,0,0.2c0,0.1-0.1,0.1-0.2,0.2c-0.2,0.6-0.3,0.9-0.2,1.4  c0.1,0.3,0.2,0.5,0.3,0.6c0.4,0.4,1.7,0.2,2.1,0.2c0.4-0.1,0.8-0.2,1-0.3c0.2-0.1,0.5-0.2,0.6-0.2c0.1,0,0.1,0,0.2-0.1  c0.2-0.1,0.2-0.2,0.3-0.5c0,0,0.1,0,0.1,0c0,0,0-0.1,0-0.2c0.1-0.4,0.2-1,0.2-1.4c0.1-0.6,0-0.9-0.2-1.3  C50.9,21.1,50.1,21.2,49.1,21z M78.9,42.3c0,0-0.1,0.1-0.2,0.2c-0.2,0.1-0.4,0.2-0.5,0.3c-0.1,0.1-0.1,0.2-0.2,0.3  c-0.1,0.1-0.2,0.2-0.2,0.3c0,0.1-0.1,0.2-0.2,0.2c-0.1,0.1-0.2,0.1-0.2,0.2c-0.1,0.1-0.1,0.1-0.2,0.2c0,0,0,0.1,0,0.2  c0,0-0.1,0-0.1,0c0,0,0,0.1,0,0.2c0,0-0.1,0-0.1,0c0,0,0,0.1,0,0.2c0,0-0.1,0-0.1,0c0,0,0,0.1,0,0.2c0,0-0.1,0-0.1,0  c-0.1,0.1,0,1.2,0.1,1.4c0.1,0.3,0.2,0.5,0.3,0.6c0.1,0.1,0.1,0.2,0.2,0.2c0.1,0,0,0.1,0.1,0.1c0.1,0.1,0.5,0.2,0.6,0.2  c0.4,0,1-0.2,1.6-0.6c0.2-0.1,0.6-0.4,0.8-0.6c0.2-0.1,0.4-0.3,0.5-0.4c0.1-0.1,0-0.2,0.1-0.3c0,0,0.1-0.1,0.1-0.1  c0,0,0.1-0.1,0.1-0.2c0.2-0.6,0.1-0.8,0-1.4c-0.1-0.3,0-0.3-0.1-0.4c0,0,0-0.1,0-0.2c0,0-0.1,0-0.1,0c0,0,0-0.1,0-0.2  c0,0-0.1-0.1-0.2-0.2c-0.1-0.1-0.3-0.2-0.4-0.2c0,0-0.1-0.1-0.2-0.1c-0.1,0,0-0.1-0.1-0.1c-0.3-0.1-1-0.2-1.3-0.2  c-0.1,0-0.1,0.1-0.1,0.1C79.1,42.3,78.9,42.2,78.9,42.3z M49.6,45.5c0,0-0.1,0.1-0.2,0.2c-0.2,0.1-0.4,0.2-0.6,0.4  c-0.3,0.3-0.4,0.4-0.6,0.7c-0.1,0.1-0.2,0.3-0.2,0.4c0,0.1,0,0.1-0.1,0.2c0,0-0.1,0.1-0.2,0.2c0,0.1,0,0.1-0.1,0.2  c0,0-0.1,0.1-0.2,0.2c0,0.1-0.1,0.3-0.1,0.3c-0.1,0.3-0.2,0.6-0.2,0.7c0,0.1-0.1,0.2-0.1,0.3c-0.1,0.3,0,0.4-0.1,0.6  c-0.1,0.9,0,1.2,0.4,1.8c0,0.1,0,0.2,0.1,0.2c0,0.1,0.2,0.1,0.2,0.2c0.1,0.1,0,0.2,0.1,0.2c0.1,0.1,0.2,0.1,0.2,0.2  c0.1,0.1,0.2,0.3,0.3,0.4c0.1,0,0.2,0,0.2,0.1c0,0,0.1,0.1,0.1,0.2c0,0,0.1,0,0.2,0c0,0,0.1,0.1,0.2,0.2c0.6,0.5,1.6,0.3,2.3,0.1  c0.1,0,0.1-0.1,0.1-0.1c0.2-0.1,0.4-0.1,0.6-0.2c0,0,0-0.1,0.1-0.2c0.1-0.1,0.2,0,0.2-0.1c0.1-0.1,0.2-0.2,0.3-0.3  c0.1-0.1,0.2-0.2,0.2-0.3c0.1-0.1,0.3-0.3,0.3-0.4c0-0.1,0.1,0,0.1-0.1c0.1-0.2,0.2-0.3,0.2-0.4c0.1-0.2,0.2-0.3,0.2-0.4  c0,0,0.1-0.1,0.2-0.2c0.1-0.1,0.1-0.4,0.2-0.5c0-0.2,0-0.4,0.1-0.6c0.1-0.3,0-0.5,0-0.6c-0.1-0.3,0-0.4-0.2-0.5c0,0,0-0.1,0-0.2  c0,0-0.1,0-0.1,0c0,0,0-0.1,0-0.2c0,0-0.1,0-0.1,0c0,0,0-0.1,0-0.2c0,0-0.1,0-0.1,0c0,0,0-0.1,0-0.2c0-0.1-0.2-0.2-0.2-0.2  c-0.1-0.1-0.3-0.3-0.4-0.4c0,0-0.1,0-0.2,0c-0.2-0.2-0.3-0.3-0.5-0.5c-0.4-0.4-1-1-1.3-1.4c0,0-0.1,0-0.2,0  c-0.1-0.1-0.2-0.2-0.2-0.2c-0.1-0.1-0.2,0-0.3-0.2c-0.1,0-0.2,0-0.2,0C50,45.2,49.8,45.3,49.6,45.5z M18.2,68c0,0,0.1,0.1,0.2,0.2  c0,0.1,0,0.2,0.1,0.2c0.1,0.1,0.1,0.3,0.2,0.4c0.1,0.1,0.3,0.4,0.3,0.4c0.1,0,0,0.1,0.1,0.1c0.1,0,0.2,0,0.2,0.1  c0.1,0.1,0.2,0.2,0.3,0.3c0.1,0.1,0.1,0.1,0.2,0.2c0.1,0.1,0.3,0.1,0.3,0.2c0.2,0.1,0.5,0.1,0.7,0.2c0.3,0,0.6,0.1,0.8-0.1  c0,0,0.1,0,0.2,0c0.3-0.1,0.5-0.2,0.6-0.4c0,0,0.1,0,0.2,0c0.1-0.1,0.5-0.5,0.5-0.6c0-0.1,0.2-0.2,0.2-0.2c0,0,0-0.1,0-0.2  c0-0.1,0.1-0.1,0.2-0.2c0.1-0.1,0.1-0.1,0.2-0.2c0,0,0-0.1,0-0.2c0,0,0.1,0,0.1,0c0,0,0-0.1,0-0.2c0,0,0.1,0,0.1,0c0,0,0-0.1,0-0.2  c0,0,0.1,0,0.1,0c0,0,0-0.1,0-0.2c0,0,0.1,0,0.1,0c0,0,0-0.1,0-0.2c0.1-0.2,0.1-0.3,0.2-0.4c0-0.2,0.1-0.7,0-1.1  c0-0.1-0.3-0.9-0.4-1c0,0,0-0.1,0-0.2c0,0-0.1,0-0.1,0c0,0,0-0.1,0-0.2c0,0-0.1-0.1-0.2-0.1c0,0,0-0.1,0-0.2c0,0-0.1,0-0.1,0  c0,0,0-0.1,0-0.2c0,0-0.1,0-0.1,0c0,0,0-0.1,0-0.2c0-0.1-0.2-0.1-0.2-0.2c-0.1-0.1-0.1-0.3-0.2-0.3c-0.1-0.1-0.3-0.2-0.4-0.3  c-0.1-0.1-0.2-0.3-0.3-0.4c0,0-0.2,0-0.2,0c0,0-0.1-0.1-0.2-0.2c-0.1-0.1-0.2-0.1-0.3-0.2c-0.3-0.1-0.4,0.1-0.5,0.2  c-0.3,0.2-0.6,0.4-0.8,0.6c-0.2,0.2-0.3,0.4-0.4,0.6c-0.1,0.1-0.2,0.2-0.2,0.2c0,0,0,0.1,0,0.1c0,0.1-0.1,0-0.1,0.1  c-0.2,0.3-0.3,0.4-0.5,0.6c0,0,0,0.1,0,0.2c0,0-0.1,0-0.1,0c0,0,0,0.1,0,0.2c0,0.1-0.2,0.1-0.2,0.2c0,0.1-0.1,0-0.1,0.1  c-0.1,0.2-0.2,0.3-0.2,0.4c-0.1,0.1-0.1,0.3-0.2,0.5c-0.1,0.4-0.1,0.8-0.2,1.2C18.1,67.7,18.1,67.9,18.2,68z M71.1,74.8  c-0.1-0.1-0.2-0.2-0.3-0.3c-0.1-0.1-0.1,0-0.2-0.1c0,0-0.1-0.1-0.2-0.2c-0.1-0.1-0.3-0.1-0.3-0.2c-0.1-0.1-0.4-0.1-0.7-0.2  c-0.2,0-0.4-0.1-0.6-0.1c-0.1,0-0.2,0.1-0.2,0.1c-0.1,0,0,0.1-0.1,0.1c-0.1,0-0.2,0-0.4,0.1c0,0,0,0.1,0,0.1c0,0-0.1,0-0.2,0  c0,0-0.1,0.1-0.2,0.2c-0.1,0.1-0.2,0.2-0.3,0.3c-0.6,0.6-1.4,1.6-1.4,2.3c0,0.3,0.1,0.6,0.3,0.9c0,0,0.1,0.1,0.2,0.2  c0,0.1,0,0.2,0.1,0.2c0.2,0.2,0.4,0.3,0.6,0.4c0,0,0,0.1,0,0.1c0,0,0.1,0,0.2,0c0.3,0.1,0.6,0.2,0.9,0.2c0.6,0.1,1.3,0.2,1.7,0.2  C70,79,70,79,70.1,79c0.1,0,0-0.1,0.1-0.1c0.1-0.1,0.2-0.1,0.3-0.2c0.1-0.1,0.1-0.2,0.2-0.2c0,0,0.1,0,0.1,0c0.1,0,0-0.1,0.1-0.1  c0.3-0.2,0.5-0.3,0.7-0.5c0.1-0.1,0.4-0.3,0.4-0.4c0-0.1,0.1-0.3,0.2-0.5c0.1-0.4,0.1-0.6,0-0.9c0-0.2-0.1-0.3-0.2-0.5  c0,0-0.1-0.1-0.2-0.1c0-0.1,0-0.2-0.1-0.2c0,0-0.1-0.1-0.2-0.2c0-0.1,0-0.2-0.1-0.2C71.4,74.9,71.2,74.8,71.1,74.8z"/>
</svg>